<?xml version="1.0" encoding="utf-8"?><!--Generator: Adobe Illustrator 26.5.0, SVG Export Plug-In . SVG Version: 6.00 Build 0)--><svg version="1.1" xmlns="http://www.w3.org/2000/svg" xmlns:xlink="http://www.w3.org/1999/xlink" x="0px" y="0px" viewBox="0 0 500 500" style="enable-background:new 0 0 500 500" xml:space="preserve"><style type="text/css">.st0{fill:#07074B;}
	.st1{fill:#FFFDEC;}
	.st2{fill:#04837A;}</style><g id="Background"/><g id="Logo"><g><circle class="st0" cx="249.05" cy="250" r="243.23"/><circle class="st1" cx="250.04" cy="249.65" r="146.84"/><path class="st1" d="M250,12.98c130.9,0,237.02,106.12,237.02,237.02c0,130.9-106.12,237.02-237.02,237.02
			C119.1,487.02,12.98,380.9,12.98,250C12.98,119.1,119.1,12.98,250,12.98 M250,0c-33.74,0-66.49,6.61-97.32,19.65
			c-29.77,12.59-56.51,30.62-79.46,53.57c-22.96,22.96-40.98,49.69-53.57,79.46C6.61,183.51,0,216.26,0,250s6.61,66.49,19.65,97.32
			c12.59,29.77,30.62,56.51,53.57,79.46c22.96,22.96,49.69,40.98,79.46,53.57C183.51,493.39,216.26,500,250,500
			c33.74,0,66.49-6.61,97.32-19.65c29.77-12.59,56.51-30.62,79.46-53.57c22.96-22.96,40.98-49.69,53.57-79.46
			C493.39,316.49,500,283.74,500,250s-6.61-66.49-19.65-97.32c-12.59-29.77-30.62-56.51-53.57-79.46s-49.69-40.98-79.46-53.57
			C316.49,6.61,283.74,0,250,0L250,0z"/><path class="st2" d="M326.89,225.56h5.35v2.66h-8.89v-1.15c0-2.22,0.71-3.76,2.64-5.46l1.43-1.29c1.1-0.96,1.62-2.06,1.62-3.4
			c0-1.24-0.52-1.84-1.43-1.84c-1.02,0-1.59,0.69-1.59,2.72h-2.94c0-3.49,1.54-5.16,4.75-5.16c2.77,0,4.34,1.54,4.34,4.28
			c0,1.87-0.71,3.32-2.31,4.8l-1.56,1.48C327.47,224,327.03,224.71,326.89,225.56z M344.32,220.57c0,5.63-1.54,7.93-5.24,7.93
			c-3.68,0-5.22-2.31-5.22-7.93c0-5.63,1.54-7.93,5.22-7.93C342.78,212.63,344.32,214.94,344.32,220.57z M341,220.57
			c0-3.95-0.49-5.3-1.92-5.3c-1.4,0-1.89,1.35-1.89,5.3c0,3.95,0.49,5.3,1.89,5.3C340.5,225.87,341,224.52,341,220.57z
			 M350.96,223.2l1.56-1.48c1.59-1.48,2.31-2.94,2.31-4.8c0-2.74-1.56-4.28-4.34-4.28c-3.21,0-4.75,1.67-4.75,5.16h2.94
			c0-2.03,0.58-2.72,1.59-2.72c0.91,0,1.43,0.6,1.43,1.84c0,1.34-0.52,2.44-1.62,3.4l-1.43,1.29c-1.92,1.7-2.63,3.24-2.63,5.46v1.15
			h8.89v-2.66h-5.35C349.7,224.71,350.14,224,350.96,223.2z M364.55,222.71h1.67v2.44h-1.67v3.07h-3.07v-3.07h-5.65v-2.11
			l5.79-10.13h2.94V222.71z M361.53,217.33l-3.05,5.38h3.05V217.33z M133.57,212.91h9.11v2.72h-5.79v3.46h4.61v2.66h-4.61v3.76h5.79
			v2.72h-9.11V212.91z M151.39,219.58l-2.17-0.91c-1.26-0.55-1.73-1.04-1.73-2c0-0.96,0.52-1.48,1.65-1.48
			c1.21,0,1.76,0.66,1.81,2.17h3.35c-0.16-3.1-1.87-4.72-5.11-4.72c-3.4,0-5,1.73-5,4.34c0,2.14,1.15,3.51,3.21,4.36l2.22,0.96
			c1.26,0.55,1.67,1.04,1.67,2.03c0,1.07-0.6,1.62-1.81,1.62c-1.43,0-2.14-0.69-2.2-2.28h-3.4c0.11,3.1,1.89,4.83,5.54,4.83
			c3.57,0,5.19-1.78,5.19-4.42C154.63,221.99,153.72,220.57,151.39,219.58z M154.68,215.74h3.46v12.49h3.32v-12.49h3.46v-2.83
			h-10.24V215.74z M177.12,225.51h-10.88v2.72h10.88V225.51z M172.54,222.79h-6.3v-9.88h6.3c2.85,0,4.75,1.54,4.75,4.94
			C177.29,221.25,175.39,222.79,172.54,222.79z M172.12,219.97c0.91,0,1.77-0.6,1.77-2.12c0-1.52-0.86-2.12-1.77-2.12h-2.56v4.24
			H172.12z"/><path class="st2" d="M250.04,99.82c-82.75,0-149.83,67.08-149.83,149.83c0,82.75,67.08,149.83,149.83,149.83
			s149.83-67.08,149.83-149.83C399.87,166.9,332.79,99.82,250.04,99.82z M346.81,346.42c-0.05,0.05-0.09,0.09-0.14,0.14
			c-8.05,8.03-19.97,10.78-30.79,7.27l-7.06-2.29c-0.87-0.28-1.63,0.65-1.18,1.44c1.21,2.14-0.84,4.65-3.18,3.89l-16.43-5.33
			c-0.87-0.28-1.63,0.65-1.18,1.44c1.21,2.14-0.84,4.65-3.18,3.89l-13.42-4.35c-5.04-1.64-8.46-5.87-8.46-11.17v-34.6
			c0-0.83-0.67-1.5-1.5-1.5h-20.63c-0.83,0-1.5,0.67-1.5,1.5v34.6c0,5.02-3.24,9.48-8.02,11.03l-13.85,4.49
			c-2.34,0.76-4.38-1.75-3.18-3.89c0.45-0.79-0.31-1.72-1.18-1.44l-16.43,5.33c-2.34,0.76-4.38-1.75-3.18-3.89
			c0.45-0.79-0.31-1.72-1.18-1.44l-7.02,2.28c-10.8,3.5-22.7,0.75-30.74-7.26c-0.05-0.05-0.09-0.09-0.14-0.14
			c-12.57-12.57-22.44-27.21-29.33-43.5c-7.13-16.86-10.75-34.78-10.75-53.26c0-18.48,3.62-36.4,10.75-53.26
			c6.89-16.29,16.76-30.93,29.33-43.5c12.57-12.57,27.21-22.44,43.5-29.33c16.86-7.13,34.78-10.75,53.26-10.75
			s36.4,3.62,53.26,10.75c16.29,6.89,30.93,16.76,43.5,29.33c12.57,12.57,22.44,27.21,29.33,43.5
			c7.13,16.86,10.75,34.78,10.75,53.26c0,18.48-3.62,36.4-10.75,53.26C369.25,319.21,359.38,333.84,346.81,346.42z M324.99,264.64
			l-32.58-9.07l33.72,59.71c0.44,0.77-0.28,1.69-1.14,1.45l-53.51-14.89c-0.76-0.21-1.41-0.72-1.8-1.41l-12.52-22.17
			c-0.44-0.77,0.28-1.69,1.14-1.45l26.66,7.42l-34.9-61.81l34.9,9.71l-34.9-61.82l-34.9,61.82l34.9-9.71l-34.9,61.81l26.66-7.42
			c0.86-0.24,1.57,0.68,1.14,1.45l-12.52,22.17c-0.39,0.69-1.04,1.2-1.8,1.41l-53.51,14.89c-0.86,0.24-1.57-0.68-1.14-1.45
			l33.72-59.71l-32.58,9.07c-0.86,0.24-1.57-0.68-1.14-1.45l75.21-133.2c0.38-0.68,1.36-0.68,1.74,0l75.21,133.2
			C326.56,263.96,325.84,264.88,324.99,264.64z"/><path class="st1" d="M458.74,277.43c-0.91,6.36-3.08,10.93-6.45,13.58c-2.68,2.11-5.53,2.53-7.43,2.66l-0.74,0.05l-0.53-7.43
			l0.75-0.05c2.85-0.2,6.28-1.49,7.47-9.8c0.35-2.48,0.72-5.67,0.45-8.36c-0.31-3.01-1.31-4.59-3.07-4.84
			c-0.11-0.02-0.22-0.02-0.32-0.02c-2.69,0-3.86,5.52-4.63,9.18c-0.08,0.37-0.15,0.72-0.22,1.05c-2.72,12.46-5.64,16.87-11.15,16.87
			c-0.52,0-1.08-0.04-1.66-0.12c-6.02-0.86-9.01-8.85-7.43-19.9c1.16-8.15,4.21-13.26,9.31-15.62l0.64-0.3l3.31,6.13l-0.66,0.36
			c-1.58,0.86-4.53,2.45-5.66,10.42c-0.95,6.68-0.3,11.17,1.66,11.45c0.15,0.02,0.29,0.03,0.42,0.03c1.43,0,2.47-1.62,4.48-10.81
			c1.89-8.65,4.18-16.41,11.37-16.41c0.52,0,1.06,0.04,1.62,0.12c4.09,0.58,6.84,3.01,8.15,7.22
			C459.52,266.45,459.63,271.2,458.74,277.43z M212.88,456.62l31.91,3.13l0.64-6.56l-24.93-2.44l0.67-6.84l23.36,2.29l0.64-6.56
			l-23.36-2.29l0.72-7.31l24.93,2.44l0.64-6.56l-31.91-3.13L212.88,456.62z M59.41,320.07l25.27-10.59l-2.71-6.47l-31.34,13.13
			l12.12,28.94l6.08-2.55L59.41,320.07z M132.9,380.66l-30.25,5.18l7.55-29.75l-4.52-4.89l-24.97,23.08l4.76,5.15l15.19-14.04
			l-5.93,24.06l3.69,4l24.46-4.02l-15.19,14.04l4.76,5.15l24.97-23.08L132.9,380.66z M96.16,335.12l-29,17.72l3.66,5.98l29-17.72
			L96.16,335.12z M173.18,416.28l13.29,4.66l-9.06,25.86l6.62,2.32l9.06-25.85l12.88,4.49l2.18-6.22l-32.79-11.47L173.18,416.28z
			 M156.91,398.8l5.23,3.13l-0.98,39.03l-6.91-4.14l0.21-5.81l-19.54-11.69l-5.02,2.93l-6.92-4.14L156.91,398.8z M155.29,407.44
			l-14.3,8.34l13.71,8.2L155.29,407.44z M410.39,362.43l16.49,0.75l-5.4,6.75l-16.06-1.11l-11.67,14.58l10.31,8.26l-4.38,5.47
			l-26.53-21.24l20.35-25.41c2.06-2.57,4.8-4.01,7.71-4.04c2.34-0.02,4.69,0.86,6.79,2.54
			C412.75,352.78,413.58,357.62,410.39,362.43z M405.1,357.24c-0.07-0.94-0.61-1.83-1.61-2.62c-0.81-0.64-1.64-0.97-2.48-0.96
			c-1.04,0.01-2.07,0.56-2.83,1.5l-15.51,19.37l5.93,4.75l15.51-19.37C404.82,359.03,405.16,358.11,405.1,357.24z M375.98,398.3
			c2.81,4.43,3.4,9.31,1.72,14.1c-1.74,4.96-5.92,9.65-12.07,13.56l-0.01,0.01l-0.01,0.01l-0.02,0.01l-0.01,0.01
			c-5.47,3.46-10.69,5.22-15.5,5.22c-5.84,0-10.78-2.72-13.92-7.66c-2.81-4.43-3.4-9.31-1.72-14.1c1.74-4.97,5.92-9.65,12.07-13.56
			l0.03-0.02l0.02-0.01c5.47-3.46,10.69-5.22,15.51-5.22C367.91,390.64,372.85,393.36,375.98,398.3z M369.35,402.51
			c-1.82-2.87-4.69-4.38-8.3-4.38c-3.25,0-6.97,1.27-10.77,3.68c-8.07,5.12-11.01,12-7.5,17.55c1.82,2.87,4.69,4.38,8.3,4.38
			c3.25,0,6.97-1.27,10.77-3.68C369.92,414.94,372.87,408.05,369.35,402.51z M441.24,309.99c1.25,3.21,0.98,6.79-0.79,10.37
			l-8.06,16.35l6.87,3.39l-3.1,6.29l-30.49-15.04l11.17-22.64c2.35-4.77,6.28-7.4,11.05-7.4c2.12,0,4.37,0.55,6.49,1.6
			C437.66,304.53,440.09,307.04,441.24,309.99z M431.27,309.45c-1.2-0.59-2.41-0.9-3.52-0.9c-2.28,0-4.13,1.3-5.34,3.76l-7.73,15.66
			l11.81,5.82l7.73-15.66C436.71,313.07,433.44,310.52,431.27,309.45z M54.63,300.52l2.91-6.79l-0.61-0.32
			c-3.51-1.86-7.29-4.9-8.78-13.43c-1.62-9.27,1.74-16.27,8.36-17.42c0.57-0.1,1.15-0.15,1.72-0.15c5.95,0,10.57,5.26,12.04,13.72
			c1.49,8.53-1.04,12.67-3.71,15.6l-0.46,0.51l5.04,5.4l0.55-0.56c5.1-5.24,6.76-12.47,5.08-22.09c-1.13-6.48-3.38-11.54-6.69-15.02
			c-3.13-3.29-7.14-5.02-11.61-5.02c-1.05,0-2.14,0.1-3.23,0.29c-5.19,0.9-9.21,3.67-11.62,8c-2.53,4.53-3.2,10.71-1.95,17.87
			c1.68,9.62,5.69,15.86,12.26,19.06L54.63,300.52z M321.35,433.72c-1.15,3.8-3.41,8.1-11.49,11.19c-2.86,1.1-5.59,1.65-8.09,1.65
			c-5.16,0-9.03-2.37-10.62-6.52c-1.1-2.88-0.79-6,0.87-8.76c1.85-3.06,5.24-5.6,9.8-7.35c2.99-1.14,5.62-1.7,8.06-1.7
			c2.8,0,5.33,0.75,7.97,2.35l0.59,0.36l4.34-5.98l-0.66-0.43c-3.23-2.11-6.92-3.18-10.97-3.18c-3.54,0-7.47,0.82-11.68,2.43
			c-6.79,2.6-11.75,6.35-14.35,10.84c-2.48,4.29-2.79,9.16-0.91,14.08c2.67,6.96,8.43,10.8,16.22,10.8c3.59,0,7.55-0.82,11.78-2.44
			c9.12-3.49,14.47-8.62,16.36-15.69l0.2-0.76l-7.22-1.56L321.35,433.72z M114.45,137.1L91.51,112l4.9-4.48l28.76,6.73l-4.04-29.31
			l4.9-4.48l22.93,25.1l-5.18,4.73l-14.05-15.37l2.97,23.57l-4,3.65l-23.13-5.13l14.04,15.37L114.45,137.1z M396.53,153.85
			l22.09-11.73l-6.6,40.92l2.92,5.5l30.03-15.94l-3.29-6.19l-22.09,11.73l6.6-40.92l-2.92-5.5l-30.03,15.94L396.53,153.85z
			 M291.69,44.45l-6.9-1.25l-6.07,33.44l6.9,1.25L291.69,44.45z M325,92.12c4.54,2.12,8.87,3.28,12.89,3.44
			c6.86,0.28,10.39-2.44,10.54-2.55l0.54-0.42l-3.83-5.88l-0.64,0.48c-0.02,0.02-2.42,1.75-7.05,1.56
			c-2.98-0.12-6.22-0.99-9.64-2.59c-4.86-2.27-8.35-5.19-10.09-8.44c-1.56-2.91-1.67-5.96-0.33-8.83c1.8-3.85,5.5-5.86,10.42-5.66
			c2.88,0.12,6.09,0.99,9.52,2.59c5.74,2.69,8.56,5.86,9.92,8.05c1.46,2.35,1.58,4.1,1.58,4.12l0.05,0.79l6.96-0.82l-0.02-0.68
			c-0.01-0.42-0.47-10.29-15.69-17.42c-4.56-2.14-8.9-3.3-12.89-3.46c-7.62-0.31-13.46,3.03-16.45,9.41
			c-2.22,4.74-2.13,9.68,0.25,14.29C313.47,84.83,318.31,88.99,325,92.12z M250.78,60.91l10.98,12.5l-8.63,0.7l-10.42-12.43
			l-18.62,1.51l1.07,13.17l-6.99,0.57l-2.74-33.87c0,0,32.97-2.66,33.22-2.66c5.79-0.12,10,3.72,10.47,9.55
			C259.61,55.9,256.52,59.92,250.78,60.91z M248.3,54.62c1.39-0.11,3.68-0.79,3.42-4.08c-0.21-2.64-2.08-3.54-3.75-3.5
			c-0.09,0-0.19,0.01-0.28,0.01l-24.73,2l0.61,7.57L248.3,54.62z M196.59,75.06l-26.36,11.12l-2.67-6.34l24.91-10.51l-2.56-6.07
			L165,73.78l-2.86-6.77l26.36-11.12l-2.56-6.07l-32.82,13.85l13.21,31.31l32.82-13.85L196.59,75.06z M82.83,190.04l-18.91-36.12
			l3.7-6.71l40.64-3.3l-4.13,7.5l-6.05,0.43L84.09,177.2l2.87,5.35L82.83,190.04z M80.62,170.72l10.11-18.35l-19.21,1.37
			L80.62,170.72z M350.27,104.19l39.68-9.39l5.58,5.24l-6.86,40.19l-6.25-5.86l1.08-5.97l-21.1-19.8l-5.89,1.45L350.27,104.19z
			 M369.54,106.84l15.28,14.34l3.42-18.95L369.54,106.84z"/><path class="st1" d="M440.63,214.75l-3.59-3.3l3.02-9.07c0.14-0.41,0.52-0.68,0.95-0.68h2.44v13.28
			c-0.53-0.24-1.11-0.37-1.72-0.37C441.35,214.6,440.98,214.65,440.63,214.75z M456.72,225.33l-6.22-7.27l-4.61,1.36
			c-0.15,1-0.65,1.89-1.38,2.53l11.04,6.64l1.26-2.09C457.03,226.13,457,225.66,456.72,225.33z M437.55,218.43l-11.65,7.78
			l1.36,2.03c0.19,0.28,0.5,0.44,0.83,0.44c0.09,0,0.18-0.01,0.26-0.04l9.22-2.53l0.75-4.86c-0.5-0.69-0.8-1.54-0.8-2.46
			C437.53,218.68,437.53,218.55,437.55,218.43z M441.73,216.9c-1.05,0-1.9,0.85-1.9,1.9c0,1.05,0.85,1.9,1.9,1.9s1.9-0.85,1.9-1.9
			C443.63,217.76,442.78,216.9,441.73,216.9z"/><path class="st1" d="M56.78,214.75l-3.59-3.3l3.02-9.07c0.14-0.41,0.52-0.68,0.95-0.68h2.44v13.28c-0.53-0.24-1.11-0.37-1.72-0.37
			C57.5,214.6,57.13,214.65,56.78,214.75z M72.86,225.33l-6.22-7.27l-4.61,1.36c-0.15,1-0.65,1.89-1.38,2.53l11.04,6.64l1.26-2.09
			C73.18,226.13,73.14,225.66,72.86,225.33z M53.69,218.43l-11.65,7.78l1.36,2.03c0.19,0.28,0.5,0.44,0.83,0.44
			c0.09,0,0.18-0.01,0.26-0.04l9.22-2.53l0.75-4.86c-0.5-0.69-0.8-1.54-0.8-2.46C53.68,218.68,53.68,218.55,53.69,218.43z
			 M57.88,216.9c-1.05,0-1.9,0.85-1.9,1.9c0,1.05,0.85,1.9,1.9,1.9s1.9-0.85,1.9-1.9C59.78,217.76,58.93,216.9,57.88,216.9z"/></g></g></svg>