<svg width="16" height="16" viewBox="0 0 16 16" fill="none" xmlns="http://www.w3.org/2000/svg"><path fill-rule="evenodd" clip-rule="evenodd" d="M9.70601 8.00001L15.647 2.05901C16.118 1.58801 16.118 0.824006 15.647 0.353006C15.176 -0.117994 14.412 -0.117994 13.941 0.353006L8.00001 6.29401L2.05901 0.353006C1.58801 -0.117994 0.824006 -0.117994 0.353006 0.353006C-0.117994 0.824006 -0.117994 1.58801 0.353006 2.05901L6.29401 8.00001L0.353006 13.941C-0.117994 14.412 -0.117994 15.176 0.353006 15.647C0.588006 15.883 0.897006 16 1.20601 16C1.51501 16 1.82301 15.882 2.05901 15.647L8.00001 9.70601L13.941 15.647C14.177 15.883 14.485 16 14.794 16C15.103 16 15.411 15.882 15.647 15.647C16.118 15.176 16.118 14.412 15.647 13.941L9.70601 8.00001Z" fill="white"/></svg>