<svg version="1.1" xmlns="http://www.w3.org/2000/svg" xmlns:xlink="http://www.w3.org/1999/xlink" x="0px" y="0px" viewBox="0 0 37.8 42" enable-background="new 0 0 37.8 42" xml:space="preserve"><path fill="#FFFFFF" d="M7.3,16.2c-0.2-0.1-0.4-0.1-0.5,0c-0.2,0.1-0.3,0.2-0.4,0.4l-0.6,1.3c0,0.1-0.1,0.2-0.2,0.3l-0.3,0.3L7,19.1
	v-0.5c0-0.1,0-0.2,0.1-0.3l0.6-1.2c0-0.1,0.1-0.2,0.1-0.3c0-0.1,0-0.2,0-0.3c0-0.1-0.1-0.2-0.1-0.2C7.5,16.3,7.4,16.2,7.3,16.2z"/><path fill="#FFFFFF" d="M19.4,7.4c0-0.1,0-0.2,0-0.3l0.2-1.3c0-0.1,0-0.2,0-0.3c0-0.1-0.1-0.2-0.1-0.3C19.4,5.1,19.4,5,19.3,5
	c-0.1-0.1-0.2-0.1-0.3-0.1c-0.1,0-0.2,0-0.3,0c-0.1,0-0.2,0.1-0.3,0.1c-0.1,0.1-0.1,0.1-0.2,0.2c0,0.1-0.1,0.2-0.1,0.3L18,6.8
	c0,0.1-0.1,0.2-0.1,0.3l-0.3,0.3l1.9,0.3L19.4,7.4z"/><path fill="#FFFFFF" d="M10.6,11.7c0.3-0.1,0.5-0.3,0.6-0.5c0.2-0.2,0.2-0.5,0.2-0.8c0-0.3-0.1-0.5-0.2-0.8
	c-0.2-0.2-0.4-0.4-0.6-0.5C10.3,9,10.1,9,9.8,9.1C9.5,9.1,9.3,9.3,9.1,9.5c-0.2,0.2-0.3,0.4-0.4,0.7c-0.1,0.3,0,0.6,0.1,0.8
	c0.1,0.2,0.2,0.3,0.3,0.5c0.1,0.1,0.3,0.2,0.5,0.3c0.2,0.1,0.4,0.1,0.5,0.1C10.3,11.8,10.4,11.8,10.6,11.7z"/><path fill="#FFFFFF" d="M37.8,18.9c0-0.9-0.2-1.8-0.7-2.5c-0.5-0.8-1.1-1.4-1.9-1.8c0.2-0.8,0.2-1.6-0.1-2.4
	c-0.3-0.7-0.9-1.4-1.6-1.7c0.3-0.8,0.3-1.8,0.1-2.6s-0.6-1.7-1.3-2.3c-0.6-0.6-1.4-1.1-2.3-1.3c-0.9-0.2-1.8-0.2-2.6,0.1
	c-0.4-0.7-1-1.3-1.8-1.6c-0.8-0.3-1.6-0.3-2.4-0.1c-0.4-0.8-1-1.5-1.8-1.9C20.7,0.3,19.8,0,18.9,0s-1.8,0.2-2.5,0.7
	c-0.8,0.5-1.4,1.1-1.8,1.9c-0.8-0.2-1.6-0.2-2.4,0.1c-0.7,0.3-1.4,0.9-1.7,1.6C9.6,4.1,8.7,4,7.9,4.2C7,4.4,6.2,4.9,5.6,5.5
	S4.5,6.9,4.3,7.7C4,8.6,4,9.5,4.3,10.3c-0.7,0.4-1.2,1-1.5,1.8c-0.3,0.8-0.3,1.6,0,2.4c-0.8,0.4-1.5,1-2,1.8C0.3,17,0,17.9,0,18.8
	c0,0.9,0.2,1.8,0.7,2.6c0.5,0.8,1.1,1.4,1.9,1.8c-0.2,0.8-0.2,1.6,0.1,2.4C3,26.3,3.6,27,4.3,27.3c-0.2,0.7-0.3,1.4-0.2,2
	c0.1,0.7,0.3,1.4,0.7,1.9c0.4,0.6,0.8,1.1,1.4,1.5s1.2,0.7,1.9,0.8c0.1,0.5,0.2,1.1,0.4,1.6c0,0.1,0.1,0.3,0.3,0.4s0.3,0.1,0.4,0.1
	h0c0.5,0,1.1-0.1,1.6-0.1c0.5,0.4,1,0.6,1.6,0.8c0.2,0.1,0.5,0.1,0.7,0.1l-1.8,2.3c-0.1,0.1-0.1,0.3-0.2,0.4c0,0.2,0,0.3,0.1,0.4
	c0.1,0.1,0.2,0.2,0.4,0.3c0.1,0,0.3,0,0.4,0l0.9-0.3l-0.4,1.6c0,0.1,0,0.3,0,0.4c0.1,0.1,0.2,0.3,0.3,0.3c0.1,0.1,0.3,0.1,0.4,0.1
	c0.1,0,0.3-0.1,0.4-0.2l2.4-2c0.7-0.6,1.2-1.3,1.6-2.2c0.7,0.2,1.5,0.2,2.3,0c0.3,0.8,0.9,1.6,1.6,2.2l2.4,2
	c0.1,0.1,0.3,0.2,0.4,0.2c0.1,0,0.3,0,0.4-0.1c0.1-0.1,0.2-0.2,0.3-0.3c0.1-0.1,0.1-0.3,0-0.4l-0.4-1.6l0.9,0.3c0.1,0,0.3,0,0.4,0
	c0.1,0,0.3-0.1,0.4-0.3c0.1-0.1,0.1-0.3,0.1-0.4c0-0.2-0.1-0.3-0.2-0.4l-1.9-2.4c0,0,0.1,0,0.1,0c0.6-0.1,1.2-0.4,1.7-0.9
	c0,0,0,0,0,0c0.7,0.1,1.5,0.2,2.2,0.2h0c0.1,0,0.3,0,0.4-0.1c0.1-0.1,0.2-0.2,0.3-0.4c0.2-0.5,0.3-1.1,0.4-1.6
	c0.7-0.1,1.3-0.4,1.9-0.8c0.6-0.4,1-0.9,1.4-1.5c0.4-0.6,0.6-1.2,0.7-1.9c0.1-0.7,0-1.4-0.1-2c0.7-0.4,1.2-1,1.5-1.8
	c0.3-0.8,0.3-1.6,0-2.4c0.8-0.4,1.5-1,2-1.8C37.5,20.7,37.8,19.8,37.8,18.9z M31,12.5c0.1,0,0.2,0,0.3,0s0.2,0.1,0.2,0.1
	c0.1,0.1,0.1,0.1,0.2,0.2c0,0.1,0.1,0.2,0.1,0.3l0.1,1.6c0,0.2,0,0.4-0.2,0.5c-0.1,0.1-0.3,0.2-0.5,0.2c0,0,0,0-0.1,0
	c-0.2,0-0.3-0.1-0.5-0.2c-0.1-0.1-0.2-0.3-0.2-0.5l-0.1-1.6c0-0.2,0-0.4,0.2-0.5C30.7,12.6,30.8,12.5,31,12.5z M25.3,8.7
	c0.4-0.5,0.9-0.9,1.5-1c0.6-0.2,1.2-0.1,1.8,0.1l0.5-0.6C29.1,7,29.2,7,29.3,6.9c0.1,0,0.2-0.1,0.3-0.1c0.1,0,0.2,0,0.3,0
	c0.1,0,0.2,0.1,0.2,0.1s0.1,0.1,0.2,0.2c0,0.1,0.1,0.2,0.1,0.3c0,0.1,0,0.2,0,0.3s-0.1,0.2-0.1,0.2l-0.5,0.6
	c0.3,0.4,0.5,0.8,0.6,1.3c0.1,0.5,0,1-0.1,1.4c-0.2,0.5-0.5,0.9-0.8,1.2s-0.8,0.5-1.3,0.6c-0.1,0-0.3,0-0.4,0c-0.5,0-1-0.1-1.5-0.4
	c-0.4-0.3-0.8-0.7-1-1.1c-0.2-0.5-0.3-1-0.3-1.5C24.8,9.6,25,9.1,25.3,8.7L25.3,8.7z M22.5,7.4L23.2,6c0-0.1,0.1-0.2,0.2-0.2
	c0.1-0.1,0.1-0.1,0.2-0.1c0.1,0,0.2,0,0.3,0c0.1,0,0.2,0,0.3,0.1s0.2,0.1,0.2,0.2c0.1,0.1,0.1,0.2,0.1,0.2c0,0.1,0,0.2,0,0.3
	c0,0.1,0,0.2-0.1,0.3L23.7,8c0,0.1-0.1,0.2-0.2,0.2c-0.1,0.1-0.2,0.1-0.2,0.1c-0.1,0-0.2,0-0.3,0c-0.1,0-0.2,0-0.3-0.1
	c-0.1,0-0.2-0.1-0.2-0.2c-0.1-0.1-0.1-0.2-0.1-0.2c0-0.1,0-0.2,0-0.3C22.4,7.6,22.4,7.5,22.5,7.4z M15.8,7.6l0.8-1.1l0.2-1.2
	c0.1-0.4,0.3-0.8,0.6-1.1c0.3-0.3,0.7-0.5,1.1-0.6l0.1-0.8c0-0.1,0-0.2,0.1-0.3c0-0.1,0.1-0.1,0.2-0.2s0.2-0.1,0.3-0.1
	c0.1,0,0.2,0,0.3,0c0.1,0,0.2,0.1,0.3,0.1s0.1,0.1,0.2,0.2s0.1,0.2,0.1,0.3c0,0.1,0,0.2,0,0.3l-0.1,0.8c0.4,0.2,0.7,0.5,0.9,0.9
	C21,5.1,21,5.5,21,6l-0.2,1.2l0.4,1.4c0,0.1,0,0.2,0,0.3c0,0.1-0.1,0.2-0.1,0.3c-0.1,0.1-0.1,0.2-0.2,0.2c-0.1,0-0.2,0.1-0.3,0.1
	c0,0-0.1,0-0.1,0l-4.1-0.7c-0.1,0-0.2-0.1-0.3-0.1s-0.2-0.2-0.2-0.3c0-0.1-0.1-0.2,0-0.3C15.7,7.8,15.7,7.7,15.8,7.6L15.8,7.6z
	 M13,6.4c0.1,0,0.2-0.1,0.3-0.1c0.1,0,0.2,0,0.3,0c0.1,0,0.2,0.1,0.2,0.1c0.1,0.1,0.1,0.1,0.2,0.2l0.7,1.4c0.1,0.2,0.1,0.4,0,0.5
	c-0.1,0.2-0.2,0.3-0.4,0.4c-0.2,0.1-0.4,0.1-0.5,0c-0.2-0.1-0.3-0.2-0.4-0.4l-0.7-1.4c0-0.1-0.1-0.2-0.1-0.3c0-0.1,0-0.2,0-0.3
	c0-0.1,0.1-0.2,0.1-0.2C12.8,6.5,12.9,6.4,13,6.4L13,6.4z M8.1,7.5C8,7.4,8,7.3,8,7.2C8,7.1,8,7,8,6.9c0-0.1,0.1-0.2,0.1-0.2
	c0.1-0.1,0.1-0.1,0.2-0.2c0.1,0,0.2-0.1,0.3-0.1c0.1,0,0.2,0,0.3,0.1c0.1,0,0.2,0.1,0.2,0.2c0.1,0.1,0.1,0.1,0.1,0.2l0.3,0.7
	c0.6-0.1,1.2,0,1.8,0.3c0.5,0.3,1,0.8,1.2,1.3c0.2,0.5,0.3,1,0.2,1.5c-0.1,0.5-0.3,1-0.6,1.4c-0.3,0.4-0.8,0.7-1.3,0.8
	c-0.5,0.2-1,0.2-1.5,0c-0.5-0.1-1-0.4-1.3-0.8C7.7,12,7.4,11.5,7.3,11c-0.1-0.5-0.1-1,0.1-1.5C7.6,9,8,8.5,8.4,8.2L8.1,7.5z
	 M7.6,22.7l-0.7,1.4c-0.1,0.2-0.2,0.3-0.4,0.4c-0.2,0.1-0.4,0-0.5,0c-0.2-0.1-0.3-0.2-0.4-0.4c-0.1-0.2,0-0.4,0-0.5l0.7-1.4
	c0.1-0.2,0.2-0.3,0.4-0.4c0.2-0.1,0.4,0,0.5,0c0.2,0.1,0.3,0.2,0.4,0.4C7.7,22.4,7.7,22.5,7.6,22.7z M8.9,17.7l-0.5,1.1l0,1.4
	c0,0.1,0,0.2-0.1,0.3c-0.1,0.1-0.1,0.2-0.2,0.3c-0.1,0.1-0.2,0.1-0.3,0.1c-0.1,0-0.2,0-0.3-0.1l-3.8-1.8c-0.1-0.1-0.2-0.1-0.3-0.2
	c-0.1-0.1-0.1-0.2-0.1-0.3s0-0.2,0.1-0.3c0-0.1,0.1-0.2,0.2-0.3L4.6,17l0.5-1.1C5.3,15.5,5.6,15.2,6,15c0.4-0.2,0.8-0.3,1.2-0.3
	L7.6,14c0.1-0.2,0.2-0.3,0.4-0.4c0.2-0.1,0.4-0.1,0.5,0c0.2,0.1,0.3,0.2,0.4,0.4c0.1,0.2,0.1,0.4,0,0.5l-0.4,0.7
	C8.8,15.6,9,16,9.1,16.4C9.1,16.9,9.1,17.3,8.9,17.7L8.9,17.7z M16.8,35.5c0,0.6-0.1,1.2-0.4,1.8c-0.3,0.6-0.6,1.1-1.1,1.5l-0.8,0.7
	l0.2-0.7c0-0.1,0-0.2,0-0.3c0-0.1-0.1-0.2-0.1-0.3c-0.1-0.1-0.1-0.2-0.2-0.2c-0.1,0-0.2-0.1-0.3-0.1c0,0-0.1,0-0.1,0l2.9-3.6V35.5z
	 M16.8,28.7v2.5c-0.7-0.2-1.4-0.3-2.1-0.4c-1.3-0.1-2.6,0.2-3.8,0.8c-0.1,0-0.2,0.1-0.2,0.2c-0.1,0.1-0.1,0.1-0.1,0.2
	c0,0.1,0,0.2,0,0.3c0,0.1,0,0.2,0.1,0.3c0,0.1,0.1,0.2,0.2,0.2c0.1,0.1,0.1,0.1,0.2,0.1c0.1,0,0.2,0,0.3,0c0.1,0,0.2,0,0.3-0.1
	c1-0.5,2.1-0.7,3.2-0.6c0.4,0,0.8,0.1,1.2,0.2c-1.9,1.1-4,1.8-6.2,1.9c-0.8-2.7-0.8-5.6,0-8.4c2.6,0.2,5,1,7.1,2.5V28.7z M18.2,31.5
	v-2.8c0-0.2,0.1-0.4,0.2-0.5c0.1-0.1,0.3-0.2,0.5-0.2c0.2,0,0.4,0.1,0.5,0.2c0.1,0.1,0.2,0.3,0.2,0.5v2.8c0,0.2-0.1,0.4-0.2,0.5
	c-0.1,0.1-0.3,0.2-0.5,0.2c-0.2,0-0.4-0.1-0.5-0.2C18.3,31.9,18.2,31.7,18.2,31.5z M18.9,26.6c-0.5,0-1,0.2-1.4,0.6
	c-0.7-0.5-1.5-0.9-2.2-1.2c-0.1-0.9-0.4-1.7-1.1-2.3c-0.6-0.6-1.4-1-2.3-1.1c0-0.2-0.1-0.5-0.2-0.7c-0.1-0.2-0.2-0.4-0.3-0.6
	c0.5-0.7,0.8-1.5,0.8-2.4c0-0.9-0.3-1.7-0.8-2.4c0.2-0.2,0.3-0.4,0.4-0.7c0.1-0.2,0.1-0.4,0.2-0.6c0.8-0.1,1.6-0.5,2.2-1.1
	c0.6-0.6,1-1.4,1.1-2.2c0.2,0,0.5-0.1,0.7-0.2c0.2-0.1,0.4-0.2,0.6-0.3c0.7,0.5,1.5,0.8,2.4,0.8c0.8,0,1.7-0.3,2.3-0.8
	c0.4,0.3,0.8,0.5,1.3,0.5c0.1,0.8,0.5,1.6,1.1,2.2c0.6,0.6,1.4,1,2.2,1.1c0,0.2,0.1,0.5,0.2,0.7c0.1,0.2,0.2,0.4,0.3,0.6
	c-0.5,0.7-0.8,1.5-0.8,2.4c0,0.9,0.3,1.7,0.8,2.4c-0.2,0.2-0.3,0.4-0.4,0.7c-0.1,0.2-0.1,0.4-0.2,0.6c-0.9,0.1-1.7,0.5-2.3,1.2
	s-1,1.5-1,2.3c-0.7,0.4-1.5,0.7-2.1,1.2C19.9,26.8,19.4,26.6,18.9,26.6z M23.3,38c-0.1,0.1-0.2,0.2-0.2,0.3c0,0.1,0,0.2,0,0.4
	l0.2,0.7l-0.8-0.7c-0.5-0.4-0.9-0.9-1.1-1.5c-0.3-0.6-0.4-1.2-0.4-1.8v-1.3l2.9,3.6c-0.1,0-0.2,0-0.3,0S23.4,37.9,23.3,38z
	 M28.1,34.3c-2.2-0.1-4.3-0.8-6.2-1.9c0.4-0.1,0.8-0.2,1.2-0.2c1.1,0,2.2,0.2,3.2,0.6c0.1,0,0.2,0.1,0.3,0.1c0.2,0,0.3-0.1,0.4-0.2
	c0.1-0.1,0.2-0.2,0.2-0.4c0-0.2,0-0.3-0.1-0.5c-0.1-0.1-0.2-0.3-0.3-0.3c-1.2-0.6-2.5-0.8-3.8-0.8c-0.7,0-1.4,0.2-2.1,0.4v-2.8
	c2.1-1.4,4.6-2.3,7.1-2.5C28.9,28.6,28.9,31.5,28.1,34.3z M34.4,20.8L30.8,23c-0.1,0.1-0.2,0.1-0.4,0.1c-0.1,0-0.2,0-0.3-0.1
	c-0.1-0.1-0.2-0.1-0.3-0.2c-0.1-0.1-0.1-0.2-0.1-0.3L29.6,21L29,20c-0.1-0.2-0.2-0.5-0.3-0.8c0-0.3,0-0.6,0-0.8
	c0.1-0.3,0.2-0.6,0.4-0.8l-0.4-0.7c-0.1-0.2-0.1-0.3-0.1-0.5c0-0.2,0.2-0.3,0.3-0.4c0.2-0.1,0.3-0.1,0.5-0.1c0.2,0,0.3,0.2,0.4,0.3
	l0.4,0.7c0.4-0.1,0.9,0,1.3,0.1c0.4,0.2,0.7,0.5,1,0.8l0.6,1l1.2,0.8c0.1,0.1,0.2,0.2,0.2,0.3s0.1,0.2,0.1,0.3c0,0.1,0,0.2-0.1,0.3
	C34.6,20.7,34.5,20.8,34.4,20.8L34.4,20.8z"/><path fill="#FFFFFF" d="M32.1,19.7l-0.7-1.2c0-0.1-0.1-0.1-0.2-0.2c-0.1-0.1-0.2-0.1-0.2-0.1c-0.1,0-0.1,0-0.2,0
	c-0.1,0-0.2,0-0.4,0.1c-0.1,0.1-0.2,0.2-0.3,0.3c-0.1,0.1-0.1,0.2-0.1,0.4c0,0.1,0,0.2,0.1,0.4l0.7,1.2c0.1,0.1,0.1,0.2,0.1,0.3
	l0,0.4l1.7-1l-0.4-0.3C32.2,19.9,32.1,19.8,32.1,19.7z"/><path fill="#FFFFFF" d="M26.8,11.5c0.2,0.2,0.5,0.3,0.8,0.3c0.3,0,0.6-0.1,0.8-0.2c0.2-0.1,0.4-0.4,0.5-0.6s0.2-0.5,0.1-0.8
	c0-0.3-0.2-0.5-0.4-0.7S28.2,9.1,27.9,9c-0.3-0.1-0.6,0-0.8,0c-0.3,0.1-0.5,0.3-0.6,0.5c-0.1,0.1-0.2,0.3-0.2,0.5
	c0,0.2-0.1,0.4,0,0.5c0,0.2,0.1,0.4,0.2,0.5C26.5,11.3,26.6,11.4,26.8,11.5z"/></svg>