<svg width="245" height="18" viewBox="0 0 245 18" fill="none" xmlns="http://www.w3.org/2000/svg"><path d="M146.553 7.46139C144.456 7.16564 143.45 4.356 143.44 4.32431L143.219 3.68527L142.659 4.06024C141.055 5.1165 139.357 3.00399 139.289 2.93005L138.938 2.48114L138.524 2.87196C137.355 3.96518 136.464 3.34727 136.37 3.27862L135.751 2.78746L135.536 3.55324C135.322 4.32959 134.211 5.29606 133.482 5.84004L133.257 5.4545L132.832 5.63406C131.559 6.16219 130.799 4.83659 130.736 4.68872L130.317 3.88596L129.829 4.64647C129.557 5.00048 129.215 5.29329 128.824 5.50612C128.433 5.71894 128.003 5.84707 127.56 5.88229C127.529 5.72385 127.497 5.57597 127.466 5.43338C127.13 1.83683 124.321 0.0940058 122.419 0.00422406C120.322 -0.0961202 117.812 1.58861 117.534 5.34888C117.534 5.53372 117.503 5.708 117.482 5.87701C117.038 5.8438 116.607 5.71711 116.215 5.50513C115.823 5.29316 115.48 5.00062 115.207 4.64647L114.725 3.89653L114.306 4.68344C114.222 4.83659 113.462 6.17804 112.21 5.63406L111.79 5.4545L111.565 5.83475C110.852 5.30663 109.726 4.31375 109.516 3.54796L109.306 2.80858L108.693 3.27334C108.594 3.34727 107.703 3.97046 106.534 2.87196L106.12 2.48114L105.769 2.93005C105.769 2.93005 104.013 5.13234 102.399 4.06024L101.833 3.68527L101.581 4.32959C101.581 4.356 100.591 7.16564 98.4684 7.46139L96 7.80995L98.4003 8.49652C99.3279 8.76058 101.749 9.77458 101.823 11.2745L101.864 12.1036L102.593 11.7181C102.593 11.7181 104.689 10.6196 106.094 11.3801C106.019 11.4764 105.933 11.5633 105.837 11.6389L104.888 12.3466L106.047 12.5842C107.509 12.8853 109.757 13.688 109.946 14.4591L110.145 15.2777L110.789 14.7495C111.376 14.2584 113.274 12.9803 114.233 13.5613L114.6 13.7831L115.124 13.1916C116.172 15.0981 118.583 15.7266 120.412 15.9114C120.398 16.4424 120.564 16.9621 120.883 17.3849C121.061 17.59 121.282 17.7518 121.531 17.8579C121.78 17.9641 122.049 18.0118 122.319 17.9975C122.586 18.0078 122.852 17.9598 123.099 17.8568C123.346 17.7538 123.568 17.5982 123.75 17.4007C124.109 16.9512 124.308 16.3934 124.316 15.8164C127.906 15.3569 129.263 14.0049 129.782 13.049L130.406 13.7619L130.773 13.5401C131.732 12.9592 133.629 14.2373 134.216 14.7284L134.86 15.2566L135.06 14.438C135.248 13.6669 137.496 12.8536 138.959 12.5631L140.112 12.3254L139.163 11.623C139.068 11.5493 138.981 11.4642 138.906 11.3695C140.29 10.6143 142.386 11.697 142.407 11.7075L143.136 12.0931L143.177 11.2692C143.251 9.7693 145.672 8.7553 146.6 8.49124L149 7.80467L146.553 7.46139ZM129.043 11.1583C129.091 11.2699 129.116 11.3904 129.116 11.5121C129.116 11.6339 129.091 11.7543 129.043 11.866V11.9769C128.986 12.3023 128.841 12.6056 128.624 12.8536C121.538 15.5365 116.822 13.1124 116.072 12.6846C115.96 12.4986 115.871 12.3001 115.805 12.0931L115.779 12.0191C115.64 11.7624 115.606 11.461 115.684 11.1794C115.749 11.103 115.838 11.0524 115.936 11.0368C116.313 11.9082 117.602 13.5929 121.947 13.5929H122.44C122.665 13.5929 127.534 13.6405 128.959 11.0949C128.994 11.1187 129.025 11.1492 129.048 11.1847L129.043 11.1583ZM122.356 1.06048C123.881 1.13442 126.145 2.57621 126.412 5.55485V5.60766C126.491 5.99847 127.135 9.22533 128.053 10.5562C127.146 12.2304 123.75 12.5631 122.424 12.5473C118.137 12.674 117.11 11.1583 116.879 10.609C117.33 10.0281 118.341 8.42258 118.556 5.4281C118.829 1.84739 121.114 1.00239 122.356 1.06048ZM102.713 10.4981C102.294 9.29399 101.026 8.47539 100.02 8.00008C101.036 7.3195 101.836 6.35887 102.326 5.23269C103.835 5.82419 105.339 4.863 106.188 3.99159C106.54 4.27033 106.955 4.45597 107.396 4.53161C107.838 4.60724 108.291 4.57048 108.714 4.42465C109.287 5.30331 110.02 6.06487 110.873 6.6692C110.683 6.86705 110.472 7.04407 110.244 7.19732L108.148 7.37689L107.949 7.30295L107.918 7.39273L107.593 7.41914L107.524 7.3452C107.301 7.08805 107.046 6.86086 106.765 6.6692C106.618 6.56923 106.464 6.48094 106.303 6.40513C106.136 6.3236 105.96 6.26158 105.779 6.22029C105.808 6.41046 105.859 6.59657 105.931 6.77482C105.996 6.94079 106.073 7.10147 106.162 7.25542C106.22 7.35048 106.282 7.44026 106.345 7.53004L104.773 7.66207L104.511 7.36104C104.282 7.09833 104.019 6.86745 103.73 6.67448C103.413 6.46054 103.057 6.31324 102.682 6.24141C102.747 6.61748 102.886 6.97663 103.091 7.29767C103.204 7.47531 103.332 7.64313 103.473 7.79939L101.073 8.00536L103.473 8.06873C103.473 8.13739 103.437 8.20077 103.426 8.26942C103.379 8.56323 103.379 8.86286 103.426 9.15668C103.687 9.01965 103.924 8.84133 104.128 8.62855C104.277 8.46556 104.411 8.28873 104.527 8.10042L106.351 8.14795L106.298 8.18492C106.183 8.48716 106.119 8.80673 106.109 9.13027C106.41 9.016 106.69 8.85177 106.938 8.64439C107.117 8.49337 107.282 8.32536 107.43 8.14267H107.635C107.348 8.93528 107.01 9.70801 106.623 10.4559C105.302 9.69537 103.615 10.1496 102.713 10.4981ZM114.358 12.4469C113.038 11.998 111.418 12.975 110.601 13.5349C109.851 12.6159 108.18 12.0403 107.105 11.7445C107.717 10.7629 108.22 9.71615 108.604 8.62327C110.36 8.93486 111.665 7.46139 112.184 6.74841C112.664 6.85865 113.166 6.82824 113.631 6.66077C114.095 6.4933 114.502 6.19573 114.804 5.80307C115.503 6.42696 116.376 6.81959 117.304 6.92798C117.262 7.14451 117.209 7.35576 117.157 7.55117L116.381 7.93142C116.141 7.83742 115.889 7.77528 115.632 7.74657C115.298 7.70949 114.96 7.74552 114.641 7.8522C114.795 8.10409 114.996 8.32303 115.234 8.49652L114.521 8.84508L114.411 8.81868C114.026 8.72521 113.633 8.66862 113.237 8.64967C112.819 8.62577 112.401 8.66494 111.995 8.76586C112.309 9.04435 112.662 9.27399 113.043 9.44715L113.179 9.49996L111.974 10.0915L111.707 9.99112C111.386 9.87759 111.054 9.80312 110.716 9.7693C110.542 9.75798 110.367 9.75798 110.192 9.7693C109.999 9.77504 109.808 9.8016 109.621 9.84852C109.736 10.0031 109.868 10.1447 110.014 10.271C110.15 10.386 110.294 10.4919 110.444 10.5879C110.538 10.6513 110.637 10.6988 110.737 10.7463L108.866 11.623L110.905 10.8942C110.905 11.021 110.858 11.1424 110.842 11.2692C110.802 11.622 110.822 11.9791 110.9 12.3254C111.175 12.1062 111.413 11.8421 111.602 11.5438C111.779 11.2687 111.924 10.9747 112.037 10.6671L112.11 10.4612L113.562 9.93302C113.53 10.0598 113.499 10.1918 113.478 10.3238C113.4 10.7507 113.388 11.1871 113.441 11.6178C113.762 11.3273 114.036 10.9889 114.254 10.6143C114.464 10.2626 114.639 9.89116 114.778 9.50524L115.684 9.1778C115.679 9.39008 115.706 9.60195 115.763 9.80627C116.004 9.66949 116.218 9.49066 116.397 9.27815C116.499 9.15948 116.59 9.03226 116.67 8.89789C116.501 9.27226 116.292 9.62654 116.046 9.95415C115.797 9.95452 115.552 10.0158 115.332 10.1326C115.112 10.2494 114.924 10.4184 114.783 10.6249C114.666 10.8481 114.596 11.0937 114.579 11.3457C114.562 11.5977 114.598 11.8505 114.683 12.0878L114.358 12.4469ZM122.964 16.6719C122.88 16.7572 122.779 16.8231 122.668 16.8651C122.557 16.907 122.438 16.924 122.319 16.9149C122.204 16.9292 122.086 16.9156 121.977 16.8752C121.868 16.8348 121.769 16.7688 121.69 16.6825C121.541 16.4694 121.462 16.2144 121.465 15.9537H121.9C122.256 15.9537 122.471 15.9537 122.471 15.9537C122.744 15.9537 122.995 15.9537 123.252 15.9114C123.231 16.1902 123.129 16.4566 122.959 16.6772L122.964 16.6719ZM134.41 13.5032C133.592 12.9222 131.978 11.9716 130.657 12.4152L130.133 11.8343C130.181 11.6127 130.183 11.3836 130.14 11.1611C130.097 10.9386 130.009 10.7274 129.882 10.5404C129.644 10.2547 129.31 10.0668 128.944 10.0122C128.764 9.74904 128.616 9.4654 128.503 9.16724C128.54 9.21477 128.566 9.2623 128.608 9.30455C128.787 9.51723 129.001 9.69608 129.242 9.83268C129.3 9.62836 129.326 9.41649 129.321 9.20421L130.228 9.53165C130.366 9.91757 130.542 10.289 130.752 10.6407C130.97 11.0153 131.244 11.3537 131.564 11.6442C131.618 11.2135 131.605 10.7771 131.527 10.3502C131.527 10.2182 131.47 10.0915 131.443 9.95943L132.895 10.4876L132.968 10.6935C133.081 11.0011 133.227 11.2951 133.403 11.5702C133.593 11.8685 133.83 12.1327 134.106 12.3518C134.184 12.0055 134.203 11.6484 134.163 11.2956C134.163 11.1688 134.127 11.0421 134.1 10.9206L136.171 11.623L134.305 10.7041C134.404 10.6513 134.504 10.6037 134.598 10.5457C134.748 10.4496 134.892 10.3438 135.028 10.2288C135.174 10.1026 135.306 9.96093 135.421 9.80627C135.234 9.75935 135.043 9.73279 134.85 9.72705C134.675 9.71574 134.5 9.71574 134.326 9.72705C133.984 9.76691 133.648 9.84849 133.325 9.96999L133.058 10.0703L131.852 9.47883L131.988 9.42602C132.37 9.25286 132.723 9.02323 133.037 8.74474C132.631 8.64381 132.212 8.60465 131.795 8.62855C131.399 8.6475 131.006 8.70408 130.621 8.79755L130.511 8.82396L129.798 8.47539C130.035 8.30201 130.237 8.08305 130.39 7.83108C130.071 7.7244 129.733 7.68837 129.399 7.72545C129.143 7.75386 128.891 7.81601 128.65 7.9103L128.011 7.59342C127.943 7.36104 127.88 7.12867 127.822 6.89629C128.724 6.77966 129.57 6.39125 130.248 5.78194C130.551 6.17461 130.958 6.47218 131.422 6.63965C131.886 6.80712 132.388 6.83752 132.869 6.72729C133.393 7.44026 134.693 8.91374 136.448 8.60214C136.834 9.69534 137.338 10.7421 137.952 11.7234C136.826 12.0403 135.154 12.6159 134.41 13.5349V13.5032ZM142.297 10.4717C141.396 10.1232 139.708 9.66896 138.366 10.4717C137.98 9.73239 137.643 8.96851 137.355 8.18492H137.559C137.707 8.36761 137.872 8.53562 138.052 8.68664C138.299 8.89419 138.579 9.05843 138.88 9.17252C138.875 8.83475 138.811 8.5005 138.691 8.18492L138.66 8.11627L140.484 8.06873C140.6 8.25706 140.733 8.4339 140.882 8.59686C141.085 8.8094 141.32 8.98771 141.579 9.12499C141.627 8.83118 141.627 8.53155 141.579 8.23773C141.579 8.16908 141.548 8.1057 141.532 8.03705L143.932 7.97367L141.532 7.7677C141.673 7.61119 141.801 7.44339 141.914 7.26598C142.119 6.94495 142.258 6.58579 142.323 6.20972C141.948 6.28127 141.592 6.42859 141.275 6.64279C140.986 6.83571 140.723 7.0666 140.494 7.32936L140.232 7.63039L138.66 7.49836C138.723 7.40858 138.791 7.32407 138.843 7.22373C138.932 7.0698 139.01 6.90911 139.074 6.74313C139.146 6.56488 139.197 6.37878 139.226 6.1886C139.045 6.22989 138.869 6.29191 138.702 6.37344C138.542 6.44948 138.387 6.53776 138.241 6.63751C137.96 6.82917 137.704 7.05636 137.481 7.31351L137.413 7.38745L137.088 7.36104L137.056 7.27126L136.857 7.3452L134.761 7.16564C134.533 7.01216 134.323 6.83516 134.132 6.63751C134.986 6.03318 135.718 5.27162 136.291 4.39297C136.715 4.53879 137.168 4.57555 137.609 4.49992C138.05 4.42428 138.465 4.23864 138.817 3.9599C139.666 4.83131 141.165 5.79778 142.68 5.201C143.169 6.32703 143.97 7.28758 144.986 7.96839C143.985 8.48067 142.716 9.29399 142.297 10.4981V10.4717Z" fill="#102455"/><line x1="159" y1="8.5" x2="245" y2="8.5" stroke="#102455"/><line x1="159" y1="10.75" x2="236" y2="10.75" stroke="#102455" stroke-width="0.5"/><line x1="9" y1="9.75" x2="86" y2="9.75" stroke="#102455" stroke-width="0.5"/><line y1="7.5" x2="86" y2="7.5" stroke="#102455"/></svg>