<svg width="783" height="394" viewBox="0 0 783 394" fill="none" xmlns="http://www.w3.org/2000/svg"><g clip-path="url(#clip0)"><path fill-rule="evenodd" clip-rule="evenodd" d="M391.136 125.24C438.545 125.24 476.94 98.9523 476.94 66.5819C476.94 34.2114 438.545 7.92403 391.136 7.92403C343.726 7.92403 305.331 34.2114 305.331 66.5819C305.331 98.9523 343.726 125.24 391.136 125.24ZM455.923 114.106C439.034 125.674 416.117 132.572 391.136 132.572C366.155 132.572 343.237 125.674 326.348 114.106C309.459 102.591 298 85.9172 298 66.5819C298 47.2465 309.459 30.5725 326.348 19.0582C343.237 7.48953 366.155 0.591797 391.136 0.591797C416.117 0.591797 439.034 7.48953 455.923 19.0582C472.758 30.5725 484.271 47.2465 484.271 66.5819C484.271 85.9172 472.758 102.591 455.923 114.106Z" fill="white"/><path opacity="0.5" d="M390.863 73.5879H389.397V78.2045H390.863V73.5879Z" fill="white"/><path opacity="0.5" d="M390.863 78.7478H389.397V83.3644H390.863V78.7478Z" fill="white"/><path opacity="0.5" d="M392.873 78.7478H391.406V83.3644H392.873V78.7478Z" fill="white"/><path opacity="0.5" d="M392.873 73.5879H391.406V78.1502H392.873V73.5879Z" fill="white"/><path opacity="0.5" d="M413.401 50.9397H368.924C368.598 50.9397 368.326 51.2113 368.326 51.5371V87.3836C368.326 87.7095 368.598 87.981 368.924 87.981H413.346C413.726 87.981 413.998 87.7095 413.998 87.3293V51.4828C413.998 51.2113 413.726 50.9397 413.401 50.9397ZM402.159 65.061C402.159 64.9524 402.213 64.9524 402.268 64.8981C402.376 64.7895 402.485 64.5179 402.485 64.2463V60.3358C402.485 60.1186 402.376 59.9013 402.268 59.6841C402.213 59.6298 402.159 59.5754 402.159 59.5211V58.7607C402.159 58.6521 402.268 58.5978 402.322 58.5978H407.264C407.373 58.5978 407.427 58.7064 407.427 58.7607V59.5211C407.427 59.6298 407.373 59.6298 407.318 59.6841C407.21 59.847 407.101 60.0643 407.101 60.3358V64.192C407.101 64.4093 407.21 64.6265 407.318 64.8438C407.373 64.8981 407.427 64.9524 407.427 65.0067V66.7447C407.427 66.8534 407.318 66.9077 407.264 66.9077H402.322C402.213 66.9077 402.159 66.799 402.159 66.7447V65.061ZM388.474 65.061C388.474 64.9524 388.528 64.9524 388.583 64.8981C388.691 64.7895 388.8 64.5179 388.8 64.2463V60.3901C388.8 60.1729 388.691 59.9556 388.583 59.7384C388.528 59.6841 388.474 59.6297 388.474 59.5754V58.8151C388.474 58.7064 388.583 58.6521 388.637 58.6521H393.579C393.687 58.6521 393.742 58.7607 393.742 58.8151V59.5754C393.742 59.6841 393.687 59.6841 393.633 59.7384C393.524 59.847 393.416 60.1186 393.416 60.3901V64.3007C393.416 64.5179 393.524 64.7352 393.633 64.9524C393.687 65.0067 393.742 65.061 393.742 65.1153V66.8534C393.742 66.962 393.633 67.0163 393.579 67.0163H388.637C388.528 67.0163 388.474 66.9077 388.474 66.8534V65.061ZM374.843 65.061C374.843 64.9524 374.897 64.9524 374.952 64.8981C375.06 64.7895 375.169 64.5179 375.169 64.2463V60.3901C375.169 60.1729 375.06 59.9556 374.952 59.7384C374.897 59.6841 374.843 59.6297 374.843 59.5754V58.8151C374.843 58.7064 374.952 58.6521 375.006 58.6521H379.948C380.056 58.6521 380.111 58.7607 380.111 58.8151V59.5754C380.111 59.6841 380.056 59.6841 380.002 59.7384C379.893 59.847 379.785 60.1186 379.785 60.3901V64.3007C379.785 64.5179 379.893 64.7352 380.002 64.9524C380.056 65.0067 380.111 65.061 380.111 65.1153V66.8534C380.111 66.962 380.002 67.0163 379.948 67.0163H375.006C374.897 67.0163 374.843 66.9077 374.843 66.8534V65.061ZM380.165 72.2303C380.165 72.3389 380.111 72.3389 380.056 72.3933C379.948 72.5019 379.839 72.7734 379.839 73.045V77.7702C379.839 77.9875 379.948 78.2047 380.056 78.422C380.111 78.4763 380.165 78.5306 380.165 78.5849V80.3229C380.165 80.4316 380.056 80.4859 380.002 80.4859H375.06C374.952 80.4859 374.897 80.3772 374.897 80.3229V78.5849C374.897 78.4763 374.952 78.4763 375.006 78.422C375.114 78.3134 375.223 78.0418 375.223 77.7702V73.045C375.223 72.8278 375.114 72.6105 375.006 72.3933C374.952 72.3389 374.897 72.2846 374.897 72.2303V71.4699C374.897 71.3613 375.006 71.307 375.06 71.307H380.002C380.111 71.307 380.165 71.4156 380.165 71.4699V72.2303ZM380.437 70.0578C380.382 70.1664 380.328 70.1664 380.328 70.1664H374.897C374.789 70.1664 374.734 70.1121 374.68 70.0578C374.626 69.9492 374.626 69.8406 374.734 69.7862C375.549 69.1345 376.526 68.7543 377.558 68.7543C378.59 68.7543 379.568 69.1345 380.382 69.7862C380.437 69.8406 380.491 69.9492 380.437 70.0578ZM393.742 84.2878C392.004 84.2878 390.266 84.2878 388.528 84.2878C388.42 84.2878 388.257 84.1791 388.257 84.0162C388.257 80.2686 388.257 76.5753 388.257 72.7734C388.311 69.0259 393.905 69.0259 393.959 72.7734C393.959 76.521 393.959 80.2143 394.013 84.0162C394.013 84.1791 393.85 84.2878 393.742 84.2878ZM407.427 72.2303C407.427 72.3389 407.373 72.3389 407.318 72.3933C407.21 72.5019 407.101 72.7734 407.101 73.045V77.7702C407.101 77.9875 407.21 78.2047 407.318 78.422C407.373 78.4763 407.427 78.5306 407.427 78.5849V80.3229C407.427 80.4316 407.318 80.4859 407.264 80.4859H402.322C402.213 80.4859 402.159 80.3772 402.159 80.3229V78.5849C402.159 78.4763 402.213 78.4763 402.268 78.422C402.376 78.3134 402.485 78.0418 402.485 77.7702V73.045C402.485 72.8278 402.376 72.6105 402.268 72.3933C402.213 72.3389 402.159 72.2846 402.159 72.2303V71.4699C402.159 71.3613 402.268 71.307 402.322 71.307H407.264C407.373 71.307 407.427 71.4156 407.427 71.4699V72.2303ZM407.698 70.0578C407.644 70.1664 407.59 70.1664 407.59 70.1664H402.159C402.051 70.1664 401.996 70.1121 401.942 70.0578C401.888 69.9492 401.888 69.8406 401.996 69.7862C402.811 69.1345 403.788 68.7543 404.82 68.7543C405.852 68.7543 406.83 69.1345 407.644 69.7862C407.698 69.8406 407.753 69.9492 407.698 70.0578Z" fill="white"/><path d="M402.593 39.8602L403.897 40.4033H414.921L415.356 39.8059C415.464 39.6972 415.356 39.5886 415.247 39.5886H402.648C402.485 39.5886 402.431 39.8602 402.593 39.8602Z" fill="white"/><path d="M418.668 43.5534V45.2371C418.668 45.3457 418.777 45.4543 418.831 45.4543H422.741C422.85 45.4543 422.904 45.3457 422.958 45.2371V43.5534L423.61 42.6301C423.718 42.5214 423.61 42.3042 423.501 42.3042H418.071C417.908 42.3042 417.799 42.4671 417.962 42.6301L418.668 43.5534Z" fill="white"/><path d="M414.812 90.9683H393.09H389.125H367.457C367.348 90.9683 367.186 91.0769 367.186 91.2398V93.2494C367.186 93.358 367.294 93.521 367.457 93.521H389.18H393.144H414.867C414.975 93.521 415.138 93.4123 415.138 93.2494V91.2398C415.084 91.0769 414.975 90.9683 414.812 90.9683Z" fill="white"/><path d="M405.146 40.9467L414.65 44.6399C414.759 44.6942 414.867 44.5856 414.867 44.5313V43.3907C414.867 43.3364 414.867 43.3364 414.813 43.2821L414.65 43.0105C414.65 42.9562 414.596 42.9562 414.596 42.9019V40.8923L405.146 40.9467Z" fill="white"/><path d="M367.349 40.4033H378.373L379.676 39.8602C379.785 39.8059 379.785 39.5886 379.622 39.5886H367.023C366.914 39.5886 366.86 39.6972 366.914 39.8059L367.349 40.4033Z" fill="white"/><path d="M359.257 43.5534V45.2371C359.257 45.3457 359.365 45.4543 359.474 45.4543H363.384C363.493 45.4543 363.547 45.3457 363.547 45.2371V43.5534L364.199 42.6301C364.307 42.5214 364.199 42.3042 364.09 42.3042H358.659C358.496 42.3042 358.388 42.4671 358.551 42.6301L359.257 43.5534Z" fill="white"/><path d="M457.552 83.9623H414.432C414.324 83.5822 414.161 83.2563 414.052 82.8761H409.816C409.708 82.8761 409.599 82.9847 409.545 83.0933C409.436 83.4192 409.328 83.7451 409.165 84.071C409.056 84.3969 408.839 84.7227 408.622 84.9943V86.7323H400.964V84.9943C400.584 84.3425 400.313 83.7451 400.096 83.039C400.041 82.9304 399.987 82.8218 399.824 82.8218H395.751C395.642 82.8218 395.534 82.9304 395.479 83.039C395.317 83.6908 395.045 84.3425 394.611 84.9943V86.7323H391.895H390.429H387.714V84.9943C387.333 84.3968 387.062 83.7451 386.845 83.039C386.79 82.9304 386.736 82.8218 386.573 82.8218H382.5C382.392 82.8218 382.283 82.9304 382.229 83.039C382.066 83.6908 381.74 84.3425 381.36 84.9943V86.7323H373.703V84.9943C373.54 84.6684 373.322 84.3425 373.159 84.071C373.051 83.7451 372.888 83.4192 372.779 83.0933C372.725 82.9847 372.671 82.8761 372.508 82.8761H368.272C368.163 83.2563 368.055 83.5822 367.892 83.9623H324.718C324.501 83.9623 324.338 84.1253 324.338 84.3425V88.0358C324.338 88.2531 324.501 88.416 324.718 88.416H367.186V89.8281C367.186 90.0454 367.349 90.2083 367.566 90.2083H390.429H391.895H414.758C414.976 90.2083 415.138 90.0454 415.138 89.8281V88.416H457.606C457.823 88.416 457.986 88.2531 457.986 88.0358V84.3425C457.932 84.1796 457.769 83.9623 457.552 83.9623Z" fill="white"/><path d="M367.62 43.1191L367.457 43.3906C367.457 43.4449 367.403 43.4449 367.403 43.4993V44.6398C367.403 44.7484 367.511 44.8028 367.62 44.7484L377.124 41.0552H367.674L367.62 43.1191C367.674 43.0648 367.674 43.0648 367.62 43.1191Z" fill="white"/><path d="M399.825 59.141C399.825 59.0324 399.825 58.8694 399.825 58.7608C399.825 56.7512 399.825 54.9046 399.825 54.9046C399.933 54.2529 400.096 53.6554 400.368 53.0037H395.208C395.48 53.6011 395.643 54.1985 395.752 54.9046V65.224V67.2879V81.6808V81.7351C395.752 81.9524 395.914 82.1153 396.132 82.1153H399.499C399.716 82.1153 399.879 81.9524 399.879 81.7351C399.879 81.7351 399.879 67.5595 399.879 59.7928C399.825 59.5755 399.825 59.3583 399.825 59.141Z" fill="white"/><path d="M386.573 57.946C386.682 54.3071 386.845 53.7096 387.116 53.0579H381.903C382.174 53.6553 382.337 54.2527 382.446 54.9588C382.446 54.9588 382.446 55.5563 382.446 56.5882C382.446 64.3006 382.446 81.7893 382.446 81.7893C382.446 82.0066 382.609 82.1695 382.826 82.1695H386.193C386.41 82.1695 386.573 82.0066 386.573 81.7893V81.735V67.0706V65.2782V57.946Z" fill="white"/><path d="M328.628 48.2243C328.628 48.0614 328.791 47.8441 329.008 47.8441H335.308C335.525 47.8441 335.688 47.9527 335.688 48.2243V49.7994C335.688 49.9623 335.525 50.1796 335.308 50.1796H329.008C328.791 50.1796 328.628 50.0709 328.628 49.7994V48.2243ZM338.838 48.2243C338.838 48.0614 339 47.8441 339.218 47.8441H345.517C345.734 47.8441 345.897 47.9527 345.897 48.2243V49.7994C345.897 49.9623 345.734 50.1796 345.517 50.1796H339.163C338.946 50.1796 338.783 50.0709 338.783 49.7994L338.838 48.2243ZM348.993 48.2243C348.993 48.0614 349.156 47.8441 349.373 47.8441H355.673C355.89 47.8441 356.053 47.9527 356.053 48.2243V49.7994C356.053 49.9623 355.89 50.1796 355.673 50.1796H349.373C349.156 50.1796 348.993 50.0709 348.993 49.7994V48.2243V48.2243ZM359.148 48.2243C359.148 48.0614 359.311 47.8441 359.528 47.8441H366.86C367.077 47.8441 367.24 47.9527 367.24 48.2243V49.2562H414.921V48.2786C414.921 48.1157 415.084 47.8984 415.301 47.8984H422.633C422.85 47.8984 423.013 48.0071 423.013 48.2786V49.8537C423.013 50.0166 422.85 50.2339 422.633 50.2339H359.528C359.311 50.2339 359.148 50.1252 359.148 49.8537V48.2243ZM371.313 46.0518L391.135 38.0678L410.957 46.0518H407.644L399.389 42.7387L391.135 39.4256L382.88 42.7387L374.571 46.0518H371.313ZM426.217 48.2243C426.217 48.0614 426.38 47.8441 426.597 47.8441H432.896C433.114 47.8441 433.277 47.9527 433.277 48.2243V49.7994C433.277 49.9623 433.114 50.1796 432.896 50.1796H426.597C426.38 50.1796 426.217 50.0709 426.217 49.7994V48.2243ZM436.372 48.2243C436.372 48.0614 436.535 47.8441 436.752 47.8441H443.052C443.269 47.8441 443.432 47.9527 443.432 48.2243V49.7994C443.432 49.9623 443.269 50.1796 443.052 50.1796H436.752C436.535 50.1796 436.372 50.0709 436.372 49.7994V48.2243V48.2243ZM446.582 48.2243C446.582 48.0614 446.745 47.8441 446.962 47.8441H453.261C453.479 47.8441 453.642 47.9527 453.642 48.2243V49.7994C453.642 49.9623 453.479 50.1796 453.261 50.1796H446.962C446.745 50.1796 446.582 50.0709 446.582 49.7994V48.2243ZM416.659 69.8951L419.483 68.7002C419.537 68.7002 419.537 68.7002 419.591 68.7002C419.646 68.7002 419.646 68.7002 419.7 68.7002L422.524 69.8951C422.633 69.9494 422.633 70.0037 422.633 70.1124C422.633 70.221 422.524 70.221 422.47 70.221H416.767C416.659 70.221 416.605 70.1667 416.605 70.1124C416.496 70.0037 416.55 69.8951 416.659 69.8951ZM416.93 65.0613C416.93 65.007 416.985 64.9527 417.039 64.8983C417.148 64.7354 417.256 64.5181 417.256 64.2466V60.3361C417.256 60.0645 417.148 59.8472 417.039 59.6843C416.985 59.63 416.93 59.5757 416.93 59.5214V58.761C416.93 58.6524 417.039 58.5981 417.093 58.5981H422.035C422.144 58.5981 422.198 58.7067 422.198 58.761V59.5214C422.198 59.5757 422.144 59.63 422.089 59.6843C421.981 59.8472 421.872 60.0645 421.872 60.3361V64.1923C421.872 64.4638 421.981 64.6811 422.089 64.844C422.144 64.8983 422.198 64.9527 422.198 65.007V66.745C422.198 66.8536 422.089 66.9079 422.035 66.9079H417.093C416.985 66.9079 416.93 66.7993 416.93 66.745V65.0613ZM426.868 69.7865C426.977 69.6779 427.031 69.6779 427.14 69.5692C427.9 69.0261 428.769 68.7545 429.692 68.7545C430.724 68.7545 431.702 69.1347 432.516 69.7865L432.571 69.8408C432.625 69.8951 432.625 69.9494 432.625 70.0037C432.625 70.0581 432.571 70.1124 432.516 70.1124C432.516 70.1124 432.516 70.1124 432.462 70.1124C432.462 70.1124 432.462 70.1124 432.408 70.1124H432.353H426.923C426.868 70.1124 426.814 70.0581 426.814 70.0581C426.76 70.0037 426.76 70.0037 426.76 69.9494C426.814 69.9494 426.814 69.8408 426.868 69.7865ZM427.086 65.0613C427.086 65.007 427.14 64.9527 427.194 64.8983C427.303 64.7354 427.412 64.5181 427.412 64.2466V60.3361C427.412 60.0645 427.303 59.8472 427.194 59.6843C427.14 59.63 427.086 59.5757 427.086 59.5214V58.761C427.086 58.6524 427.194 58.5981 427.249 58.5981H432.191C432.299 58.5981 432.353 58.7067 432.353 58.761V59.5214C432.353 59.5757 432.299 59.63 432.245 59.6843C432.136 59.8472 432.028 60.0645 432.028 60.3361V64.1923C432.028 64.4638 432.136 64.6811 432.245 64.844C432.299 64.8983 432.353 64.9527 432.353 65.007V66.745C432.353 66.8536 432.245 66.9079 432.191 66.9079H427.249C427.14 66.9079 427.086 66.7993 427.086 66.745V65.0613ZM436.969 69.8951L439.848 68.7002C439.902 68.7002 439.902 68.7002 439.956 68.7002H440.011C440.011 68.7002 440.011 68.7002 440.065 68.7002L442.889 69.8951C442.943 69.8951 442.943 69.9494 442.998 69.9494C443.052 70.0037 443.052 70.0581 443.052 70.0581C443.052 70.1124 442.998 70.1667 442.943 70.1667C442.889 70.1667 442.889 70.221 442.835 70.221H437.132C437.078 70.221 437.024 70.221 437.024 70.1667C436.969 70.1667 436.969 70.1124 436.915 70.0581V70.1124C436.861 70.0581 436.861 69.9494 436.969 69.8951ZM437.295 65.0613C437.295 65.007 437.35 64.9527 437.404 64.8983C437.513 64.7354 437.621 64.5181 437.621 64.2466V60.3361C437.621 60.0645 437.513 59.8472 437.404 59.6843C437.35 59.63 437.295 59.5757 437.295 59.5214V58.761C437.295 58.6524 437.404 58.5981 437.458 58.5981H442.4C442.509 58.5981 442.563 58.7067 442.563 58.761V59.5214C442.563 59.5757 442.509 59.63 442.454 59.6843C442.346 59.8472 442.237 60.0645 442.237 60.3361V64.1923C442.237 64.4638 442.346 64.6811 442.454 64.844C442.509 64.8983 442.563 64.9527 442.563 65.007V66.745C442.563 66.8536 442.454 66.9079 442.4 66.9079H437.458C437.35 66.9079 437.295 66.7993 437.295 66.745V65.0613ZM447.233 69.7865C447.342 69.6779 447.396 69.6779 447.505 69.5692C448.265 69.0261 449.134 68.7545 450.057 68.7545C451.089 68.7545 452.067 69.1347 452.881 69.7865L452.936 69.8408C452.99 69.8951 452.99 69.9494 452.99 70.0037C452.99 70.0581 452.936 70.1124 452.881 70.1124C452.881 70.1124 452.881 70.1124 452.827 70.1124C452.827 70.1124 452.827 70.1124 452.773 70.1124H447.342C447.288 70.1124 447.233 70.0581 447.233 70.0581C447.179 70.0037 447.179 70.0037 447.179 69.9494C447.125 69.9494 447.179 69.8408 447.233 69.7865ZM447.451 65.0613C447.451 65.007 447.505 64.9527 447.559 64.8983C447.668 64.7354 447.776 64.5181 447.776 64.2466V60.3361C447.776 60.0645 447.668 59.8472 447.559 59.6843C447.505 59.63 447.451 59.5757 447.451 59.5214V58.761C447.451 58.6524 447.559 58.5981 447.614 58.5981H452.555C452.664 58.5981 452.718 58.7067 452.718 58.761V59.5214C452.718 59.5757 452.664 59.63 452.61 59.6843C452.501 59.8472 452.393 60.0645 452.393 60.3361V64.1923C452.393 64.4638 452.501 64.6811 452.61 64.844C452.664 64.8983 452.718 64.9527 452.718 65.007V66.745C452.718 66.8536 452.61 66.9079 452.555 66.9079H447.614C447.505 66.9079 447.451 66.7993 447.451 66.745V65.0613ZM452.718 72.2306C452.718 72.2849 452.664 72.3392 452.61 72.3935C452.501 72.5564 452.393 72.7737 452.393 73.0453V77.7705C452.393 78.042 452.501 78.2593 452.61 78.4222C452.664 78.4765 452.718 78.5309 452.718 78.5852V80.3232C452.718 80.4318 452.61 80.4861 452.555 80.4861H447.614C447.505 80.4861 447.451 80.3775 447.451 80.3232V78.5852C447.451 78.5309 447.505 78.4765 447.559 78.4222C447.668 78.2593 447.776 78.042 447.776 77.7705V73.0453C447.776 72.7737 447.668 72.5564 447.559 72.3935C447.505 72.3392 447.451 72.2849 447.451 72.2306V71.4702C447.451 71.3616 447.559 71.3072 447.614 71.3072H452.555C452.664 71.3072 452.718 71.4159 452.718 71.4702V72.2306ZM442.563 72.2306C442.563 72.2849 442.509 72.3392 442.454 72.3935C442.346 72.5564 442.237 72.7737 442.237 73.0453V77.7705C442.237 78.042 442.346 78.2593 442.454 78.4222C442.509 78.4765 442.563 78.5309 442.563 78.5852V80.3232C442.563 80.4318 442.454 80.4861 442.4 80.4861H437.458C437.35 80.4861 437.295 80.3775 437.295 80.3232V78.5852C437.295 78.5309 437.35 78.4765 437.404 78.4222C437.513 78.2593 437.621 78.042 437.621 77.7705V73.0453C437.621 72.7737 437.513 72.5564 437.404 72.3935C437.35 72.3392 437.295 72.2849 437.295 72.2306V71.4702C437.295 71.3616 437.404 71.3072 437.458 71.3072H442.4C442.509 71.3072 442.563 71.4159 442.563 71.4702V72.2306ZM432.353 72.2306C432.353 72.2849 432.299 72.3392 432.245 72.3935C432.136 72.5564 432.028 72.7737 432.028 73.0453V77.7705C432.028 78.042 432.136 78.2593 432.245 78.4222C432.299 78.4765 432.353 78.5309 432.353 78.5852V80.3232C432.353 80.4318 432.245 80.4861 432.191 80.4861H427.249C427.14 80.4861 427.086 80.3775 427.086 80.3232V78.5852C427.086 78.5309 427.14 78.4765 427.194 78.4222C427.303 78.2593 427.412 78.042 427.412 77.7705V73.0453C427.412 72.7737 427.303 72.5564 427.194 72.3935C427.14 72.3392 427.086 72.2849 427.086 72.2306V71.4702C427.086 71.3616 427.194 71.3072 427.249 71.3072H432.191C432.299 71.3072 432.353 71.4159 432.353 71.4702V72.2306ZM422.198 72.2306C422.198 72.2849 422.144 72.3392 422.089 72.3935C421.981 72.5564 421.872 72.7737 421.872 73.0453V77.7705C421.872 78.042 421.981 78.2593 422.089 78.4222C422.144 78.4765 422.198 78.5309 422.198 78.5852V80.3232C422.198 80.4318 422.089 80.4861 422.035 80.4861H417.093C416.985 80.4861 416.93 80.3775 416.93 80.3232V78.5852C416.93 78.5309 416.985 78.4765 417.039 78.4222C417.148 78.2593 417.256 78.042 417.256 77.7705V73.0453C417.256 72.7737 417.148 72.5564 417.039 72.3935C416.985 72.3392 416.93 72.2849 416.93 72.2306V71.4702C416.93 71.3616 417.039 71.3072 417.093 71.3072H422.035C422.144 71.3072 422.198 71.4159 422.198 71.4702V72.2306ZM365.556 70.2753H359.854C359.746 70.2753 359.691 70.221 359.691 70.1667C359.691 70.0581 359.746 70.0037 359.8 69.9494L362.624 68.7545C362.678 68.7545 362.678 68.7545 362.732 68.7545C362.787 68.7545 362.787 68.7545 362.841 68.7545L365.665 69.9494C365.774 70.0037 365.774 70.0581 365.774 70.1667C365.719 70.221 365.665 70.2753 365.556 70.2753ZM365.339 72.2306C365.339 72.2849 365.285 72.3392 365.231 72.3935C365.122 72.5564 365.013 72.7737 365.013 73.0453V77.7705C365.013 78.042 365.122 78.2593 365.231 78.4222C365.285 78.4765 365.339 78.5309 365.339 78.5852V80.3232C365.339 80.4318 365.231 80.4861 365.176 80.4861H360.234C360.126 80.4861 360.071 80.3775 360.071 80.3232V78.5852C360.071 78.5309 360.126 78.4765 360.18 78.4222C360.289 78.2593 360.397 78.042 360.397 77.7705V73.0453C360.397 72.7737 360.289 72.5564 360.18 72.3935C360.126 72.3392 360.071 72.2849 360.071 72.2306V71.4702C360.071 71.3616 360.18 71.3072 360.234 71.3072H365.176C365.285 71.3072 365.339 71.4159 365.339 71.4702V72.2306ZM355.455 70.0581C355.455 70.1124 355.401 70.1124 355.401 70.1667L355.347 70.221C355.292 70.221 355.292 70.2753 355.238 70.2753H349.807C349.753 70.2753 349.753 70.2753 349.699 70.221C349.59 70.1667 349.59 70.1124 349.59 70.1124C349.59 70.1124 349.59 70.0037 349.59 69.9494C349.59 69.9494 349.59 69.8951 349.645 69.8951C349.645 69.8951 349.645 69.8408 349.699 69.8408C349.862 69.6779 350.079 69.5149 350.351 69.4063C350.351 69.4063 350.405 69.4063 350.405 69.352C351.057 68.9718 351.817 68.7545 352.577 68.7545C353.609 68.7545 354.586 69.1347 355.401 69.7865C355.455 69.8408 355.51 69.9494 355.455 70.0581ZM355.184 72.2306C355.184 72.2849 355.129 72.3392 355.075 72.3935C354.967 72.5564 354.858 72.7737 354.858 73.0453V77.7705C354.858 78.042 354.967 78.2593 355.075 78.4222C355.129 78.4765 355.184 78.5309 355.184 78.5852V80.3232C355.184 80.4318 355.075 80.4861 355.021 80.4861H350.079C349.97 80.4861 349.916 80.3775 349.916 80.3232V78.5852C349.916 78.5309 349.97 78.4765 350.025 78.4222C350.133 78.2593 350.242 78.042 350.242 77.7705V73.0453C350.242 72.7737 350.133 72.5564 350.025 72.3935C349.97 72.3392 349.916 72.2849 349.916 72.2306V71.4702C349.916 71.3616 350.025 71.3072 350.079 71.3072H355.021C355.129 71.3072 355.184 71.4159 355.184 71.4702V72.2306ZM345.3 70.221C345.246 70.221 345.246 70.2753 345.191 70.2753H339.489C339.435 70.2753 339.435 70.2753 339.381 70.2753C339.326 70.2753 339.272 70.221 339.272 70.1667V70.1124C339.272 70.0037 339.326 69.9494 339.381 69.8951L342.205 68.7002C342.205 68.7002 342.205 68.7002 342.259 68.7002H342.313C342.367 68.7002 342.367 68.7002 342.422 68.7002L345.246 69.8951C345.354 69.9494 345.354 70.0037 345.354 70.1124C345.354 70.1667 345.354 70.221 345.3 70.221ZM345.028 72.2306C345.028 72.2849 344.974 72.3392 344.92 72.3935C344.811 72.5564 344.703 72.7737 344.703 73.0453V77.7705C344.703 78.042 344.811 78.2593 344.92 78.4222C344.974 78.4765 345.028 78.5309 345.028 78.5852V80.3232C345.028 80.4318 344.92 80.4861 344.866 80.4861H339.924C339.815 80.4861 339.761 80.3775 339.761 80.3232V78.5852C339.761 78.5309 339.815 78.4765 339.869 78.4222C339.978 78.2593 340.087 78.042 340.087 77.7705V73.0453C340.087 72.7737 339.978 72.5564 339.869 72.3935C339.815 72.3392 339.761 72.2849 339.761 72.2306V71.4702C339.761 71.3616 339.869 71.3072 339.924 71.3072H344.866C344.974 71.3072 345.028 71.4159 345.028 71.4702V72.2306ZM335.145 70.0581C335.145 70.1124 335.09 70.1667 335.036 70.1667C334.982 70.1667 334.982 70.221 334.927 70.221H329.497C329.497 70.221 329.497 70.221 329.442 70.221H329.388C329.334 70.1667 329.28 70.1124 329.28 70.1124C329.225 70.0037 329.28 69.9494 329.334 69.8951C329.334 69.8951 329.334 69.8951 329.388 69.8408C329.497 69.7865 329.497 69.7322 329.605 69.6779C329.66 69.6235 329.714 69.6236 329.714 69.5692C329.823 69.5149 329.823 69.4606 329.931 69.4606C329.986 69.4063 330.04 69.352 330.148 69.352C330.8 69.0261 331.452 68.8632 332.158 68.8632C333.19 68.8632 334.167 69.2434 334.982 69.8951C335.145 69.8408 335.145 69.9494 335.145 70.0581ZM334.819 72.2306C334.819 72.2849 334.765 72.3392 334.71 72.3935C334.602 72.5564 334.493 72.7737 334.493 73.0453V77.7705C334.493 78.042 334.602 78.2593 334.71 78.4222C334.765 78.4765 334.819 78.5309 334.819 78.5852V80.3232C334.819 80.4318 334.71 80.4861 334.656 80.4861H329.714C329.605 80.4861 329.551 80.3775 329.551 80.3232V78.5852C329.551 78.5309 329.605 78.4765 329.66 78.4222C329.768 78.2593 329.877 78.042 329.877 77.7705V73.0453C329.877 72.7737 329.768 72.5564 329.66 72.3935C329.605 72.3392 329.551 72.2849 329.551 72.2306V71.4702C329.551 71.3616 329.66 71.3072 329.714 71.3072H334.656C334.765 71.3072 334.819 71.4159 334.819 71.4702V72.2306ZM329.551 65.0613C329.551 65.007 329.605 64.9527 329.66 64.8983C329.768 64.7354 329.877 64.5181 329.877 64.2466V60.3904C329.877 60.1188 329.768 59.9016 329.66 59.7386C329.605 59.6843 329.551 59.63 329.551 59.5757V58.761C329.551 58.6524 329.66 58.5981 329.714 58.5981H334.656C334.765 58.5981 334.819 58.7067 334.819 58.761V59.5214C334.819 59.5757 334.765 59.63 334.71 59.6843C334.602 59.8472 334.493 60.0645 334.493 60.3361V64.2466C334.493 64.5181 334.602 64.7354 334.71 64.8983C334.765 64.9527 334.819 65.007 334.819 65.0613V66.7993C334.819 66.9079 334.71 66.9622 334.656 66.9622H329.714C329.605 66.9622 329.551 66.8536 329.551 66.7993V65.0613ZM339.706 65.0613C339.706 65.007 339.761 64.9527 339.815 64.8983C339.924 64.7354 340.032 64.5181 340.032 64.2466V60.3904C340.032 60.1188 339.924 59.9016 339.815 59.7386C339.761 59.6843 339.706 59.63 339.706 59.5757V58.761C339.706 58.6524 339.815 58.5981 339.869 58.5981H344.811C344.92 58.5981 344.974 58.7067 344.974 58.761V59.5214C344.974 59.5757 344.92 59.63 344.866 59.6843C344.757 59.8472 344.648 60.0645 344.648 60.3361V64.2466C344.648 64.5181 344.757 64.7354 344.866 64.8983C344.92 64.9527 344.974 65.007 344.974 65.0613V66.7993C344.974 66.9079 344.866 66.9622 344.811 66.9622H339.869C339.761 66.9622 339.706 66.8536 339.706 66.7993V65.0613ZM349.916 65.0613C349.916 65.007 349.97 64.9527 350.025 64.8983C350.133 64.7354 350.242 64.5181 350.242 64.2466V60.3904C350.242 60.1188 350.133 59.9016 350.025 59.7386C349.97 59.6843 349.916 59.63 349.916 59.5757V58.761C349.916 58.6524 350.025 58.5981 350.079 58.5981H355.021C355.129 58.5981 355.184 58.7067 355.184 58.761V59.5214C355.184 59.5757 355.129 59.63 355.075 59.6843C354.967 59.8472 354.858 60.0645 354.858 60.3361V64.2466C354.858 64.5181 354.967 64.7354 355.075 64.8983C355.129 64.9527 355.184 65.007 355.184 65.0613V66.7993C355.184 66.9079 355.075 66.9622 355.021 66.9622H350.079C349.97 66.9622 349.916 66.8536 349.916 66.7993V65.0613ZM360.071 65.0613C360.071 65.007 360.126 64.9527 360.18 64.8983C360.289 64.7354 360.397 64.5181 360.397 64.2466V60.3904C360.397 60.1188 360.289 59.9016 360.18 59.7386C360.126 59.6843 360.071 59.63 360.071 59.5757V58.761C360.071 58.6524 360.18 58.5981 360.234 58.5981H365.176C365.285 58.5981 365.339 58.7067 365.339 58.761V59.5214C365.339 59.5757 365.285 59.63 365.231 59.6843C365.122 59.8472 365.013 60.0645 365.013 60.3361V64.2466C365.013 64.5181 365.122 64.7354 365.231 64.8983C365.285 64.9527 365.339 65.007 365.339 65.0613V66.7993C365.339 66.9079 365.231 66.9622 365.176 66.9622H360.234C360.126 66.9622 360.071 66.8536 360.071 66.7993V65.0613ZM324.718 47.2467H325.858C325.858 47.2467 325.913 47.2467 325.913 47.301V51.9176C325.913 52.0262 326.021 52.0805 326.13 52.0805H367.457C367.62 52.4064 367.837 52.7323 367.946 53.0581C365.339 53.0581 324.772 53.0581 324.772 53.0581C324.664 53.0581 324.501 53.1668 324.501 53.3297V54.6332C324.501 54.7962 324.609 54.9048 324.772 54.9048H368.38C368.38 54.9048 368.38 55.285 368.38 56.0997H326.021C325.913 56.0997 325.913 56.154 325.913 56.2083V82.1155C326.021 82.1155 372.182 82.1155 372.182 82.1155C372.399 82.1155 372.562 81.9526 372.562 81.7353V81.681C372.562 81.4637 372.616 55.122 372.616 55.122C372.616 54.9591 372.616 54.9048 372.616 54.9048C372.671 54.416 372.779 53.9271 372.942 53.4383C373.105 52.9495 373.322 52.515 373.594 52.0262H389.777H392.601H408.784C409.056 52.4607 409.273 52.9495 409.436 53.4383C409.599 53.9271 409.708 54.3617 409.762 54.9048C409.762 54.9048 409.762 55.0134 409.762 55.122C409.762 55.122 409.816 81.4637 409.816 81.681V81.7353C409.816 81.9526 409.979 82.1155 410.196 82.1155L455.325 82.0612H455.434H456.303C456.411 82.0612 456.411 82.0069 456.411 81.9526V56.2083C456.411 56.0997 456.357 56.0997 456.303 56.0997H413.889C413.889 55.3936 413.889 54.9591 413.889 54.9048H457.497C457.66 54.9048 457.769 54.7962 457.769 54.6332V53.3297C457.769 53.2211 457.66 53.0581 457.497 53.0581C457.497 53.0581 416.93 53.0581 414.324 53.0581C414.432 52.7323 414.649 52.4064 414.812 52.0805H456.194C456.303 52.0805 456.411 52.0262 456.411 51.9176V47.301C456.411 47.301 456.411 47.2467 456.466 47.2467H457.606C457.769 47.2467 457.878 47.138 457.878 46.9751V46.3777C457.878 46.2147 457.769 46.1061 457.606 46.1061H416.387C416.224 46.1061 416.007 46.0518 415.844 45.9975L391.569 36.1669V34.5918V34.103C392.058 33.9943 392.764 33.8314 393.307 33.9943C396.077 34.9177 396.674 34.5918 396.674 34.5375C396.185 33.8857 396.348 32.4193 396.348 32.4193C396.511 31.1158 396.457 30.8442 396.457 30.7899C396.348 30.8442 395.588 31.2787 393.741 30.6813C392.764 30.3554 392.004 30.3011 391.569 30.2468C391.569 29.9752 391.352 29.8123 391.08 29.8123C390.863 29.8666 390.7 30.0295 390.7 30.3011V36.1125L366.425 45.9432C366.262 46.0518 366.045 46.0518 365.882 46.0518H324.718C324.555 46.0518 324.446 46.1604 324.446 46.3234V46.9208C324.446 47.138 324.555 47.2467 324.718 47.2467Z" fill="white"/><path d="M405.852 53.0037L391.134 69.5148L376.417 53.0037L376.2 53.1123L390.972 69.732V69.6777H391.243L391.297 69.732L406.014 53.1666V53.1123L405.852 53.0037Z" fill="white"/><path d="M391.569 68.863H390.646C390.428 68.863 390.32 69.026 390.32 69.1889V71.7959C390.32 72.0132 390.483 72.1218 390.646 72.1218H391.569C391.786 72.1218 391.895 71.9589 391.895 71.7959V69.1889C391.895 68.9717 391.786 68.863 391.569 68.863Z" fill="white"/></g><path d="M545.912 266.917L542.65 265.716L532.368 287.323C529.798 289.032 526.536 289.724 523.626 289.724C510.761 289.724 500.31 279.26 500.31 255.435C500.31 232.458 510.083 220.976 520.547 220.976C528.611 220.976 533.921 226.639 540.784 242.752L544.894 242.413L543.185 215.157H540.092L537 219.789C532.538 217.218 526.888 215.548 521.748 215.679C492.795 216.37 481.548 232.575 481.548 257.092C481.548 281.778 495.287 295.752 521.578 295.752C530.32 295.752 537.183 293.012 543.524 289.071L545.912 266.917Z" fill="white"/><path d="M83.8308 212.914H65.3163L17.4838 357.611L0 366.875V375.278H49.3721V367.214L31.3664 357.781L42.5221 322.122H93.7861L105.62 360.873L84.3658 367.214V375.278H147.438V366.875L130.463 360.012L83.8308 212.914ZM45.9406 309.779L66.6863 241.031H69.087L90.0023 309.779H45.9406Z" fill="white"/><path d="M729.711 221.812L750.392 229.589V330.016H748.265L693.465 239.14L678.786 212.979H632.65V222.347L651.386 229.589V357.416H651.034L632.115 365.193V373.673H684.971V365.193L664.108 357.416V241.971H666.587L727.937 344.682L745.616 375.265H763.296V229.589L782.384 221.878V212.979H729.711V221.812Z" fill="white"/><path d="M206.699 388.589C205.72 387.193 205.355 386.201 204.181 382.639C202.889 378.712 200.814 377.381 196.522 376.755V375.842C203.45 374.785 206.02 371.288 206.02 366.734C206.02 361.267 202.524 358.11 195.178 358.11H174.158V360.563L178.268 362.102V388.941L174.158 390.481V392.934H192.294V390.768L188.25 389.228V378.503H188.798C191.864 378.503 192.96 379.208 193.938 382.222L195.53 387.062C196.939 391.407 198.531 392.947 201.597 392.947H209.556V390.559C208.408 390.142 207.43 389.646 206.699 388.589ZM190.207 374.719L188.25 374.785V361.959L190.207 362.024C194.069 362.168 195.909 363.981 195.909 368.117C195.909 372.684 193.586 374.576 190.207 374.719Z" fill="white"/><path d="M243.547 385.924C242.138 387.881 239.998 389.082 237.793 389.147L232.522 389.29V377.313H233.748C236.201 377.313 237.48 378.722 238.472 381.383L238.837 382.362H241.225V368.701H238.837L238.537 369.536C237.558 372.263 236.214 373.607 233.761 373.607H232.535V361.76L236.462 361.903C239.463 362.047 241.12 363.3 242.647 365.622L246.144 370.88L248.101 370.528L247.488 358.12H218.417V360.573L222.527 362.112V388.951L218.417 390.491V392.944H248.388L249.432 380.744L247.474 380.392L243.547 385.924Z" fill="white"/><path d="M279.063 371.845C276.975 370.932 274.77 370.227 272.996 369.457C270.06 368.192 268.833 367.069 268.833 364.695C268.833 362.659 270.36 360.767 272.878 360.767C275.944 360.767 278.697 362.594 281.698 368.831L285.012 368.479L284.151 356.984H281.764L280.602 359.084C278.332 357.897 275.514 357.049 272.395 357.049C266.641 357.049 260.809 361.394 260.809 368.687C260.809 374.154 263.875 376.881 267.49 378.643C269.395 379.556 271.469 380.182 273.309 380.887C276.858 382.218 278.515 383.196 278.515 385.936C278.515 388.533 276.492 390.281 273.792 390.281C270.177 390.281 266.746 387.828 263.432 380.822L260.118 380.965L260.666 393.856H263.119L264.345 391.755C267.163 393.021 270.895 394 274.209 394C280.589 394 286.461 389.72 286.461 382.009C286.474 376.046 282.925 373.528 279.063 371.845Z" fill="white"/><path d="M320.108 389.498C319.43 389.707 318.399 389.851 317.473 389.851C313.18 389.851 308.587 385.571 308.587 374.989C308.587 364.969 311.771 360.976 315.516 360.976C318.582 360.976 321.087 363.012 324.336 371.493L327.767 371.349L327.037 356.84H324.832L323.357 359.006C321.635 358.027 318.517 357.049 315.633 357.049C304.791 357.049 297.862 364.695 297.862 376.046C297.862 388.246 305.586 393.987 316.064 393.987C319.926 393.987 324.153 393.008 327.272 391.677L328.133 380.117L325.249 379.765L320.108 389.498Z" fill="white"/><path d="M362.631 360.559L366.793 362.946V379.621C366.793 385.506 364.275 388.598 359.747 388.598C355.403 388.598 352.884 385.936 352.884 378.995V362.098L356.929 360.559V358.106H338.845V360.559L342.89 362.098V379.126C342.89 389.564 348.226 393.987 357.777 393.987C366.963 393.987 371.386 388.872 371.386 379.478V362.933L375.313 360.546V358.093H362.631V360.559V360.559Z" fill="white"/><path d="M409.706 385.924C408.297 387.881 406.157 389.082 403.952 389.147L398.681 389.29V377.313H399.907C402.36 377.313 403.639 378.722 404.63 381.383L404.996 382.362H407.384V368.701H404.996L404.683 369.536C403.704 372.263 402.36 373.607 399.907 373.607H398.681V361.76L402.608 361.903C405.609 362.047 407.266 363.3 408.793 365.622L412.289 370.88L414.247 370.528L413.633 358.12H384.589V360.573L388.699 362.112V388.951L384.589 390.491V392.944H414.56L415.603 380.744L413.646 380.392L409.706 385.924Z" fill="white"/><path d="M463.906 358.11H445.339V360.563L449.449 362.102V389.007L445.339 390.481V392.934H464.337V390.481L459.431 389.007V380.317C460.592 380.46 462.249 380.526 463.971 380.526C471.813 380.526 476.967 376.951 476.967 369.096C476.954 361.685 471.748 358.11 463.906 358.11ZM460.527 376.964H459.431V361.763L461.023 361.907C464.519 362.181 466.659 364.294 466.659 369.331C466.659 374.511 464.337 376.964 460.527 376.964Z" fill="white"/><path d="M510.551 383.902C507.915 387.751 506.193 389.016 503.44 389.16L501.118 389.303V362.112L505.28 360.573V358.12H487.013V360.573L491.123 362.112V388.951L487.013 390.491V392.944H515.013L516.175 378.722L514.217 378.513L510.551 383.902Z" fill="white"/><path d="M546.783 357.692H538.263L528.033 388.171L523.871 390.48V392.933H536.501V390.689L532.756 388.732L534.283 383.408H544.878L546.469 388.941L543.038 390.689V392.933H560.013V390.48L556.464 388.654L546.783 357.692ZM535.444 379.559L539.241 366.734H539.972L543.717 379.559H535.444Z" fill="white"/><path d="M593.038 360.563L597.513 363.016V381.165H596.965L587.832 364.203L584.648 358.11H569.578V360.628L573.558 362.598V388.028L569.2 390.481V392.934H582.626V390.481L578.15 388.028V368.548H578.829L588.81 386.632L592.372 393.286H602.106V363.016L606.464 360.563V358.11H593.038V360.563Z" fill="white"/><path d="M231.488 217.885H225.878H209.673L205.21 234.69L190.232 287.428L173.909 234.077L169.069 218.498L143.091 218.106L128.921 217.885V217.924L126.833 217.885V223.378L138.824 227.148V308.578L126.833 313.55V318.86H128.921H141.003H143.091H160.809V313.55L148.806 308.578V229.719H151.206L178.476 318.86H187.387L214.644 229.719H217.384V309.948L204.01 313.38V318.69H225.878H231.488H246.532H252.143V313.38L238.077 310.118V226.966L252.143 223.547V217.885H246.532H231.488Z" fill="white"/><path d="M319.418 281.321C317.357 284.922 314.786 286.801 308.967 286.801H292.331V257.483H296.624C302.104 257.483 305.536 260.223 307.936 266.395L309.476 270.674H312.216V238.969H309.476L307.936 243.431C305.705 249.433 302.104 252.003 296.624 252.003H292.331V224.225H306.397C312.568 224.225 315.478 226.117 318.401 230.566L324.233 240.339L326.973 239.647L324.911 217.871H288.717H282.141H280.041H270.738H264.162H262.061V221.981L272.343 224.551V286.631L262.061 289.202V293.142H264.162H270.738H280.041H282.141H288.717H326.803L329.374 269.135L326.634 268.443L319.418 281.321Z" fill="white"/><path d="M449.33 293.143H453.649H465.705H470.024V289.203L459.39 286.802V224.578L470.024 221.995V217.885H465.705H453.649H449.33H445.899H432.955H429.524V221.995L440.158 224.578V286.632L429.524 289.203V293.143H432.955H445.899H449.33Z" fill="white"/><path d="M644.211 319.043V313.733L633.578 309.453L603.92 216.345H597.54H596.888H590.507H588.563H587.976H585.889H582.953L552.774 307.548L541.801 313.38V318.691H544.736H553.074H556.01H575.933V313.55L564.621 307.718L571.484 285.263H603.881L611.423 309.779L598.049 313.889V319.03H622.344H628.724H637.818H644.211V319.043ZM573.702 277.552L586.737 234.182H588.276L601.48 277.552H573.702Z" fill="white"/><path d="M411.783 284.608C409.891 282.377 407.151 276.375 404.58 269.173C402.349 263.341 398.918 259.4 392.068 258.03V256.66C403.549 253.92 411.274 246.718 411.274 236.776C411.274 225.75 403.889 218.783 390.202 217.713C385.231 217.661 381.434 217.622 380.129 217.87H380.116H366.494H364.08L360.558 217.778H343.322V221.914L353.603 224.485V286.552L343.322 289.123V293.063H346.845V293.154H350.85H364.08H368.086H380.99V289.214L370.878 286.644V260.053H374.14C380.312 260.053 383.221 261.083 385.452 267.764L389.915 281.138C393.177 291.249 396.086 293.481 402.258 293.481H406.224H414.262H418.228V293.18H420.564V289.41C416.075 288.549 414.014 287.348 411.783 284.608ZM370.852 254.39V223.885C372.392 223.545 374.623 223.376 378.054 223.376C386.796 223.376 392.289 228.856 392.289 238.289C392.289 248.232 385.779 254.403 377.376 254.403H370.852V254.39Z" fill="white"/><defs><clipPath id="clip0"><rect width="186.271" height="131.98" fill="white" transform="translate(298 0.591797)"/></clipPath></defs></svg>