<svg width="2739" height="1116" viewBox="0 0 2739 1116" fill="none" xmlns="http://www.w3.org/2000/svg"><path fill-rule="evenodd" clip-rule="evenodd" d="M1041.76 1035.51H-0.00012207V1049.16H1041.76V1035.51Z" fill="#FF0031"/><path fill-rule="evenodd" clip-rule="evenodd" d="M2739 1035.51H1697.24V1049.16H2739V1035.51Z" fill="#FF0031"/><path fill-rule="evenodd" clip-rule="evenodd" d="M1041.76 1074.52L-0.00012207 1074.52V1062.82L1041.76 1062.82V1074.52Z" fill="#FF0031"/><path fill-rule="evenodd" clip-rule="evenodd" d="M2739 1074.52L1697.24 1074.52V1062.82L2739 1062.82V1074.52Z" fill="#FF0031"/><path fill-rule="evenodd" clip-rule="evenodd" d="M1041.76 1101.83L-0.00012207 1101.83V1088.18L1041.76 1088.18V1101.83Z" fill="#FF0031"/><path fill-rule="evenodd" clip-rule="evenodd" d="M2739 1101.83L1697.24 1101.83V1088.18L2739 1088.18V1101.83Z" fill="#FF0031"/><path fill-rule="evenodd" clip-rule="evenodd" d="M2739 264.918H0.00341797V276.364H2739V264.918Z" fill="#FF0031"/><path fill-rule="evenodd" clip-rule="evenodd" d="M2739 300.527L0.00341797 300.527V289.081L2739 289.081V300.527Z" fill="#FF0031"/><path fill-rule="evenodd" clip-rule="evenodd" d="M2739 325.963L0.00341797 325.963V313.246L2739 313.246V325.963Z" fill="#FF0031"/><path d="M308.62 458.202V638.05H359.388V458.202H308.62Z" fill="#F2F4F8"/><path d="M413.736 458.202V638.05H460.183L459.913 527.602H460.453L548.217 638.05H598.175V458.202H551.728L551.998 566.219H551.458L464.234 458.202H413.736Z" fill="#F2F4F8"/><path d="M634.261 458.202L712.844 638.86H764.422L843.274 458.202H789.536L740.388 581.881H739.848L690.97 458.202H634.261Z" fill="#F2F4F8"/><path d="M879.569 458.202V638.05H1039.97V598.894H929.257V565.138H1013.24V528.683H929.257V497.358H1039.97V458.202H879.569Z" fill="#F2F4F8"/><path d="M1161.68 454.421C1110.64 454.421 1076.88 477.915 1076.88 512.75C1076.88 542.455 1093.63 557.307 1154.93 566.759C1194.08 573.51 1201.64 576.21 1201.64 587.012C1201.64 597.003 1189.22 603.214 1165.46 603.214C1141.69 603.214 1125.49 595.383 1122.52 574.59L1073.37 579.721C1076.61 615.096 1103.35 641.83 1165.19 641.83C1217.31 641.83 1253.22 622.117 1253.22 582.151C1253.22 551.366 1237.02 538.134 1174.64 528.143C1136.56 521.392 1128.46 519.231 1128.46 508.7C1128.46 500.058 1138.99 492.767 1161.14 492.767C1186.25 492.767 1197.86 504.649 1201.37 518.151L1249.98 513.02C1245.66 480.885 1220.01 454.421 1161.68 454.421Z" fill="#F2F4F8"/><path d="M1277.34 458.202V500.598H1344.04V638.05H1394.54V500.598H1460.97V458.202H1277.34Z" fill="#F2F4F8"/><path d="M1503.06 458.202V638.05H1553.83V458.202H1503.06Z" fill="#F2F4F8"/><path d="M1608.18 458.202V638.05H1654.62L1654.35 527.602H1654.89L1742.66 638.05H1792.62V458.202H1746.17L1746.44 566.219H1745.9L1658.67 458.202H1608.18Z" fill="#F2F4F8"/><path d="M1996.67 608.885L2004.5 638.05H2025.29V539.754H1933.75V572.159H1977.77C1975.06 590.522 1958.59 603.214 1934.56 603.214C1904.58 603.214 1887.84 582.151 1887.84 549.746C1887.84 515.181 1904.31 494.927 1935.37 494.927C1959.94 494.927 1970.2 506.809 1974.25 522.472L2023.67 517.341C2019.35 482.505 1992.62 454.151 1936.45 454.151C1872.99 454.151 1836.8 492.497 1836.8 550.286C1836.8 609.425 1873.53 642.1 1928.62 642.1C1964.26 642.1 1984.79 626.708 1996.67 608.885Z" fill="#F2F4F8"/><path d="M2143.59 458.202V638.05H2194.36V458.202H2143.59Z" fill="#F2F4F8"/><path d="M2248.7 458.202V638.05H2295.15L2294.88 527.602H2295.42L2383.19 638.05H2433.14V458.202H2386.7L2386.97 566.219H2386.43L2299.2 458.202H2248.7Z" fill="#F2F4F8"/><path d="M789.029 908.092H842.768L764.185 727.434H707.747L629.434 908.092H679.932L692.624 877.847H776.337L789.029 908.092ZM734.211 777.121H734.751L762.295 843.552H706.666L734.211 777.121Z" fill="#F2F4F8"/><path d="M878.704 728.244V908.092H924.071V778.472H924.611L979.97 908.092H1017.24L1072.32 778.472H1072.86V908.092H1122.28V728.244H1049.37L1001.03 843.012H1000.22L951.616 728.244H878.704Z" fill="#F2F4F8"/><path d="M1175.31 728.244V908.092H1335.71V868.936H1225V835.181H1308.98V798.725H1225V767.4H1335.71V728.244H1175.31Z" fill="#F2F4F8"/><path d="M1432.49 848.143H1465.97L1508.91 908.092H1565.62L1517.55 843.282C1541.86 835.181 1558.33 816.548 1558.33 788.193C1558.33 749.307 1532.4 728.244 1485.96 728.244H1381.72V908.092H1432.49V848.143ZM1432.22 766.32H1475.97C1497.3 766.32 1506.48 773.611 1506.48 789.003C1506.48 804.396 1496.49 811.687 1475.16 811.687H1432.22V766.32Z" fill="#F2F4F8"/><path d="M1604.25 728.244V908.092H1655.02V728.244H1604.25Z" fill="#F2F4F8"/><path d="M1798.48 724.193C1737.45 724.193 1700.46 763.079 1700.46 818.168C1700.46 873.527 1736.64 912.143 1797.13 912.143C1857.35 912.143 1883.55 878.117 1886.79 844.362L1838.72 839.231C1834.4 855.164 1822.25 871.096 1797.67 871.096C1766.08 871.096 1751.5 848.143 1751.5 818.168C1751.5 788.193 1766.08 765.24 1797.94 765.24C1821.98 765.24 1834.4 781.172 1838.72 797.105L1886.79 791.974C1883.55 757.948 1857.35 724.193 1798.48 724.193Z" fill="#F2F4F8"/><path d="M2065.22 908.092H2118.96L2040.38 727.434H1983.94L1905.63 908.092H1956.12L1968.82 877.847H2052.53L2065.22 908.092ZM2010.4 777.121H2010.94L2038.49 843.552H1982.86L2010.4 777.121Z" fill="#F2F4F8"/><path d="M1069.06 1023.74V1113.6H1088.78V1023.74H1069.06Z" fill="#F2F4F8"/><path d="M1105.91 1023.74V1113.6H1123.06L1122.79 1059.76H1123.06L1145.34 1113.6H1164.51V1023.74H1147.36L1147.63 1076.9H1147.36L1125.49 1023.74H1105.91Z" fill="#F2F4F8"/><path d="M1175.59 1023.74L1197.74 1114.14H1218.13L1240.27 1023.74H1220.96L1208.95 1084.73H1208.68L1196.39 1023.74H1175.59Z" fill="#F2F4F8"/><path d="M1251.35 1023.74V1113.6H1300.23V1095.66H1270.66V1076.5H1293.34V1059.22H1270.66V1041.68H1300.09V1023.74H1251.35Z" fill="#F2F4F8"/><path d="M1339.71 1021.98C1321.21 1021.98 1311.62 1032.91 1311.62 1047.22C1311.62 1061.11 1318.11 1067.99 1332.15 1075.15C1345.65 1081.89 1348.49 1084.19 1348.49 1090.66C1348.49 1095.93 1345.52 1099.16 1339.17 1099.16C1332.28 1099.16 1329.45 1095.12 1329.45 1088.37V1083.78H1310.81V1090.12C1310.81 1104.83 1318.65 1115.36 1338.9 1115.36C1357.8 1115.36 1367.8 1105.37 1367.8 1089.45C1367.8 1075.42 1361.72 1068.94 1347 1061.25C1334.31 1054.91 1330.93 1052.34 1330.93 1046.27C1330.93 1041.55 1333.63 1038.18 1339.71 1038.18C1346.19 1038.18 1348.62 1042.09 1348.62 1047.76V1052.34H1367.12V1047.22C1367.12 1032.51 1359.02 1021.98 1339.71 1021.98Z" fill="#F2F4F8"/><path d="M1375.46 1023.74V1041.95H1393.69V1113.6H1413.54V1041.95H1431.63V1023.74H1375.46Z" fill="#F2F4F8"/><path d="M1434.64 1092.15V1113.6H1451.92V1092.15H1434.64Z" fill="#F2F4F8"/><path d="M1493.7 1021.85C1476.42 1021.85 1464.13 1033.05 1464.13 1051.8V1085.94C1464.13 1104.56 1474.26 1115.36 1489.24 1115.36C1501.26 1115.36 1507.34 1108.47 1510.71 1101.32L1513.55 1113.6H1522.86V1066.24H1494.51V1079.87H1503.83V1086.48C1503.83 1094.31 1499.78 1098.62 1493.97 1098.62C1488.03 1098.62 1484.11 1094.17 1484.11 1086.62V1051.13C1484.11 1043.71 1487.76 1039.26 1494.24 1039.26C1500.59 1039.26 1503.83 1043.3 1503.83 1051.4V1055.72H1522.19V1049.91C1522.19 1031.16 1511.79 1021.85 1493.7 1021.85Z" fill="#F2F4F8"/><path d="M1566.96 1021.85C1549 1021.85 1536.85 1032.91 1536.85 1052.34V1085C1536.85 1104.43 1549 1115.49 1566.96 1115.49C1584.78 1115.49 1597.07 1104.43 1597.07 1085V1052.34C1597.07 1032.91 1584.78 1021.85 1566.96 1021.85ZM1566.96 1039.26C1573.17 1039.26 1576.95 1043.3 1576.95 1051.8V1085.54C1576.95 1094.04 1573.17 1098.08 1566.96 1098.08C1560.61 1098.08 1556.83 1094.04 1556.83 1085.54V1051.8C1556.83 1043.3 1560.61 1039.26 1566.96 1039.26Z" fill="#F2F4F8"/><path d="M1605.25 1023.74L1627.39 1114.14H1647.78L1669.93 1023.74H1650.62L1638.6 1084.73H1638.33L1626.04 1023.74H1605.25Z" fill="#F2F4F8"/><path d="M473.955 3.12454V151.789H506.56V101.341H524.425C550.332 101.341 565.52 86.6089 565.52 61.6082V42.8577C565.52 18.0803 550.332 3.12454 524.425 3.12454H473.955ZM506.56 29.6877H516.831C527.998 29.6877 532.691 35.4915 532.691 45.5363V58.9296C532.691 68.9744 527.998 74.7781 516.831 74.7781H506.56V29.6877Z" fill="#F2F4F8"/><path d="M614.963 98.2163H624.338L644.219 151.789H677.944L655.834 93.3055C667.663 87.0553 674.595 75.0013 674.595 59.1528V42.188C674.595 18.3035 659.407 3.12454 633.724 3.12454H582.348V151.789H614.963V98.2163ZM614.963 29.2412H626.13C637.073 29.2412 641.755 34.8218 641.755 45.0899V56.6973C641.755 66.7423 637.073 72.3228 626.13 72.3228H614.963V29.2412Z" fill="#F2F4F8"/><path d="M693.365 3.12454V151.789H774.21V122.101H725.298V90.4036H762.82V61.8314H725.298V32.8128H773.986V3.12454H693.365Z" fill="#F2F4F8"/><path d="M835.055 0.223427C804.455 0.223427 788.595 18.3042 788.595 41.9655C788.595 64.9572 799.315 76.3414 822.544 88.1721C844.878 99.3331 849.571 103.128 849.571 113.842C849.571 122.548 844.654 127.905 834.159 127.905C822.768 127.905 818.075 121.208 818.075 110.047V102.458H787.262V112.95C787.262 137.281 800.21 154.692 833.711 154.692C864.983 154.692 881.504 138.173 881.504 111.834C881.504 88.6185 871.457 77.904 847.107 65.1805C826.117 54.6892 820.539 50.4479 820.539 40.4031C820.539 32.5903 824.998 27.0098 835.055 27.0098C845.774 27.0098 849.795 33.4832 849.795 42.8584V50.4479H880.384V41.9655C880.384 17.6346 866.988 0.223427 835.055 0.223427Z" fill="#F2F4F8"/><path d="M899.487 3.12454V151.789H932.092V3.12454H899.487Z" fill="#F2F4F8"/><path d="M955.95 3.12454V151.789H1003.97C1035.46 151.789 1052.88 134.601 1052.88 104.02V51.1168C1052.88 20.5357 1035.46 3.12454 1003.97 3.12454H955.95ZM988.555 30.1341H1001.96C1014.24 30.1341 1019.6 37.7236 1019.6 49.7775V105.136C1019.6 116.967 1014.24 124.78 1001.96 124.78H988.555V30.1341Z" fill="#F2F4F8"/><path d="M1073.52 3.12454V151.789H1154.37V122.101H1105.45V90.4036H1142.98V61.8314H1105.45V32.8128H1154.14V3.12454H1073.52Z" fill="#F2F4F8"/><path d="M1173.19 3.12454V151.789H1201.55L1201.1 62.7243H1201.55L1238.4 151.789H1270.12V3.12454H1241.75L1242.2 91.0732H1241.75L1205.57 3.12454H1173.19Z" fill="#F2F4F8"/><path d="M1286.44 3.12454V33.2593H1316.59V151.789H1349.42V33.2593H1379.34V3.12454H1286.44Z" fill="#F2F4F8"/><path d="M1475.66 3.12454V110.493C1475.66 122.548 1471.64 127.235 1464.49 127.235C1456.9 127.235 1453.1 122.77 1453.1 110.94V93.0823H1424.07V109.377C1424.07 139.512 1434.79 155.361 1464.71 155.361C1493.75 155.361 1508.49 138.619 1508.49 106.029V3.12454H1475.66Z" fill="#F2F4F8"/><path d="M1578 0C1548.31 0 1528.2 18.304 1528.2 50.4477V104.467C1528.2 136.611 1548.31 154.915 1578 154.915C1607.49 154.915 1627.81 136.611 1627.81 104.467V50.4477C1627.81 18.304 1607.49 0 1578 0ZM1578 28.7954C1588.28 28.7954 1594.53 35.492 1594.53 49.5548V105.36C1594.53 119.423 1588.28 126.119 1578 126.119C1567.51 126.119 1561.26 119.423 1561.26 105.36V49.5548C1561.26 35.492 1567.51 28.7954 1578 28.7954Z" fill="#F2F4F8"/><path d="M1648.43 3.12454V151.789H1729.28V122.101H1680.37V90.4036H1717.89V61.8314H1680.37V32.8128H1729.05V3.12454H1648.43Z" fill="#F2F4F8"/><path d="M1782.99 3.12454V151.789H1835.69C1860.27 151.789 1874.78 138.843 1874.78 116.298V104.69C1874.78 88.841 1866.96 80.3587 1852.22 76.5639V76.1175C1866.52 72.3228 1874.11 64.7333 1874.11 48.4383V38.6165C1874.11 16.0712 1859.59 3.12454 1835.02 3.12454H1782.99ZM1814.48 29.4645H1828.1C1837.71 29.4645 1842.61 33.9289 1842.61 42.6344V52.0097C1842.61 61.1618 1837.26 65.6262 1827.65 65.6262H1814.48V29.4645ZM1814.48 87.9481H1827.87C1837.93 87.9481 1843.06 92.6358 1843.06 101.788V111.163C1843.06 120.315 1838.16 125.449 1828.32 125.449H1814.48V87.9481Z" fill="#F2F4F8"/><path d="M1895.34 3.12454V151.789H1927.94V3.12454H1895.34Z" fill="#F2F4F8"/><path d="M1951.81 3.12454V151.789H1999.83C2031.31 151.789 2048.74 134.601 2048.74 104.02V51.1168C2048.74 20.5357 2031.31 3.12454 1999.83 3.12454H1951.81ZM1984.41 30.1341H1997.81C2010.1 30.1341 2015.46 37.7236 2015.46 49.7775V105.136C2015.46 116.967 2010.1 124.78 1997.81 124.78H1984.41V30.1341Z" fill="#F2F4F8"/><path d="M2069.36 3.12454V151.789H2150.2V122.101H2101.29V90.4036H2138.81V61.8314H2101.29V32.8128H2149.98V3.12454H2069.36Z" fill="#F2F4F8"/><path d="M2169.04 3.12454V151.789H2197.4L2196.95 62.7243H2197.4L2234.25 151.789H2265.96V3.12454H2237.6L2238.04 91.0732H2237.6L2201.42 3.12454H2169.04Z" fill="#F2F4F8"/></svg>