<?xml version="1.0" encoding="utf-8"?><!--Generator: Adobe Illustrator 26.0.2, SVG Export Plug-In . SVG Version: 6.00 Build 0)--><svg version="1.1" id="Layer_1" xmlns="http://www.w3.org/2000/svg" xmlns:xlink="http://www.w3.org/1999/xlink" x="0px" y="0px" viewBox="0 0 561.6 220.7" enable-background="new 0 0 561.6 220.7" xml:space="preserve"><g id="Cancer_Moonshot_Logo"><path fill="#FFFFFF" d="M277.5,116.4h-2.8V83.5h-0.6l-14.7,33.2c-5.3-11-9.5-22.3-14.4-33.3c-0.2,0-0.4,0.1-0.6,0.1v33.1h-2.9V78
		h4.6c4.3,10.4,13.3,31.7,13.3,31.7s4.5-10.8,6.7-16s4.3-10.5,6.5-15.8h4.7C277.5,90.8,277.5,103.5,277.5,116.4z"/><path fill="#FFFFFF" d="M259.5,117.1l-0.2-0.4c-3.2-6.7-6.1-13.7-8.9-20.3c-1.7-4.2-3.5-8.6-5.4-12.8h-0.2v33.1h-3.3V77.8h5
		l0.1,0.2c3.9,9.4,11.8,28.1,13.1,31.2c0.9-2.1,4.6-11,6.5-15.5c1.5-3.6,3-7.3,4.5-10.9c0.6-1.6,1.3-3.2,1.9-4.8v-0.1h5v38.9h-3.2
		V83.7h-0.2L259.5,117.1z M241.9,116.2h2.5v-33l0.9-0.1v0.1c1.9,4.3,3.7,8.7,5.5,13c2.7,6.6,5.5,13.4,8.7,20l14.6-33h0.9v32.9h2.4
		v-38h-4.4c-0.6,1.6-1.3,3.2-1.9,4.7c-1.5,3.6-3,7.3-4.5,11c-2.2,5.1-6.7,15.8-6.7,16l-0.2,0.4l-0.2-0.4c-0.1-0.2-9-21.2-13.2-31.6
		h-4.3v38L241.9,116.2z"/><path fill="#FFFFFF" d="M106.3,110V78h3v38.2h-2.7L81.7,83.5c0,0,0,7.6,0,11c0,3.6,0,7.3,0,10.8V116l-3,0.1v-38h2.9
		c0,0,16.2,21.3,23.6,31.3c0.2,0.2,0.4,0.5,0.6,0.8C105.9,110.1,106.1,110.1,106.3,110z"/><path fill="#FFFFFF" d="M106.4,116.5L81.9,84.1c0,1.9,0,7.6,0,10.4c-0.1,2.5-0.1,5.1-0.1,7.6v14.1h-3.4V77.9h3.2V78
		c0.2,0.2,16.3,21.4,23.6,31.3c0.1,0.2,0.3,0.3,0.4,0.5l0.2,0.1h0.3v-32h3.4v38.6L106.4,116.5z M81.4,82.8l25.2,33.2h2.4V78.2h-2.6
		v32l-0.8,0.2l-0.1-0.1c0-0.1-0.2-0.2-0.2-0.2s-0.3-0.3-0.4-0.5c-7-9.5-22.4-29.7-23.5-31.2h-2.5v37.6h2.6v-13.8c0-2.5,0-5,0-7.6
		c0-3.4,0-10.9,0-11L81.4,82.8z"/><path fill="#FFFFFF" d="M404.8,78h2.8v38.3h-2.9c0,0-23.7-31.8-24.1-32.4H380c0,0,0,21.5,0,32.5c-1.1,0-1.9,0.1-3,0.2V78.3h3.2
		c7.2,9.7,24,32.1,24.4,32.6C404.7,110.7,404.8,88.7,404.8,78z"/><path fill="#FFFFFF" d="M376.9,116.7V78h3.5l0,0.1c6.6,8.9,21.5,28.8,24,32.1c0-3.6,0-22.5,0-32.2v-0.2h3.2v38.7h-3.2v-0.1
		c-0.2-0.3-22.7-30.5-24.1-32.2h-0.2c0,2.3,0,22,0,32.2v0.2L376.9,116.7z M377.3,78.4v37.9l2.6-0.2c0-10.8,0-32,0-32.3v-0.2h0.8h0
		c0.5,0.5,22.5,30.1,24.1,32.2l2.6,0.1V78.2H405c0,10.8,0,32.6,0,32.6v0.6l-0.3-0.4c-0.4-0.5-17.2-22.8-24.4-32.5L377.3,78.4z"/><path fill="#FFFFFF" d="M368.4,96.7c0.3,6.7-2.3,13.6-8.1,17.4c-0.9,0.6-2,1.1-3,1.6c-10.5,4.5-23.3-0.4-25.9-13.6
		c-1.3-6.3-0.4-12.4,3.4-17.6c4.9-6.6,11.8-8.4,19.7-6.6C364,80,368,88.2,368.4,96.7z M349.8,80c-6.1-0.3-11.8,3.4-14.1,9.1
		c-2,4.8-2.2,10.3-0.5,15.2c1.9,6,7.1,9.7,13.6,10.1c6.1,0.5,11.9-2.9,14.4-8.5c1.8-4,2.3-8.3,1.5-12.6
		C363.8,85.7,357.4,80,349.8,80z"/><path fill="#FFFFFF" d="M349.4,117.5c-3.1,0-6.1-0.7-8.8-2.1c-5-2.7-8.5-7.6-9.5-13.2c-1.4-6.8-0.2-12.8,3.5-17.7
		c4.8-6.3,11.4-8.6,19.9-6.7s13.7,9,14.1,19c0.3,7.4-2.8,14-8.2,17.5c-1,0.6-2,1.1-3,1.6C354.9,116.9,352.1,117.5,349.4,117.5z
		 M349,77.4c-5.6-0.1-10.9,2.6-14.1,7.2c-3.6,4.8-4.8,10.7-3.4,17.4c1,5.5,4.4,10.3,9.3,13c5.1,2.6,11.1,2.8,16.4,0.5
		c1-0.4,2-0.9,3-1.6c5.3-3.5,8.3-9.9,8-17.2c-0.4-9.9-5.6-16.9-13.8-18.7C352.6,77.7,350.8,77.4,349,77.4z M349.8,114.7
		c-0.4,0-0.7,0-1.1-0.1c-6.7-0.4-11.8-4.3-13.8-10.3c-1.7-5-1.6-10.5,0.5-15.3c2.3-5.8,7.9-9.4,14.1-9.2h0.1
		c7.7,0,14.3,5.8,15.2,13.4c0.8,4.3,0.2,8.8-1.6,12.8C361,111.3,355.7,114.7,349.8,114.7L349.8,114.7z M349.6,80.2
		c-6-0.2-11.5,3.4-13.7,9c-2,4.8-2.2,10.2-0.5,15.1c1.9,5.8,6.9,9.6,13.4,10c6,0.5,11.7-2.9,14.2-8.4c1.7-3.9,2.3-8.3,1.5-12.5
		C363.6,85.8,357.2,80.2,349.6,80.2L349.6,80.2z"/><path fill="#FFFFFF" d="M286.1,97.8v-0.4c-0.1-6.3,2.5-13,7.8-16.8c0.9-0.6,1.9-1.2,2.9-1.6c10.5-4.9,23.7,0,26.4,13
		c1.7,8.4,0.1,15.8-6.8,21.4c-4.8,3.6-10.9,4.7-16.7,3.1C290.8,114.2,286.1,106.9,286.1,97.8z M320.8,97.4c-0.1-2.5-0.5-4.9-1.5-7.2
		c-2-6-6.4-9.6-12.6-10.2s-11.5,1.7-14.8,7.4c-2.6,4.4-2.8,9.2-2,14.1c1.3,8.3,9.2,14,17.5,12.7c1.7-0.3,3.3-0.8,4.8-1.6
		C318.2,109.5,320.4,104.7,320.8,97.4z"/><path fill="#FFFFFF" d="M305,117.5c-1.8,0-3.6-0.2-5.3-0.7c-8.6-2.3-13.7-9.4-13.7-19v-0.4c-0.1-7,2.9-13.5,7.9-16.9
		c0.9-0.6,1.9-1.2,2.9-1.7c5.4-2.5,11.7-2.5,17,0.2c5.1,2.6,8.7,7.4,9.7,13.1c1.9,9.2-0.4,16.4-6.9,21.6
		C313.2,116.2,309.2,117.6,305,117.5z M305.1,77.4c-2.8,0-5.7,0.6-8.2,1.8c-1,0.5-1.9,1-2.8,1.6c-4.9,3.4-7.9,9.7-7.8,16.6v0.4
		c0,9.4,5,16.3,13.4,18.6c5.7,1.6,11.8,0.5,16.5-3.1c6.3-5.1,8.6-12.3,6.7-21.2c-1-5.5-4.5-10.2-9.5-12.8
		C310.8,78,308,77.4,305.1,77.4L305.1,77.4z M305,114.8c-7.6,0-14.1-5.6-15.3-13.1c-0.9-5.8-0.3-10.3,2-14.2c3.2-5.6,8.3-8.1,15-7.5
		c6.3,0.6,10.7,4.2,12.8,10.3c0.9,2.3,1.4,4.8,1.5,7.3c-0.5,7.9-3,12.3-8.7,15.4C310,114.1,307.5,114.7,305,114.8z M304.7,80.2
		c-5.3-0.2-10.2,2.7-12.7,7.4c-2.2,3.9-2.9,8.3-1.9,14c1.3,8.2,9.1,13.8,17.3,12.5c1.7-0.3,3.2-0.8,4.7-1.6c5.6-3,8-7.4,8.5-15.1
		c-0.1-2.4-0.5-4.8-1.4-7.1c-2-6-6.4-9.4-12.5-10C306,80.2,305.3,80.2,304.7,80.2L304.7,80.2z"/><path fill="#FFFFFF" d="M513.5,117c-2.2,0.4-4.5,0.4-6.7,0.1c-8.1-1.1-13.5-6.5-14.9-14.6c-0.1-0.6-0.2-1.3-0.2-1.9
		c-0.7-6.3,0.2-12.2,4.5-17.1c5.1-5.9,11.8-7.5,19.1-5.6c13.6,3.4,17,20.7,10.2,31.6C522.7,113.6,518.3,116.3,513.5,117z
		 M525.6,96.5c-0.1-1.7-0.3-3.4-0.7-5c-1.5-6.1-6.6-10.7-12.8-11.4c-6.3-0.9-12.5,2.3-15.4,8c-2.3,4.5-2.8,9.7-1.5,14.5
		c3,12.4,16,14.3,23.3,9.4C523.9,108.4,525.8,102.5,525.6,96.5L525.6,96.5z"/><path fill="#FFFFFF" d="M509.8,117.6c-1,0-2.1-0.1-3.1-0.2c-8.2-1.2-13.7-6.6-15-14.8c-0.1-0.6-0.2-1.3-0.2-1.9
		c-0.8-7.3,0.6-12.8,4.5-17.2c5-5.8,11.5-7.7,19.3-5.7c5.6,1.4,10.1,5.5,12.1,10.8c2.7,6.9,2,14.7-1.8,21c-2.7,4.2-7.1,7-12.1,7.7
		C512.3,117.4,511.1,117.5,509.8,117.6z M509.6,77.3c-5.2,0-10.1,2.3-13.3,6.3c-3.8,4.4-5.2,9.7-4.4,17c0,0.6,0.1,1.3,0.2,1.9
		c1.4,8,6.7,13.3,14.7,14.4c2.2,0.3,4.5,0.3,6.7-0.1c4.8-0.7,9.1-3.4,11.8-7.5c3.8-6.3,4.4-13.9,1.8-20.7
		c-1.9-5.3-6.4-9.2-11.8-10.6C513.4,77.6,511.5,77.3,509.6,77.3z M510.1,114.7c-2,0-4-0.4-5.8-1.1c-4.7-1.8-7.9-5.7-9.2-11
		c-1.4-4.9-0.8-10.1,1.5-14.7c2.9-5.7,9.2-9,15.6-8.1c6.3,0.8,11.4,5.4,12.9,11.6c0.4,1.7,0.6,3.4,0.7,5.1
		c0.2,6.8-2.3,12.4-7.2,15.7C516,113.8,513.1,114.7,510.1,114.7L510.1,114.7z M510.1,80.1c-5.6-0.1-10.7,3-13.1,8
		c-2.3,4.4-2.8,9.6-1.5,14.4c1.3,5.1,4.4,9,8.9,10.7c4.6,1.8,9.8,1.3,14-1.4c4.8-3.2,7.2-8.6,7-15.3c-0.1-1.7-0.3-3.4-0.7-5
		c-1.5-6-6.5-10.5-12.6-11.3C511.4,80.2,510.7,80.2,510.1,80.1L510.1,80.1z"/><path fill="#FFFFFF" d="M207.1,100.5c3.6,5.3,7.1,10.4,10.6,15.5c-2.1,1-3.1,0.8-4.3-0.8c-2.9-4.4-6-8.7-8.9-13.1
		c-0.6-1.2-1.9-1.8-3.2-1.7c-2.1,0.1-4.2,0-6.6,0v15.9h-2.9V78.2c0.2-0.1,0.5-0.2,0.7-0.2c5,0,10-0.1,15,0.1
		c4.5,0.1,8.5,3.2,9.7,7.5c1.4,5.5-0.1,10.3-4.2,12.8c-1,0.6-2.1,1-3.1,1.3C209.1,100,208.2,100.2,207.1,100.5z M194.9,80.8v16.5
		c0.4,0.1,0.8,0.2,1.2,0.2c3.7,0,7.4,0.1,11-0.2c4.1-0.3,7.3-3.6,7.4-7.7c0.2-4.7-2.4-8.5-6.7-8.9S199.3,80.8,194.9,80.8z"/><path fill="#FFFFFF" d="M215.6,116.8c-1-0.1-1.9-0.7-2.3-1.6l-1.4-2.1c-2.5-3.6-5-7.3-7.4-10.9c-0.6-1.1-1.8-1.7-3-1.6
		c-1.4,0-3,0-4.5,0H195v15.9h-3.4V78h0.1c0.1,0,0.1,0,0.2-0.1c0.2-0.1,0.4-0.2,0.6-0.2h4.2c3.5-0.1,7.2-0.1,10.8,0.1
		c4.6,0.2,8.6,3.2,9.9,7.7c1.4,5.6-0.2,10.5-4.3,13.1c-0.8,0.5-1.7,0.9-2.7,1.2c-0.2,0-0.4,0.2-0.5,0.2c-0.5,0.2-1.1,0.3-1.8,0.5
		c-0.2,0-0.5,0.2-0.7,0.2L218,116l-0.2,0.1C217.1,116.5,216.4,116.7,215.6,116.8z M201.7,100.2c1.3,0,2.5,0.6,3.1,1.7
		c2.4,3.7,4.9,7.4,7.4,11l1.5,2.1c1,1.5,1.9,1.7,3.8,0.9l-10.6-15.5l0.3-0.1l1-0.3c0.6-0.2,1.2-0.3,1.7-0.5c0.2,0,0.4-0.2,0.5-0.2
		c0.9-0.3,1.8-0.7,2.6-1.2c4-2.6,5.5-7.2,4.1-12.7c-1.3-4.3-5.1-7.2-9.6-7.4c-3.6-0.1-7.2-0.1-10.8-0.1h-4.2c-0.2,0-0.3,0.1-0.4,0.1
		c0,0-0.1,0-0.1,0v37.9h2.5v-15.9h2.4c1.6,0,3,0.1,4.4,0C201.5,100.2,201.6,100.2,201.7,100.2z M201.3,97.8H196
		c-0.2,0-0.5,0-0.7-0.1c-0.1-0.1-0.3-0.1-0.4-0.1l-0.1-0.1V80.6h0.2c1.4,0,2.7,0,4.1,0c3-0.1,5.9-0.1,8.9,0.1
		c4.3,0.4,7.1,4.1,6.9,9.1c0,4.2-3.4,7.7-7.6,7.9C205.1,97.8,203.2,97.8,201.3,97.8z M196.8,97.4h2.2c2.6,0,5.3,0,8-0.2
		c4-0.2,7.1-3.5,7.2-7.5c0.2-4.7-2.5-8.3-6.5-8.7c-2.9-0.2-5.9-0.3-8.8-0.1c-1.3,0-2.6,0-3.8,0v16.2c0.1,0.1,0.2,0.1,0.3,0.1
		c0.2,0.1,0.4,0.1,0.6,0.2C196.3,97.4,196.6,97.4,196.8,97.4L196.8,97.4z"/><path fill="#FFFFFF" d="M52.7,78h4.1c5.2,12.8,15.6,38.1,15.6,38.1h-3.2c0,0-3-6.3-4-8.8H44.3c-1,2.3-2,4.7-3,7.1s-1.3,2.6-4.3,1.8
		C42.2,103.4,47.5,90.7,52.7,78z M64,104.1c-3.2-7.7-5.9-15.1-9.2-22.3c-0.2,0-0.4,0.1-0.5,0.1c-2.9,7.3-5.9,14.6-8.9,22.2H64z"/><path fill="#FFFFFF" d="M39.2,116.8c-0.8,0-1.5-0.2-2.2-0.4l-0.2-0.1l15.8-38.6h4.4l0,0.1l15.7,38.3H69v-0.1c0,0-2.9-6.2-4-8.7
		H44.4l-0.8,2l-2,4.9C40.8,116.1,40.4,116.8,39.2,116.8z M37.3,116c2.8,0.7,3,0.4,3.8-1.8l2-4.9l1-2.3h21.1v0.2
		c0.9,2.3,3.5,7.8,4,8.7H72L56.6,78.2h-3.8L37.3,116z M64.3,104.3H45.1l9-22.5l0.8-0.2v0.1c1.9,4.3,3.6,8.6,5.5,13.1
		c1.2,3,2.4,6.1,3.7,9.2L64.3,104.3z M45.7,103.8h18c-1.3-3-2.5-6-3.6-8.9c-1.8-4.5-3.5-8.7-5.4-12.9h-0.3L45.7,103.8z"/><path fill="#FFFFFF" d="M451.9,78h2.9v17h24.9V78h3.1v38.3c-0.9,0.1-1.8,0.1-3,0.2V98.2h-25v18.1h-2.9
		C451.9,103.6,451.9,90.8,451.9,78z"/><path fill="#FFFFFF" d="M479.5,116.8V98.5H455v18.1h-3.3V77.8h3.3v17h24.5v-17h3.5v38.7L479.5,116.8z M454.6,98H480v18.3l2.6-0.2
		V78.2h-2.8v17h-25.3v-17h-2.5v38h2.5L454.6,98L454.6,98z"/><path fill="#FFFFFF" d="M158.8,116.3V78h24.3c0.1,0.4,0.1,0.8,0.1,1.2c0,0.4-0.1,0.8-0.1,1.4H162v14.6h20.6c0,1,0.1,1.8,0.1,2.9
		h-20.7v15.7h21c0.1,1,0.1,1.7,0.1,2.6C175,116.3,167,116.3,158.8,116.3z"/><path fill="#FFFFFF" d="M183.4,116.5h-24.9V77.8h24.7V78c0,0.1,0,0.3,0,0.4c0.1,0.3,0.1,0.6,0.1,0.9c0,0.3,0,0.6-0.1,0.9
		c0,0.2,0,0.4-0.1,0.6V81h-21v14.1h20.6l0.1,3.2h-20.6v15.3h21L183.4,116.5z M158.9,116.2H183l-0.1-2.2h-21V97.8h20.6l-0.1-2.4
		h-20.5V80.5h21.1c0-0.2,0.1-0.3,0.1-0.4c0-0.3,0.1-0.5,0.1-0.8c0-0.3,0-0.5-0.1-0.8c0-0.1,0-0.2-0.1-0.2H159L158.9,116.2
		L158.9,116.2z"/><path fill="#FFFFFF" d="M442.5,82.6l-1.5,1.7c-2.9-1.6-4.8-3-8.4-3.8c-2.6-0.8-5.4-0.6-7.9,0.5c-2.7,1-4.6,3.5-4.6,6.4
		c0,3,2,4.6,4.5,5.5c3.1,1.2,6.4,2,9.5,3.1s6.5,2.5,8.2,5.7c2.5,5,0.6,11.1-4.3,13.8c-3.9,2.1-8.7,2.2-12.9,1.2
		c-3.7-0.7-7-2.7-9.3-5.5c0.6-0.7,1.1-1.3,1.8-2.2c0.7,0.6,1.3,1.2,1.9,1.7c4.4,3.8,10.5,4.9,15.9,2.7c2.8-1,4.7-3.7,4.7-6.7
		c0.2-2.8-1.5-5.3-4.2-6.2c-2.9-1.2-5.9-2-8.9-3.1c-1.9-0.6-3.7-1.4-5.5-2.2c-6.8-3.3-5.7-12.1-0.8-15.4c6.1-4.1,16-3.2,21,2.2
		C442,82.1,442.3,82.3,442.5,82.6z"/><path fill="#FFFFFF" d="M430.1,117.5c-1.7,0-3.4-0.2-5.1-0.6c-3.7-0.7-7-2.7-9.4-5.6l-0.1-0.2l2-2.5l0.1,0.1
		c0.2,0.2,0.5,0.4,0.7,0.6c0.4,0.4,0.8,0.7,1.3,1.1c4.3,3.8,10.4,4.8,15.8,2.6c2.8-0.9,4.6-3.5,4.6-6.4c0.2-2.7-1.5-5.1-4-6.1
		c-1.8-0.8-3.7-1.4-5.6-2c-1.1-0.3-2.2-0.7-3.2-1.1l-0.6-0.2c-1.7-0.6-3.3-1.2-4.9-1.9c-2.8-1.3-4.7-4-4.9-7.1
		c-0.3-3.4,1.3-6.7,4.1-8.6c6.1-4.2,16.3-3.1,21.3,2.2c0.2,0.2,0.6,0.7,0.6,0.7l0.1,0.1l-1.7,1.9l-0.1-0.1c-0.7-0.4-1.4-0.7-1.9-1.1
		c-2-1.2-4.1-2.2-6.4-2.7c-2.5-0.8-5.3-0.6-7.7,0.5c-2.6,0.9-4.4,3.4-4.5,6.2c0,2.5,1.5,4.3,4.3,5.3c2,0.7,4,1.3,6,2
		c1.2,0.3,2.4,0.7,3.5,1.1c3,1,6.5,2.4,8.3,5.8c1.3,2.4,1.5,5.1,0.7,7.7c-0.8,2.7-2.6,5-5.1,6.4C435.8,116.9,433,117.6,430.1,117.5z
		 M416.1,111.2c1.9,2.6,5.1,4.4,9.1,5.3c4.3,1.1,8.8,0.7,12.8-1.2c2.4-1.3,4.2-3.5,4.9-6.2c0.8-2.4,0.5-5.1-0.7-7.4
		c-1.8-3.3-5.1-4.7-8.1-5.6c-1.2-0.4-2.4-0.8-3.5-1.1c-2-0.6-4.1-1.3-6-2c-3-1.1-4.6-3-4.6-5.7c0.1-3,2-5.6,4.8-6.6
		c2.5-1.2,5.4-1.3,8-0.5c2.3,0.6,4.5,1.5,6.4,2.8c0.6,0.3,1.2,0.7,1.8,1l1.3-1.4c-0.2-0.2-0.3-0.3-0.5-0.5
		c-4.8-5.2-14.8-6.2-20.8-2.1c-2.6,1.9-4.1,5-3.9,8.2c0.2,2.9,2,5.6,4.7,6.8c1.6,0.8,3.2,1.4,4.8,2l0.6,0.2c1.1,0.4,2.2,0.7,3.2,1.1
		c1.9,0.6,3.8,1.2,5.6,2c2.7,1,4.5,3.6,4.3,6.4c0,3.1-1.9,5.8-4.8,6.8c-5.8,2.2-11.2,1.3-16.2-2.7c-0.4-0.3-0.8-0.7-1.3-1.1
		c-0.2-0.1-0.4-0.3-0.5-0.5L416.1,111.2z"/><path fill="#FFFFFF" d="M33.8,84c-1,0.6-1.7,1-2.5,1.4c-0.4-0.4-0.8-0.7-1.2-1c-6.2-6-16-5.8-22,0.3c-1.4,1.4-2.4,3.1-3.2,4.9
		c-2.7,6.7-2.2,13.2,2.3,19c5.5,7.1,17,8,23.1,1.1c0.2-0.3,0.4-0.5,0.6-0.8c0.9,0.5,1.7,1,2.7,1.6c-3.4,4.5-8.8,7.1-14.4,6.8
		C8.6,117,0.9,109.5,0.2,98.8c-0.6-9.9,4.2-17.6,13.2-20.5c6.9-2.3,13.4-1.1,18.9,4.1C32.8,82.9,33.3,83.4,33.8,84z"/><path fill="#FFFFFF" d="M19.9,117.4h-0.6c-10.9-0.3-18.6-7.8-19.2-18.6C-0.6,88.6,4.3,81,13.4,78c7.2-2.4,13.6-1,19,4.1
		c0.4,0.3,0.7,0.7,0.9,1.1c0.2,0.2,0.3,0.4,0.6,0.7l0.2,0.2l-2.8,1.6l-0.1-0.1c-0.1-0.2-0.3-0.2-0.4-0.4s-0.5-0.4-0.7-0.6
		c-6.1-5.9-15.8-5.7-21.7,0.4c-1.3,1.4-2.4,3-3.1,4.7c-2.8,6.9-2,13.2,2.3,18.8c2.8,3.5,7.1,5.6,11.6,5.8c4.3,0.2,8.4-1.5,11.2-4.7
		c0.1-0.2,0.2-0.3,0.3-0.4c0.1-0.1,0.1-0.2,0.2-0.3l0.1-0.1l3.1,1.7l-0.2,0.2C30.6,115,25.4,117.5,19.9,117.4z M20,77.3
		c-2.2,0-4.4,0.4-6.4,1.1C4.7,81.3-0.1,88.8,0.5,98.8c0.6,10.6,8.2,18,18.9,18.2c5.5,0.3,10.7-2.2,14.1-6.5l-2.3-1.3
		c0,0.1-0.1,0.1-0.1,0.2c-0.1,0.2-0.2,0.3-0.3,0.5c-2.9,3.2-7.2,5-11.5,4.8c-4.6-0.1-9-2.3-11.9-5.9C2.8,103.1,2,96.7,4.8,89.6
		c2-4.8,6.2-8.3,11.3-9.3c5.1-1.1,10.5,0.5,14.2,4.1c0.2,0.2,0.4,0.4,0.7,0.6c0.1,0.1,0.2,0.2,0.3,0.3l2.1-1.3
		c-0.1-0.2-0.3-0.3-0.4-0.5c-0.3-0.4-0.6-0.7-0.9-1C29,79.2,24.6,77.4,20,77.3z"/><path fill="#FFFFFF" d="M151.6,84c-1,0.6-1.6,1-2.4,1.5c-0.4-0.4-0.8-0.6-1.2-1c-6.2-6-16.1-5.8-22.1,0.4c-1.8,1.9-3.1,4.1-3.8,6.6
		c-1.6,5.7-1.1,11.1,2.2,16.1c5.4,8.2,17.5,9.3,23.8,2.2c0.2-0.2,0.5-0.5,0.9-0.8c0.8,0.5,1.6,0.9,2.5,1.5c-3.4,4.5-8.8,7-14.4,6.7
		c-12.1-0.3-20.5-10.2-19-22.3c1-8.2,5.1-14,13.1-16.7c6.9-2.3,13.2-1.2,18.7,3.8C150.4,82.6,150.9,83.2,151.6,84z"/><path fill="#FFFFFF" d="M137.7,117.4h-0.6c-5.6,0-11-2.5-14.7-6.7c-3.7-4.4-5.3-10.1-4.5-15.8c1.1-8.6,5.5-14.3,13.2-16.9
		c7.1-2.4,13.5-1.1,18.9,3.9c0.4,0.4,0.7,0.8,1.1,1.2c0.2,0.3,0.4,0.5,0.6,0.7l0.1,0.2l-2.7,1.7l-0.1-0.1c-0.1-0.1-0.3-0.2-0.4-0.3
		c-0.3-0.2-0.5-0.4-0.7-0.6c-6.1-5.9-15.9-5.8-21.8,0.3c-1.8,1.8-3.1,4.1-3.8,6.5c-1.7,5.9-0.9,11.3,2.2,16
		c2.7,3.9,7.1,6.4,11.8,6.7c4.4,0.4,8.7-1.3,11.7-4.5c0.2-0.2,0.3-0.4,0.5-0.5c0.1-0.1,0.2-0.2,0.3-0.3l0.1-0.1l2.8,1.7l-0.1,0.2
		C148.4,115,143.2,117.5,137.7,117.4z M137.7,77.3c-2.2,0-4.4,0.4-6.5,1.1c-7.6,2.5-11.9,8-12.9,16.5c-0.8,5.5,0.8,11.1,4.4,15.4
		c3.6,4.2,8.9,6.6,14.4,6.6c5.5,0.3,10.8-2.1,14.1-6.5l-2.2-1.3l-0.2,0.2l-0.5,0.5c-3.1,3.3-7.5,5.1-12,4.7
		c-4.9-0.3-9.4-2.9-12.1-6.9c-3.2-4.8-3.9-10.2-2.3-16.3c2.4-8.4,11.1-13.3,19.5-11c2.5,0.7,4.8,2,6.7,3.9c0.2,0.2,0.4,0.4,0.7,0.6
		c0.1,0.1,0.2,0.2,0.3,0.2l2.1-1.3c-0.2-0.2-0.3-0.4-0.5-0.6c-0.3-0.4-0.6-0.8-1-1.1C146.5,79.1,142.2,77.4,137.7,77.3L137.7,77.3z"/><path fill="#FFFFFF" d="M561.5,78v2.7h-12.6v35.7h-3.2V80.8h-12.6V78H561.5z"/><path fill="#FFFFFF" d="M549.1,116.5h-3.6V81h-12.6v-3.2h28.7v3h-12.5V116.5L549.1,116.5z M545.9,116.2h2.8V80.4h12.5v-2.2h-27.9
		v2.4h12.6V116.2z"/><path fill="#FFFFFF" d="M137.3,149.4h2.1v-4.3h4.7c3.4,0,5.5-1.7,5.5-5.1c0-3.1-1.8-4.9-5.4-4.9h-7L137.3,149.4z M139.4,143.1V137
		h4.7c2.3,0,3.4,1.1,3.4,3.1s-1.1,3-3.3,3L139.4,143.1z"/><path fill="#FFFFFF" d="M154.3,149.4h2.1v-4.7h4.8l3.5,4.7h2.5l-3.9-5.1c2.1-0.4,3.6-2.3,3.5-4.4c0-3-1.7-4.7-5.2-4.7h-7.3
		L154.3,149.4z M156.5,142.8V137h5.1c2.3,0,3.1,1.2,3.1,2.9s-0.9,2.9-3.1,2.9L156.5,142.8z"/><path fill="#FFFFFF" d="M172,149.4h11.9l0.1-1.9h-9.9V143h7.8v-1.9h-7.8v-4h9.5l-0.1-1.9H172V149.4z"/><path fill="#FFFFFF" d="M194.5,149.7c4.6,0,6-2.4,6-4.4c0-2.7-2.3-3.5-5.5-4.1c-2.9-0.5-4.5-0.9-4.5-2.3s1.3-2.2,3.7-2.2
		c2,0,3.9,0.6,5.5,1.6l0,0v-2.2c-1.7-0.9-3.5-1.4-5.4-1.4c-4,0-6,2-6,4.3c0,2.6,2.3,3.3,5.4,3.9c3.5,0.6,4.5,1.1,4.5,2.4
		s-1.4,2.3-3.8,2.3c-2.3,0-4.5-0.7-6.4-1.8l0,0v2.2C190.1,149.2,192.3,149.7,194.5,149.7z"/><path fill="#FFFFFF" d="M205.4,149.4h2.1v-14.2h-2.1V149.4z"/><path fill="#FFFFFF" d="M213.6,149.4h6.6c4.6,0,7.2-2.7,7.2-7.1s-2.6-7.1-7.2-7.1h-6.6V149.4z M215.7,147.5V137h4.5
		c3.2,0,5,1.8,5,5.2s-1.8,5.2-5,5.2L215.7,147.5z"/><path fill="#FFFFFF" d="M232.4,149.4h11.9l0.1-1.9h-9.9V143h7.8v-1.9h-7.8v-4h9.5l-0.1-1.9h-11.5V149.4z"/><path fill="#FFFFFF" d="M249.3,149.4h2.1v-11.3h0.2l8.4,11.3h2.4v-14.2h-2.1v11.1h-0.2l-8.3-11.1h-2.5L249.3,149.4z"/><path fill="#FFFFFF" d="M272.6,149.4h2.1v-12.3h5.7l-0.1-2H267l-0.1,2h5.7L272.6,149.4z"/><path fill="#FFFFFF" d="M295.3,149.7c3.1,0,5.4-1.5,5.4-5.2v-9.4h-2.1v9.1c0,2.6-1.4,3.5-3.3,3.5c-1.8,0-3.4-0.7-4.7-1.9l0,0v2.2
		C291.9,149.1,293.6,149.7,295.3,149.7z"/><path fill="#FFFFFF" d="M313.3,149.7c4.8,0,7.8-3,7.8-7.5s-3-7.5-7.8-7.5s-7.8,3-7.8,7.5S308.5,149.7,313.3,149.7z M313.3,147.8
		c-3.5,0-5.6-2.1-5.6-5.6s2.1-5.6,5.6-5.6s5.6,2.1,5.6,5.6S316.8,147.8,313.3,147.8L313.3,147.8z"/><path fill="#FFFFFF" d="M326.1,149.4H338l0.1-1.9h-9.9V143h7.8v-1.9h-7.8v-4h9.5l-0.1-1.9h-11.5V149.4z"/><path fill="#FFFFFF" d="M350.1,149.4h7.4c3.2,0,5.3-1.2,5.3-4c0-1.8-1-2.9-3.1-3.4c1.7-0.2,2.9-1.6,2.8-3.3c0-2.3-1.7-3.6-4.6-3.6
		h-7.8L350.1,149.4z M352.2,141.2V137h5.5c1.7,0,2.7,0.7,2.7,2.1s-0.9,2.2-2.8,2.2L352.2,141.2z M352.2,147.5v-4.6h5.5
		c2.1,0,3,0.8,3,2.2s-0.9,2.3-3.1,2.3L352.2,147.5z"/><path fill="#FFFFFF" d="M367.8,149.4h2.1v-14.2h-2.1V149.4z"/><path fill="#FFFFFF" d="M376,149.4h6.6c4.6,0,7.2-2.7,7.2-7.1s-2.6-7.1-7.2-7.1H376V149.4z M378.1,147.5V137h4.5c3.2,0,5,1.8,5,5.2
		s-1.8,5.2-5,5.2L378.1,147.5z"/><path fill="#FFFFFF" d="M394.8,149.4h11.9l0.1-1.9h-9.9V143h7.8v-1.9h-7.8v-4h9.5l-0.1-1.9h-11.5V149.4z"/><path fill="#FFFFFF" d="M411.7,149.4h2.1v-11.3h0.2l8.5,11.3h2.4v-14.2h-2.1v11.1h-0.2l-8.3-11.1h-2.5V149.4z"/><path fill-rule="evenodd" clip-rule="evenodd" fill="#FFFFFF" d="M183.1,166.3c33.8,54.1,105,70.7,159.1,36.9
		c15-9.3,27.6-21.9,36.9-36.9h-6c-33.8,50.8-102.4,64.6-153.2,30.8c-12.2-8.1-22.7-18.6-30.8-30.8H183.1z"/><path fill-rule="evenodd" clip-rule="evenodd" fill="#FFFFFF" d="M379.1,54.4c-33.8-54.1-105-70.6-159.2-36.8
		c-14.9,9.3-27.5,21.9-36.8,36.8h6c33.8-50.8,102.4-64.6,153.2-30.8c12.2,8.1,22.7,18.6,30.8,30.8H379.1z"/></g></svg>