<svg xmlns="http://www.w3.org/2000/svg" fill="none" viewBox="0 0 3137 1075"><path fill="#fff" d="M1248.34 989.78h18.29v83.47h-18.29v-83.47ZM1280.03 989.78h18.17l20.3 49.38h.25l-.25-49.38h15.92v83.47h-17.8l-20.68-50.01h-.25l.25 50.01h-15.91v-83.47ZM1342.2 989.78h19.3l11.41 56.64h.25l11.15-56.64h17.92l-20.55 83.97h-18.93l-20.55-83.97ZM1410.01 989.78h45.24v16.66h-27.32v16.3h21.05v16.04h-21.05v17.8h27.45v16.67h-45.37v-83.47ZM1484.24 1043.17v30.08h-18.3v-83.47h28.83c14.41 0 22.93 8.52 22.93 21.93v9.52c0 8.9-3.88 15.67-10.53 19.18l12.41 32.84h-18.92l-11.16-30.08h-5.26Zm0-38.73v24.19h6.26c6.15 0 8.78-3.14 8.78-8.78v-6.51c0-5.77-2.63-8.9-8.78-8.9h-6.26ZM1523.13 989.78h52.14v16.92h-16.8v66.55h-18.42v-66.55h-16.92v-16.92ZM1584.79 989.78h18.3v83.47h-18.3v-83.47ZM1634.78 1043.17v30.08h-18.3v-83.47h28.83c14.41 0 22.93 8.52 22.93 21.93v9.52c0 8.9-3.88 15.67-10.52 19.18l12.4 32.84h-18.92l-11.16-30.08h-5.26Zm0-38.73v24.19h6.27c6.14 0 8.77-3.14 8.77-8.78v-6.51c0-5.77-2.63-8.9-8.77-8.9h-6.27ZM1677.14 1053.32h16.04v19.93h-16.04v-19.93ZM1729.45 988.02c16.79 0 26.44 8.65 26.44 26.07v5.39h-17.04v-4.01c0-7.52-3.01-11.28-8.9-11.28-6.02 0-9.4 4.13-9.4 11.03v32.96c0 7.02 3.64 11.15 9.15 11.15 5.39 0 9.15-4.01 9.15-11.28v-6.14h-8.65v-12.66h26.32v44h-8.65l-2.63-11.41c-3.13 6.64-8.77 13.03-19.93 13.03-13.91 0-23.31-10.02-23.31-27.32v-31.71c0-17.42 11.41-27.82 27.45-27.82ZM1794.94 988.02c16.54 0 27.95 10.28 27.95 28.33v30.33c0 18.04-11.41 28.32-27.95 28.32-16.67 0-27.95-10.28-27.95-28.32v-30.33c0-18.05 11.28-28.33 27.95-28.33Zm0 16.17c-5.89 0-9.4 3.76-9.4 11.65v31.34c0 7.89 3.51 11.65 9.4 11.65 5.77 0 9.28-3.76 9.28-11.65v-31.34c0-7.89-3.51-11.65-9.28-11.65ZM1827.98 989.78h19.3l11.4 56.64h.25l11.16-56.64h17.92l-20.56 83.97h-18.92l-20.55-83.97Z"/><path fill="#FF0031" fill-rule="evenodd" d="M1223.18 999.63H0v11.62h1223.18v-11.62ZM3136.32 999.63H1913.14v11.62h1223.18v-11.62ZM1223.18 1036.41H0v-10.65h1223.18v10.65ZM3136.32 1036.41H1913.14v-10.65h1223.18v10.65ZM1223.18 1062.53H0v-11.61h1223.18v11.61ZM3136.32 1062.53H1913.14v-11.61h1223.18v11.61ZM3136.31 253.54H0v11.07H3136.3v-11.07ZM3136.31 288H.01v-11.08h3136.3v11.07ZM3136.31 312.61H.01v-12.3h3136.3v12.3Z" clip-rule="evenodd"/><path fill="#fff" d="M286.9 442.77h48.65v172.38H286.9V442.77ZM392.82 442.77h48.4l83.6 103.53h.53l-.26-103.53h44.52v172.38h-47.89L437.6 509.3h-.52l.26 105.86h-44.52V442.77ZM609.37 442.77h54.36l46.85 118.54h.51l47.11-118.54h51.51l-75.58 173.16H684.7l-75.32-173.16ZM850.97 442.77h48.66v172.38h-48.66V442.77ZM1005.56 557.7v57.45H956.9V442.77h99.91c44.52 0 69.37 20.19 69.37 57.46 0 27.18-15.79 45.04-39.08 52.8l46.07 62.12h-54.36l-41.15-57.46h-32.1Zm-.26-78.44v43.49h41.16c20.45 0 30.02-7 30.02-21.74 0-14.76-8.8-21.75-29.25-21.75h-41.93ZM1159.14 442.77h176.01v40.63h-63.68v131.75h-48.4V483.4h-63.93v-40.63ZM1380.67 442.77h48.66v172.38h-48.66V442.77ZM1486.6 442.77h153.75v37.53h-106.12v30.02h80.5v34.95h-80.5v32.35h106.12v37.53H1486.6V442.77ZM1689.63 442.77h48.4l83.6 103.53h.52l-.26-103.53h44.52v172.38h-47.88l-84.12-105.86h-.52l.26 105.86h-44.52V442.77ZM1922.22 442.77h78.17c64.45 0 98.1 30.54 98.1 85.41 0 55.4-33.65 86.97-98.1 86.97h-78.17V442.77Zm48.67 38.05v96.28h27.95c32.61 0 50.73-15.53 50.73-48.14 0-32.35-18.12-48.14-50.73-48.14h-27.95ZM2233.2 438.37c58.49 0 94.99 35.46 94.99 90.59 0 55.4-36.5 90.6-94.99 90.6-58.5 0-95.25-35.2-95.25-90.6 0-55.4 36.75-90.6 95.25-90.6Zm0 38.05c-26.66 0-46.08 17.6-46.08 52.54 0 34.68 19.42 52.54 46.08 52.54 26.4 0 46.07-17.86 46.07-52.54 0-34.94-19.67-52.54-46.07-52.54ZM2446.37 442.77h153.74v37.53h-106.12v30.02h80.5v34.95h-80.5v32.35h106.12v37.53h-153.74V442.77ZM2649.39 442.77h48.4l83.61 103.53h.51l-.26-103.53h44.52v172.38h-47.88l-84.12-105.86h-.52l.26 105.86h-44.52V442.77ZM203.22 701.14h153.75v37.53H250.85v30.03h80.5v34.94h-80.5V836h106.12v37.53H203.22V701.14ZM478.8 697.52c55.9 0 80.5 25.37 84.64 56.17l-46.6 4.91c-3.36-12.94-14.49-24.33-38.56-24.33-21.22 0-31.32 7-31.32 15.28 0 10.09 7.77 12.16 44.26 18.63 59.8 9.58 75.32 22.26 75.32 51.77 0 38.3-34.42 57.2-84.38 57.2-59.27 0-84.9-25.62-88-59.53l47.1-4.92c2.85 19.93 18.38 27.44 41.16 27.44 22.78 0 34.69-5.96 34.69-15.53 0-10.36-7.25-12.94-44.78-19.41-58.76-9.06-74.8-23.3-74.8-51.77 0-33.4 32.35-55.91 81.27-55.91ZM594.84 701.14h176v40.64h-63.67v131.75h-48.4V741.78h-63.93v-40.64ZM929.5 873.53l-12.17-29h-80.24l-12.17 29h-48.4l75.07-173.16h54.1L981 873.53h-51.5Zm-52.55-125.54-26.4 63.68h53.32l-26.4-63.68h-.52ZM1020.62 701.14h78.17c64.45 0 98.1 30.55 98.1 85.42 0 55.39-33.65 86.97-98.1 86.97h-78.17V701.14Zm48.67 38.05v96.29h27.95c32.61 0 50.73-15.53 50.73-48.14 0-32.36-18.12-48.15-50.73-48.15h-27.95ZM1331.6 696.74c58.49 0 94.99 35.46 94.99 90.6 0 55.39-36.5 90.59-94.99 90.59-58.5 0-95.25-35.2-95.25-90.6 0-55.38 36.75-90.59 95.25-90.59Zm0 38.05c-26.66 0-46.08 17.6-46.08 52.55 0 34.68 19.42 52.54 46.08 52.54 26.4 0 46.07-17.86 46.07-52.54 0-34.95-19.67-52.55-46.07-52.55ZM1548.51 697.52c55.91 0 80.5 25.37 84.64 56.17l-46.59 4.91c-3.36-12.94-14.49-24.33-38.56-24.33-21.23 0-31.32 7-31.32 15.28 0 10.09 7.76 12.16 44.26 18.63 59.79 9.58 75.32 22.26 75.32 51.77 0 38.3-34.43 57.2-84.38 57.2-59.27 0-84.9-25.62-88-59.53l47.1-4.92c2.85 19.93 18.38 27.44 41.16 27.44 22.78 0 34.68-5.96 34.68-15.53 0-10.36-7.25-12.94-44.78-19.41-58.75-9.06-74.8-23.3-74.8-51.77 0-33.4 32.35-55.91 81.27-55.91ZM1748.99 701.14h48.92v96.29c0 26.14 13.72 40.38 39.6 40.38 25.37 0 39.61-14.24 39.61-40.38v-96.29h46.33v95c0 52.54-28.73 81.53-86.97 81.53-58.76 0-87.49-28.73-87.49-81.53v-95ZM1977.1 701.14h48.4l83.61 103.54h.51l-.25-103.54h44.52v172.39H2106l-84.12-105.87h-.52l.26 105.87h-44.52V701.14ZM2210.99 701.14h48.66v172.39h-48.66V701.14ZM2316.92 701.14h78.17c64.45 0 98.1 30.55 98.1 85.42 0 55.39-33.65 86.97-98.1 86.97h-78.17V701.14Zm48.66 38.05v96.29h27.96c32.61 0 50.73-15.53 50.73-48.14 0-32.36-18.12-48.15-50.73-48.15h-27.96ZM2627.9 696.74c58.49 0 94.99 35.46 94.99 90.6 0 55.39-36.5 90.59-94.99 90.59-58.5 0-95.26-35.2-95.26-90.6 0-55.38 36.76-90.59 95.26-90.59Zm0 38.05c-26.66 0-46.08 17.6-46.08 52.55 0 34.68 19.42 52.54 46.08 52.54 26.4 0 46.07-17.86 46.07-52.54 0-34.95-19.67-52.55-46.07-52.55ZM2844.81 697.52c55.91 0 80.5 25.37 84.64 56.17l-46.59 4.91c-3.36-12.94-14.49-24.33-38.56-24.33-21.23 0-31.32 7-31.32 15.28 0 10.09 7.76 12.16 44.26 18.63 59.79 9.58 75.32 22.26 75.32 51.77 0 38.3-34.43 57.2-84.38 57.2-59.27 0-84.9-25.62-88.01-59.53l47.11-4.92c2.85 19.93 18.38 27.44 41.16 27.44 22.77 0 34.68-5.96 34.68-15.53 0-10.36-7.25-12.94-44.78-19.41-58.75-9.06-74.8-23.3-74.8-51.77 0-33.4 32.35-55.91 81.27-55.91ZM695.78 2.88h46.58c23.9 0 37.92 13.79 37.92 36.63v17.28c0 23.05-14.01 36.63-37.92 36.63h-16.49v46.5h-30.09V2.89Zm30.1 24.49v41.56h9.47c10.3 0 14.64-5.35 14.64-14.6V41.97c0-9.26-4.33-14.61-14.64-14.61h-9.48ZM825.9 90.54v49.39h-30.09V2.88h47.4c23.71 0 37.72 14 37.72 36.01v15.64c0 14.61-6.38 25.72-17.3 31.48l20.4 53.92H852.9l-18.34-49.39h-8.65Zm0-63.58v39.71h10.31c10.1 0 14.43-5.14 14.43-14.4v-10.7c0-9.47-4.33-14.61-14.43-14.61h-10.3ZM898.26 2.88h74.4v27.37h-44.92V57h34.62v26.34h-34.63v29.22h45.14v27.37h-74.6V2.88ZM1029.02.2c29.47 0 41.84 16.06 41.84 38.49v7.82h-28.24v-7c0-8.64-3.71-14.61-13.6-14.61-9.28 0-13.4 5.14-13.4 12.35 0 9.26 5.15 13.16 24.53 22.84 22.46 11.73 31.74 21.6 31.74 43 0 24.28-15.26 39.51-44.11 39.51-30.92 0-42.87-16.05-42.87-38.48v-9.67h28.44v7c0 10.29 4.33 16.46 14.84 16.46 9.69 0 14.22-4.94 14.22-12.97 0-9.87-4.33-13.37-24.94-23.66-21.43-10.9-31.32-21.4-31.32-42.6 0-21.8 14.63-38.47 42.87-38.47ZM1088.48 2.88h30.09v137.05h-30.09V2.88ZM1140.6 2.88h44.31c29.06 0 45.13 16.05 45.13 44.24V95.9c0 28.2-16.07 44.04-45.13 44.04h-44.31V2.88Zm30.09 24.9v87.25h12.36c11.34 0 16.29-7.2 16.29-18.11V45.89c0-11.11-4.95-18.11-16.29-18.11h-12.36ZM1249.08 2.88h74.41v27.37h-44.93V57h34.62v26.34h-34.62v29.22h45.13v27.37h-74.61V2.88ZM1341.06 2.88h29.89l33.39 81.08h.41l-.41-81.08h26.17v137.05h-29.26l-34.01-82.1h-.41l.41 82.1h-26.18V2.88ZM1445.58 2.88h85.74v27.78h-27.62v109.27h-30.3V30.66h-27.82V2.88ZM1546.36 2.88h74.41v27.37h-44.93V57h34.62v26.34h-34.62v29.22h45.13v27.37h-74.61V2.88ZM1712.18 2.88h30.3v94.86c0 30.05-13.6 45.48-40.4 45.48-27.61 0-37.51-14.61-37.51-42.39V85.81h26.8v16.46c0 10.9 3.5 15.02 10.51 15.02 6.59 0 10.3-4.32 10.3-15.43V2.88ZM1806.63 0c27.2 0 45.96 16.87 45.96 46.5v49.8c0 29.63-18.76 46.5-45.96 46.5-27.41 0-45.96-16.87-45.96-46.5V46.5c0-29.63 18.55-46.5 45.96-46.5Zm0 26.55c-9.69 0-15.46 6.17-15.46 19.13v51.45c0 12.96 5.77 19.13 15.46 19.13 9.48 0 15.25-6.17 15.25-19.13V45.68c0-12.96-5.77-19.13-15.25-19.13ZM1871.62 2.88h74.41v27.37h-44.94V57h34.63v26.34h-34.63v29.22h45.14v27.37h-74.61V2.88ZM1995.81 2.88h48.02c22.67 0 36.07 11.94 36.07 32.72v9.05c0 15.02-7.01 22.02-20.2 25.52v.41c13.6 3.5 20.82 11.32 20.82 25.93v10.7c0 20.78-13.4 32.72-36.07 32.72h-48.64V2.88Zm29.06 24.28V60.5h12.16c8.86 0 13.81-4.12 13.81-12.55V39.3c0-8.02-4.54-12.14-13.4-12.14h-12.57Zm0 53.92v34.57h12.78c9.07 0 13.6-4.74 13.6-13.17v-8.65c0-8.43-4.74-12.75-14.02-12.75h-12.36ZM2099.48 2.88h30.09v137.05h-30.09V2.88ZM2151.59 2.88h44.32c29.06 0 45.13 16.05 45.13 44.24V95.9c0 28.2-16.07 44.04-45.13 44.04h-44.32V2.88Zm30.09 24.9v87.25h12.37c11.34 0 16.28-7.2 16.28-18.11V45.89c0-11.11-4.94-18.11-16.28-18.11h-12.37ZM2260.08 2.88h74.4v27.37h-44.93V57h34.63v26.34h-34.63v29.22h45.14v27.37h-74.61V2.88ZM2352.06 2.88h29.89l33.39 81.08h.41l-.41-81.08h26.17v137.05h-29.27l-34-82.1h-.42l.42 82.1h-26.18V2.88Z"/></svg>