<svg width="862" height="326" viewBox="0 0 862 326" fill="none" xmlns="http://www.w3.org/2000/svg"><g filter="url(#filter0_d_3613_76)"><path d="M182.203 95.3188V146.848H213.168C225.011 146.848 231.979 141.664 231.979 133.153C231.979 126.732 227.953 122.553 220.909 120.929V120.619C227.101 118.917 231.049 115.822 231.049 108.859C231.049 101.122 224.779 95.3188 212.161 95.3188H182.203ZM196.369 105.919H210.458C214.793 105.919 217.115 107.853 217.115 110.87C217.115 114.275 214.639 116.209 209.994 116.209H196.369V105.919ZM196.369 125.493H209.994C214.871 125.493 217.502 127.428 217.502 130.987C217.502 134.159 215.103 136.248 210.613 136.248H196.369V125.493Z" fill="#F2F4F8"/><path d="M241.452 95.3188V123.714C241.452 139.498 250.045 148.086 267.617 148.086C285.034 148.086 293.628 139.42 293.628 123.714V95.3188H279.77V124.101C279.77 131.915 275.513 136.171 267.926 136.171C260.185 136.171 256.083 131.915 256.083 124.101V95.3188H241.452Z" fill="#F2F4F8"/><path d="M306.189 95.3188V146.848H320.743V95.3188H306.189Z" fill="#F2F4F8"/><path d="M334 95.3188V146.848H376.731V134.623H348.399V95.3188H334Z" fill="#F2F4F8"/><path d="M385.785 95.3188V146.848H409.163C428.438 146.848 438.503 137.409 438.503 120.851C438.503 104.449 428.438 95.3188 409.163 95.3188H385.785ZM400.339 106.692H408.699C418.452 106.692 423.871 111.412 423.871 121.083C423.871 130.832 418.452 135.474 408.699 135.474H400.339V106.692Z" fill="#F2F4F8"/><path d="M449.294 95.3188V146.848H463.847V95.3188H449.294Z" fill="#F2F4F8"/><path d="M477.106 95.3188V146.848H490.421L490.344 115.203H490.499L515.657 146.848H529.979V95.3188H516.664L516.741 126.267H516.587L491.581 95.3188H477.106Z" fill="#F2F4F8"/><path d="M586.149 138.492L588.395 146.848H594.356V118.685H568.113V127.969H580.732C579.957 133.231 575.235 136.867 568.345 136.867C559.753 136.867 554.953 130.832 554.953 121.547C554.953 111.644 559.676 105.841 568.577 105.841C575.622 105.841 578.563 109.246 579.725 113.733L593.892 112.263C592.653 102.282 584.989 94.1582 568.887 94.1582C550.696 94.1582 540.322 105.145 540.322 121.702C540.322 138.646 550.851 148.008 566.642 148.008C576.861 148.008 582.744 143.598 586.149 138.492Z" fill="#F2F4F8"/><path d="M664.106 146.848H679.511L656.984 95.0869H640.806L618.356 146.848H632.833L636.472 138.183H660.468L664.106 146.848ZM648.392 109.323H648.547L656.443 128.356H640.497L648.392 109.323Z" fill="#F2F4F8"/><path d="M42.311 174.338V225.867H73.2754C85.1193 225.867 92.0864 220.683 92.0864 212.173C92.0864 205.751 88.061 201.573 81.0166 199.948V199.638C87.2094 197.936 91.1574 194.841 91.1574 187.878C91.1574 180.141 84.8871 174.338 72.2691 174.338H42.311ZM56.4772 184.938H70.5661C74.9011 184.938 77.2234 186.872 77.2234 189.889C77.2234 193.294 74.7463 195.228 70.1017 195.228H56.4772V184.938ZM56.4772 204.513H70.1017C74.9785 204.513 77.6105 206.447 77.6105 210.006C77.6105 213.177 75.2107 215.266 70.7209 215.266H56.4772V204.513Z" fill="#F2F4F8"/><path d="M102.486 174.337V225.866H148.468V214.647H116.73V204.976H140.805V194.531H116.73V185.556H148.468V174.337H102.486Z" fill="#F2F4F8"/><path d="M155.774 174.337V186.485H174.895V225.866H189.37V186.485H208.413V174.337H155.774Z" fill="#F2F4F8"/><path d="M214.06 174.338V186.485H233.181V225.867H247.655V186.485H266.699V174.338H214.06Z" fill="#F2F4F8"/><path d="M276.055 174.338V225.867H322.037V214.648H290.3V204.977H314.374V194.532H290.3V185.557H322.037V174.338H276.055Z" fill="#F2F4F8"/><path d="M347.457 208.69H357.056L369.366 225.866H385.621L371.842 207.297C378.81 204.976 383.531 199.638 383.531 191.514C383.531 180.372 376.1 174.337 362.785 174.337H332.905V225.866H347.457V208.69ZM347.38 185.247H359.921C366.037 185.247 368.668 187.336 368.668 191.746C368.668 196.156 365.805 198.245 359.689 198.245H347.38V185.247Z" fill="#F2F4F8"/><path d="M452.096 225.867H467.502L444.975 174.106H428.795L406.346 225.867H420.822L424.461 217.201H448.459L452.096 225.867ZM436.382 188.342H436.536L444.432 207.375H428.486L436.382 188.342Z" fill="#F2F4F8"/><path d="M475.479 174.338V225.867H488.485V188.729H488.64L504.508 225.867H515.192L530.983 188.729H531.138V225.867H545.305V174.338H524.404L510.548 207.22H510.314L496.381 174.338H475.479Z" fill="#F2F4F8"/><path d="M558.184 174.338V225.867H604.166V214.648H572.427V204.977H596.502V194.532H572.427V185.557H604.166V174.338H558.184Z" fill="#F2F4F8"/><path d="M629.586 208.69H639.185L651.492 225.866H667.749L653.971 207.297C660.936 204.976 665.659 199.638 665.659 191.514C665.659 180.372 658.228 174.337 644.913 174.337H615.032V225.866H629.586V208.69ZM629.508 185.247H642.048C648.165 185.247 650.796 187.336 650.796 191.746C650.796 196.156 647.933 198.245 641.816 198.245H629.508V185.247Z" fill="#F2F4F8"/><path d="M676.5 174.338V225.867H691.054V174.338H676.5Z" fill="#F2F4F8"/><path d="M729.857 173.177C712.363 173.177 701.757 184.319 701.757 200.102C701.757 215.964 712.131 227.028 729.471 227.028C746.733 227.028 754.242 217.278 755.17 207.607L741.392 206.137C740.152 210.702 736.669 215.266 729.625 215.266C720.568 215.266 716.388 208.69 716.388 200.102C716.388 191.514 720.568 184.938 729.703 184.938C736.591 184.938 740.152 189.502 741.392 194.067L755.17 192.597C754.242 182.849 746.733 173.177 729.857 173.177Z" fill="#F2F4F8"/><path d="M803.999 225.867H819.404L796.877 174.106H780.699L758.249 225.867H772.726L776.364 217.201H800.361L803.999 225.867ZM788.285 188.342H788.44L796.335 207.375H780.389L788.285 188.342Z" fill="#F2F4F8"/><path d="M351.276 259.75V285.049H360.237C364.422 285.049 366.89 282.846 366.89 279.007V277.033C366.89 274.381 365.555 272.895 363.051 272.249V272.177C365.484 271.533 366.775 270.241 366.775 267.463V265.792C366.775 261.961 364.307 259.759 360.132 259.759L351.276 259.75ZM356.636 264.225H358.955C360.583 264.225 361.423 264.986 361.423 266.472V268.065C361.423 269.621 360.538 270.382 358.876 270.382H356.636V264.225ZM356.636 274.177H358.91C360.619 274.177 361.494 274.974 361.494 276.53V278.131C361.531 278.466 361.492 278.804 361.378 279.12C361.263 279.437 361.079 279.723 360.837 279.957C360.595 280.191 360.302 280.366 359.983 280.471C359.663 280.574 359.323 280.603 358.991 280.555H356.636V274.177Z" fill="#F2F4F8"/><path d="M370.835 259.75V276.999C370.835 282.58 373.233 285.579 379 285.579C384.432 285.579 386.963 282.465 386.963 276.999V259.75H381.654V277.221C381.654 279.342 380.814 280.6 379 280.6C377.187 280.6 376.347 279.342 376.347 277.221V259.75H370.835Z" fill="#F2F4F8"/><path d="M391.591 259.75V285.049H397.139V259.75H391.591Z" fill="#F2F4F8"/><path d="M401.922 259.75V285.049H414.794V279.918H407.469V259.75H401.922Z" fill="#F2F4F8"/><path d="M418.292 259.75V285.049H426.457C431.819 285.049 434.774 282.12 434.774 276.918V267.924C434.774 262.722 431.819 259.759 426.457 259.759L418.292 259.75ZM423.839 264.34H426.122C428.21 264.34 429.121 265.632 429.121 267.685V277.105C429.121 279.114 428.236 280.448 426.122 280.448H423.839V264.34Z" fill="#F2F4F8"/><path d="M438.193 279.006V285.047H443.049V279.006H438.193Z" fill="#F2F4F8"/><path d="M454.777 259.23C449.922 259.23 446.462 262.379 446.462 267.659V277.265C446.462 282.503 449.312 285.545 453.539 285.545C454.83 285.588 456.102 285.232 457.183 284.525C458.262 283.817 459.098 282.791 459.572 281.591L460.37 285.05H463.023V271.72H455.061V275.559H457.714V277.442C457.714 279.646 456.573 280.857 454.945 280.857C453.318 280.857 452.168 279.61 452.168 277.478V267.465C452.168 265.378 453.194 264.131 455.016 264.131C456.839 264.131 457.714 265.263 457.714 267.544V268.757H462.881V267.128C462.793 261.848 459.864 259.23 454.777 259.23Z" fill="#F2F4F8"/><path d="M475.348 259.23C470.296 259.23 466.881 262.343 466.881 267.81V277.001C466.881 282.467 470.296 285.581 475.348 285.581C480.399 285.581 483.823 282.467 483.823 277.001V267.81C483.857 262.343 480.399 259.23 475.348 259.23ZM475.348 264.131C477.116 264.131 478.161 265.263 478.161 267.668V277.16C478.161 279.548 477.099 280.697 475.348 280.697C473.596 280.697 472.498 279.557 472.498 277.16V267.659C472.534 265.263 473.577 264.174 475.348 264.174V264.131Z" fill="#F2F4F8"/><path d="M486.16 259.75L492.353 285.189H498.085L504.277 259.75H498.846L495.467 276.91H495.386L491.937 259.75H486.16Z" fill="#F2F4F8"/><path d="M511.779 266.235H821.144" stroke="#F2F4F8" stroke-width="4.47577"/><path d="M511.779 273.965H821.144" stroke="#F2F4F8" stroke-width="4.47577"/><path d="M511.779 280.836H821.144" stroke="#F2F4F8" stroke-width="4.47577"/><path d="M343.346 266.235H42.5742" stroke="#F2F4F8" stroke-width="4.47577"/><path d="M343.346 273.965H42.5742" stroke="#F2F4F8" stroke-width="4.47577"/><path d="M343.346 280.836H42.5742" stroke="#F2F4F8" stroke-width="4.47577"/><path d="M267.724 47.2148H40.856" stroke="#F2F4F8" stroke-width="4.47577"/><path d="M267.724 54.0864L40.856 54.0864" stroke="#F2F4F8" stroke-width="4.47577"/><path d="M267.724 60.9575H40.856" stroke="#F2F4F8" stroke-width="4.47577"/><path d="M587.402 47.2148H814.27" stroke="#F2F4F8" stroke-width="4.47577"/><path d="M587.402 54.0864H814.27" stroke="#F2F4F8" stroke-width="4.47577"/><path d="M587.402 60.9575H814.27" stroke="#F2F4F8" stroke-width="4.47577"/><path d="M276.318 40.8711V65.9714H281.823V57.4538H284.839C289.213 57.4538 291.778 54.9664 291.778 50.7454V47.5796C291.778 43.3962 289.213 40.8711 284.839 40.8711H276.318ZM281.823 45.356H283.557C285.442 45.356 286.235 46.3359 286.235 48.0318V50.2931C286.235 51.9891 285.442 52.969 283.557 52.969H281.823V45.356Z" fill="#F2F4F8"/><path d="M300.126 56.9267H301.709L305.065 65.9719H310.759L307.026 56.0976C309.024 55.0423 310.194 53.0071 310.194 50.3313V47.467C310.194 43.4344 307.63 40.8716 303.293 40.8716H294.619V65.9719H300.126V56.9267ZM300.126 45.2811H302.011C303.859 45.2811 304.649 46.2233 304.649 47.9569V49.9167C304.649 51.6127 303.859 52.5549 302.011 52.5549H300.126V45.2811Z" fill="#F2F4F8"/><path d="M313.362 40.8716V65.9719H327.012V60.9593H318.754V55.6076H325.089V50.7835H318.754V45.8841H326.974V40.8716H313.362Z" fill="#F2F4F8"/><path d="M337.285 40.3813C332.119 40.3813 329.441 43.4341 329.441 47.429C329.441 51.3109 331.251 53.233 335.173 55.2304C338.944 57.1149 339.736 57.7555 339.736 59.5645C339.736 61.0345 338.906 61.9389 337.134 61.9389C335.211 61.9389 334.418 60.8082 334.418 58.9238V57.6425H329.216V59.4139C329.216 63.5218 331.402 66.4615 337.058 66.4615C342.338 66.4615 345.128 63.6725 345.128 59.2254C345.128 55.3058 343.431 53.4968 339.32 51.3486C335.776 49.5772 334.834 48.8612 334.834 47.1652C334.834 45.8461 335.587 44.9039 337.285 44.9039C339.095 44.9039 339.774 45.9969 339.774 47.5798V48.8612H344.938V47.429C344.938 43.321 342.677 40.3813 337.285 40.3813Z" fill="#F2F4F8"/><path d="M348.164 40.8711V65.9714H353.669V40.8711H348.164Z" fill="#F2F4F8"/><path d="M357.697 40.8711V65.9714H365.804C371.122 65.9714 374.063 63.0693 374.063 57.9061V48.974C374.063 43.8108 371.122 40.8711 365.804 40.8711H357.697ZM363.202 45.4313H365.466C367.539 45.4313 368.444 46.7127 368.444 48.7479V58.0946C368.444 60.092 367.539 61.4112 365.466 61.4112H363.202V45.4313Z" fill="#F2F4F8"/><path d="M377.547 40.8716V65.9719H391.197V60.9593H382.939V55.6076H389.274V50.7835H382.939V45.8841H391.159V40.8716H377.547Z" fill="#F2F4F8"/><path d="M394.376 40.8716V65.9719H399.164L399.089 50.9343H399.164L405.386 65.9719H410.741V40.8716H405.951L406.027 55.7207H405.951L399.843 40.8716H394.376Z" fill="#F2F4F8"/><path d="M413.496 40.8711V45.959H418.586V65.9714H424.129V45.959H429.182V40.8711H413.496Z" fill="#F2F4F8"/><path d="M445.443 40.8711V58.999C445.443 61.0343 444.764 61.8257 443.558 61.8257C442.276 61.8257 441.635 61.0719 441.635 59.0744V56.0594H436.733V58.8106C436.733 63.8985 438.543 66.5744 443.596 66.5744C448.497 66.5744 450.986 63.7477 450.986 58.2452V40.8711H445.443Z" fill="#F2F4F8"/><path d="M462.723 40.3438C457.71 40.3438 454.315 43.4342 454.315 48.8613V57.9818C454.315 63.4089 457.71 66.4992 462.723 66.4992C467.702 66.4992 471.133 63.4089 471.133 57.9818V48.8613C471.133 43.4342 467.702 40.3438 462.723 40.3438ZM462.723 45.2055C464.459 45.2055 465.514 46.3362 465.514 48.7105V58.1325C465.514 60.5068 464.459 61.6375 462.723 61.6375C460.951 61.6375 459.896 60.5068 459.896 58.1325V48.7105C459.896 46.3362 460.951 45.2055 462.723 45.2055Z" fill="#F2F4F8"/><path d="M474.614 40.8716V65.9719H488.264V60.9593H480.005V55.6076H486.34V50.7835H480.005V45.8841H488.226V40.8716H474.614Z" fill="#F2F4F8"/><path d="M497.333 40.8711V65.9714H506.231C510.38 65.9714 512.831 63.7855 512.831 59.979V58.0192C512.831 55.3433 511.511 53.9112 509.022 53.2705V53.1951C511.435 52.5544 512.718 51.273 512.718 48.5218V46.8635C512.718 43.057 510.267 40.8711 506.118 40.8711H497.333ZM502.649 45.3183H504.949C506.571 45.3183 507.4 46.0721 507.4 47.5419V49.1248C507.4 50.67 506.496 51.4238 504.873 51.4238H502.649V45.3183ZM502.649 55.1926H504.911C506.609 55.1926 507.476 55.984 507.476 57.5293V59.112C507.476 60.6574 506.647 61.5242 504.987 61.5242H502.649V55.1926Z" fill="#F2F4F8"/><path d="M516.3 40.8716V65.9719H521.805V40.8716H516.3Z" fill="#F2F4F8"/><path d="M525.836 40.8711V65.9714H533.943C539.259 65.9714 542.201 63.0693 542.201 57.9061V48.974C542.201 43.8108 539.259 40.8711 533.943 40.8711H525.836ZM531.341 45.4313H533.603C535.677 45.4313 536.583 46.7127 536.583 48.7479V58.0946C536.583 60.092 535.677 61.4112 533.603 61.4112H531.341V45.4313Z" fill="#F2F4F8"/><path d="M545.683 40.8716V65.9719H559.333V60.9593H551.074V55.6076H557.409V50.7835H551.074V45.8841H559.295V40.8716H545.683Z" fill="#F2F4F8"/><path d="M562.512 40.8711V65.9714H567.3L567.225 50.9338H567.3L573.522 65.9714H578.876V40.8711H574.088L574.163 55.7202H574.088L567.979 40.8711H562.512Z" fill="#F2F4F8"/></g><defs><filter id="filter0_d_3613_76" x="0.855957" y="0.34375" width="860.288" height="325.237" filterUnits="userSpaceOnUse" color-interpolation-filters="sRGB"><feFlood flood-opacity="0" result="BackgroundImageFix"/><feColorMatrix in="SourceAlpha" type="matrix" values="0 0 0 0 0 0 0 0 0 0 0 0 0 0 0 0 0 0 127 0" result="hardAlpha"/><feOffset/><feGaussianBlur stdDeviation="20"/><feComposite in2="hardAlpha" operator="out"/><feColorMatrix type="matrix" values="0 0 0 0 0 0 0 0 0 0 0 0 0 0 0 0 0 0 0.5 0"/><feBlend mode="normal" in2="BackgroundImageFix" result="effect1_dropShadow_3613_76"/><feBlend mode="normal" in="SourceGraphic" in2="effect1_dropShadow_3613_76" result="shape"/></filter></defs></svg>