<svg width="1211" height="381" viewBox="0 0 1211 381" fill="none" xmlns="http://www.w3.org/2000/svg"><path d="M219.339 86.5346V166.394H267.392C285.773 166.394 296.584 158.36 296.584 145.17C296.584 135.217 290.338 128.742 279.406 126.224V125.745C289.016 123.107 295.143 118.31 295.143 107.519C295.143 95.5278 285.412 86.5346 265.831 86.5346H219.339ZM241.324 102.962H263.188C269.915 102.962 273.519 105.96 273.519 110.636C273.519 115.912 269.675 118.91 262.467 118.91H241.324V102.962ZM241.324 133.299H262.467C270.035 133.299 274.12 136.297 274.12 141.812C274.12 146.729 270.396 149.966 263.428 149.966H241.324V133.299Z" fill="#164484"/><path d="M311.287 86.5346V130.541C311.287 155.002 324.622 168.312 351.892 168.312C378.922 168.312 392.257 154.882 392.257 130.541V86.5346H370.753V131.141C370.753 143.251 364.146 149.846 352.373 149.846C340.359 149.846 333.992 143.251 333.992 131.141V86.5346H311.287Z" fill="#164484"/><path d="M411.753 86.5346V166.394H434.337V86.5346H411.753Z" fill="#164484"/><path d="M454.911 86.5346V166.394H521.224V147.448H477.256V86.5346H454.911Z" fill="#164484"/><path d="M535.273 86.5346V166.394H571.553C601.466 166.394 617.083 151.765 617.083 126.104C617.083 100.684 601.466 86.5346 571.553 86.5346H535.273ZM557.858 104.161H570.832C585.969 104.161 594.378 111.476 594.378 126.464C594.378 141.573 585.969 148.767 570.832 148.767H557.858V104.161Z" fill="#164484"/><path d="M633.833 86.5346V166.394H656.418V86.5346H633.833Z" fill="#164484"/><path d="M676.991 86.5346V166.394H697.654L697.534 117.351H697.774L736.817 166.394H759.041V86.5346H738.379L738.499 134.498H738.259L699.456 86.5346H676.991Z" fill="#164484"/><path d="M846.213 153.444L849.697 166.394H858.947V122.747H818.222V137.136H837.804C836.603 145.29 829.275 150.925 818.583 150.925C805.248 150.925 797.8 141.573 797.8 127.184C797.8 111.835 805.128 102.842 818.943 102.842C829.875 102.842 834.44 108.118 836.242 115.073L858.226 112.795C856.304 97.3264 844.411 84.736 819.424 84.736C791.193 84.736 775.095 101.763 775.095 127.423C775.095 153.683 791.433 168.192 815.94 168.192C831.797 168.192 840.927 161.357 846.213 153.444Z" fill="#164484"/><path d="M967.194 166.394H991.1L956.142 86.1749H931.034L896.196 166.394H918.66L924.307 152.964H961.548L967.194 166.394ZM942.807 108.238H943.047L955.301 137.736H930.554L942.807 108.238Z" fill="#164484"/><path d="M2.24524 208.466V288.325H50.2981C68.6783 288.325 79.4902 280.291 79.4902 267.101C79.4902 257.149 73.2433 250.673 62.3113 248.155V247.676C71.9219 245.038 78.0486 240.241 78.0486 229.45C78.0486 217.459 68.3179 208.466 48.7364 208.466H2.24524ZM24.2294 224.893H46.0935C52.8209 224.893 56.4248 227.891 56.4248 232.567C56.4248 237.843 52.5806 240.841 45.3727 240.841H24.2294V224.893ZM24.2294 255.23H45.3727C52.941 255.23 57.0255 258.228 57.0255 263.743C57.0255 268.66 53.3014 271.897 46.3337 271.897H24.2294V255.23Z" fill="#164484"/><path d="M95.6292 208.466V288.325H166.988V270.938H117.733V255.949H155.095V239.762H117.733V225.852H166.988V208.466H95.6292Z" fill="#164484"/><path d="M178.325 208.466V227.291H207.998V288.325H230.462V227.291H260.015V208.466H178.325Z" fill="#164484"/><path d="M268.776 208.466V227.291H298.449V288.325H320.913V227.291H350.466V208.466H268.776Z" fill="#164484"/><path d="M364.988 208.466V288.325H436.346V270.938H387.092V255.949H424.453V239.762H387.092V225.852H436.346V208.466H364.988Z" fill="#164484"/><path d="M475.795 261.705H490.691L509.792 288.325H535.02L513.636 259.547C524.448 255.949 531.776 247.676 531.776 235.085C531.776 217.819 520.244 208.466 499.581 208.466H453.21V288.325H475.795V261.705ZM475.675 225.373H495.136C504.626 225.373 508.711 228.61 508.711 235.445C508.711 242.28 504.266 245.517 494.776 245.517H475.675V225.373Z" fill="#164484"/><path d="M638.18 288.325H662.086L627.127 208.106H602.02L567.181 288.325H589.646L595.292 274.895H632.533L638.18 288.325ZM613.793 230.169H614.033L626.286 259.667H601.539L613.793 230.169Z" fill="#164484"/><path d="M674.469 208.466V288.325H694.651V230.769H694.891L719.518 288.325H736.097L760.604 230.769H760.844V288.325H782.828V208.466H750.392L728.889 259.427H728.528L706.905 208.466H674.469Z" fill="#164484"/><path d="M802.813 208.466V288.325H874.172V270.938H824.917V255.949H862.279V239.762H824.917V225.852H874.172V208.466H802.813Z" fill="#164484"/><path d="M913.62 261.705H928.516L947.617 288.325H972.845L951.462 259.547C962.273 255.949 969.601 247.676 969.601 235.085C969.601 217.819 958.069 208.466 937.406 208.466H891.035V288.325H913.62V261.705ZM913.5 225.373H932.961C942.452 225.373 946.536 228.61 946.536 235.445C946.536 242.28 942.091 245.517 932.601 245.517H913.5V225.373Z" fill="#164484"/><path d="M986.427 208.466V288.325H1009.01V208.466H986.427Z" fill="#164484"/><path d="M1069.23 206.667C1042.08 206.667 1025.62 223.934 1025.62 248.395C1025.62 272.976 1041.72 290.123 1068.63 290.123C1095.42 290.123 1107.07 275.015 1108.51 260.026L1087.13 257.748C1085.21 264.823 1079.8 271.897 1068.87 271.897C1054.81 271.897 1048.33 261.705 1048.33 248.395C1048.33 235.085 1054.81 224.893 1068.99 224.893C1079.68 224.893 1085.21 231.968 1087.13 239.042L1108.51 236.764C1107.07 221.656 1095.42 206.667 1069.23 206.667Z" fill="#164484"/><path d="M1184.29 288.325H1208.19L1173.24 208.106H1148.13L1113.29 288.325H1135.75L1141.4 274.895H1178.64L1184.29 288.325ZM1159.9 230.169H1160.14L1172.4 259.667H1147.65L1159.9 230.169Z" fill="#164484"/><path d="M481.482 340.629V379.911H495.654C502.271 379.911 506.174 376.491 506.174 370.53V367.467C506.174 363.346 504.061 361.039 500.102 360.036V359.926C503.949 358.924 505.992 356.918 505.992 352.606V350.01C505.992 344.063 502.089 340.643 495.486 340.643L481.482 340.629ZM489.96 347.579H493.625C496.199 347.579 497.528 348.76 497.528 351.067V353.54C497.528 355.957 496.129 357.138 493.499 357.138H489.96V347.579ZM489.96 363.031H493.555C496.255 363.031 497.64 364.267 497.64 366.684V369.17C497.699 369.689 497.636 370.215 497.456 370.706C497.276 371.198 496.983 371.642 496.601 372.005C496.219 372.369 495.757 372.641 495.251 372.802C494.745 372.963 494.208 373.008 493.681 372.933H489.96V363.031Z" fill="#164484"/><path d="M512.347 340.629V367.236C512.347 375.846 516.017 380.472 524.848 380.472C533.164 380.472 537.038 375.669 537.038 367.236V340.629H528.911V367.577C528.911 370.852 527.625 372.79 524.848 372.79C522.072 372.79 520.785 370.852 520.785 367.577V340.629H512.347Z" fill="#164484"/><path d="M544.332 340.629V379.911H553.31V340.629H544.332Z" fill="#164484"/><path d="M560.046 340.629V379.911H580.248V371.944H568.751V340.629H560.046Z" fill="#164484"/><path d="M585.859 340.629V379.911H598.37C606.584 379.911 611.111 375.364 611.111 367.288V353.32C611.111 345.244 606.584 340.643 598.37 340.643L585.859 340.629ZM594.358 347.757H597.855C601.054 347.757 602.45 349.763 602.45 352.949V367.577C602.45 370.695 601.094 372.769 597.855 372.769H594.358V347.757Z" fill="#164484"/><path d="M616.724 370.371V379.91H624.58V370.371H616.724Z" fill="#164484"/><path d="M642.593 339.507C635.023 339.507 629.631 344.408 629.631 352.628V367.58C629.631 375.73 634.071 380.466 640.662 380.466C642.674 380.534 644.658 379.978 646.341 378.877C648.025 377.775 649.326 376.181 650.067 374.312L651.308 379.695H655.445V358.947H643.034V364.922H647.171V367.855C647.171 371.283 645.392 373.169 642.855 373.169C640.318 373.169 638.525 371.228 638.525 367.91V352.325C638.525 349.075 640.125 347.134 642.965 347.134C645.806 347.134 647.171 348.896 647.171 352.449V354.335H655.224V351.801C655.086 343.582 650.522 339.507 642.593 339.507Z" fill="#164484"/><path d="M674.236 339.507C666.371 339.507 661.055 344.347 661.055 352.845V367.133C661.055 375.631 666.371 380.472 674.236 380.472C682.1 380.472 687.43 375.631 687.43 367.133V352.845C687.485 344.347 682.1 339.507 674.236 339.507ZM674.236 347.125C676.99 347.125 678.615 348.885 678.615 352.625V367.381C678.615 371.093 676.962 372.881 674.236 372.881C671.509 372.881 669.801 371.107 669.801 367.381V352.612C669.856 348.885 671.481 347.194 674.236 347.194V347.125Z" fill="#164484"/><path d="M691.358 340.629L700.949 379.911H709.827L719.417 340.629H711.005L705.771 367.126H705.648L700.305 340.629H691.358Z" fill="#164484"/><path fill-rule="evenodd" clip-rule="evenodd" d="M1211 347.924H730.641V353.536H1211V347.924Z" fill="#FF0031"/><path fill-rule="evenodd" clip-rule="evenodd" d="M1211 364.575L730.641 364.575V359.525L1211 359.525V364.575Z" fill="#FF0031"/><path fill-rule="evenodd" clip-rule="evenodd" d="M1211 376.302L730.641 376.302V370.69L1211 370.69V376.302Z" fill="#FF0031"/><path fill-rule="evenodd" clip-rule="evenodd" d="M2.80505 347.924H469.696V353.536H2.80505V347.924Z" fill="#FF0031"/><path fill-rule="evenodd" clip-rule="evenodd" d="M2.80591 359.476L469.697 359.476L469.697 364.526L2.80591 364.526L2.80591 359.476Z" fill="#FF0031"/><path fill-rule="evenodd" clip-rule="evenodd" d="M2.80591 370.183L469.697 370.183L469.697 375.795L2.80591 375.795L2.80591 370.183Z" fill="#FF0031"/><path fill-rule="evenodd" clip-rule="evenodd" d="M0 7.8557H352.413V12.9062H0V7.8557Z" fill="#FF0031"/><path fill-rule="evenodd" clip-rule="evenodd" d="M0 18.5187L352.413 18.5188L352.413 23.5692L-4.41527e-07 23.5692L0 18.5187Z" fill="#FF0031"/><path fill-rule="evenodd" clip-rule="evenodd" d="M0 29.1799L352.413 29.1799L352.413 34.7916L-4.90585e-07 34.7915L0 29.1799Z" fill="#FF0031"/><path fill-rule="evenodd" clip-rule="evenodd" d="M1200.34 7.8557H848.486V12.9062H1200.34V7.8557Z" fill="#FF0031"/><path fill-rule="evenodd" clip-rule="evenodd" d="M1200.34 23.5684L848.486 23.5684V18.5179L1200.34 18.5179V23.5684Z" fill="#FF0031"/><path fill-rule="evenodd" clip-rule="evenodd" d="M1200.34 34.7922L848.486 34.7922V29.1805L1200.34 29.1805V34.7922Z" fill="#FF0031"/><path d="M365.319 0.812725V39.4752H373.865V26.3555H378.548C385.339 26.3555 389.319 22.5241 389.319 16.0223V11.1459C389.319 4.70219 385.339 0.812725 378.548 0.812725H365.319ZM373.865 7.72089H376.558C379.485 7.72089 380.714 9.23024 380.714 11.8426V15.3257C380.714 17.938 379.485 19.4474 376.558 19.4474H373.865V7.72089Z" fill="#164484"/><path d="M402.277 25.5428H404.735L409.945 39.4752H418.784L412.989 24.2657C416.092 22.6402 417.906 19.5054 417.906 15.3837V10.9718C417.906 4.76025 413.926 0.812725 407.194 0.812725H393.73V39.4752H402.277V25.5428ZM402.277 7.60479H405.204C408.072 7.60479 409.301 9.05608 409.301 11.7265V14.7452C409.301 17.3575 408.072 18.8088 405.204 18.8088H402.277V7.60479Z" fill="#164484"/><path d="M422.828 0.812725V39.4752H444.018V31.7543H431.198V23.511H441.033V16.0803H431.198V8.53361H443.96V0.812725H422.828Z" fill="#164484"/><path d="M459.964 0.0580511C451.945 0.0580511 447.788 4.76025 447.788 10.9137C447.788 16.8931 450.598 19.8537 456.686 22.9305C462.54 25.8331 463.769 26.8199 463.769 29.6064C463.769 31.8704 462.481 33.2637 459.73 33.2637C456.745 33.2637 455.515 31.5221 455.515 28.6195V26.6458H447.437V29.3742C447.437 35.7019 450.832 40.2299 459.613 40.2299C467.808 40.2299 472.14 35.9341 472.14 29.084C472.14 23.0466 469.506 20.2601 463.125 16.9511C457.623 14.2227 456.159 13.1197 456.159 10.5074C456.159 8.47556 457.33 7.02427 459.964 7.02427C462.774 7.02427 463.828 8.70777 463.828 11.1459V13.1197H471.847V10.9137C471.847 4.58609 468.335 0.0580511 459.964 0.0580511Z" fill="#164484"/><path d="M476.853 0.812725V39.4752H485.4V0.812725H476.853Z" fill="#164484"/><path d="M491.655 0.812725V39.4752H504.241C512.494 39.4752 517.06 35.0052 517.06 27.0521V13.2939C517.06 5.34077 512.494 0.812725 504.241 0.812725H491.655ZM500.202 7.837H503.714C506.933 7.837 508.338 9.81075 508.338 12.9456V27.3424C508.338 30.4191 506.933 32.451 503.714 32.451H500.202V7.837Z" fill="#164484"/><path d="M522.467 0.812725V39.4752H543.658V31.7543H530.838V23.511H540.673V16.0803H530.838V8.53361H543.599V0.812725H522.467Z" fill="#164484"/><path d="M548.592 0.812725V39.4752H556.026L555.909 16.3126H556.026L565.685 39.4752H573.997V0.812725H566.563L566.68 23.6851H566.563L557.08 0.812725H548.592Z" fill="#164484"/><path d="M578.276 0.812725V8.64972H586.178V39.4752H594.783V8.64972H602.627V0.812725H578.276Z" fill="#164484"/><path d="M627.872 0.812725V28.7356C627.872 31.8704 626.819 33.0895 624.945 33.0895C622.955 33.0895 621.96 31.9285 621.96 28.8517V24.2076H614.35V28.4454C614.35 36.2824 617.16 40.4041 625.004 40.4041C632.614 40.4041 636.477 36.0502 636.477 27.5746V0.812725H627.872Z" fill="#164484"/><path d="M654.697 0C646.911 0 641.643 4.76024 641.643 13.1197V27.1682C641.643 35.5277 646.911 40.288 654.697 40.288C662.424 40.288 667.751 35.5277 667.751 27.1682V13.1197C667.751 4.76024 662.424 0 654.697 0ZM654.697 7.48868C657.389 7.48868 659.028 9.23024 659.028 12.8875V27.4005C659.028 31.0577 657.389 32.7993 654.697 32.7993C651.945 32.7993 650.306 31.0577 650.306 27.4005V12.8875C650.306 9.23024 651.945 7.48868 654.697 7.48868Z" fill="#164484"/><path d="M673.156 0.812725V39.4752H694.347V31.7543H681.527V23.511H691.361V16.0803H681.527V8.53361H694.288V0.812725H673.156Z" fill="#164484"/><path d="M708.427 0.812725V39.4752H722.242C728.681 39.4752 732.486 36.1082 732.486 30.245V27.2263C732.486 23.1046 730.438 20.8987 726.574 19.9118V19.7957C730.321 18.8088 732.311 16.835 732.311 12.5972V10.043C732.311 4.17973 728.506 0.812725 722.067 0.812725H708.427ZM716.681 7.66284H720.252C722.769 7.66284 724.057 8.82388 724.057 11.0879V13.5261C724.057 15.9062 722.652 17.0672 720.135 17.0672H716.681V7.66284ZM716.681 22.8724H720.194C722.828 22.8724 724.174 24.0915 724.174 26.4716V28.9098C724.174 31.2899 722.886 32.6251 720.311 32.6251H716.681V22.8724Z" fill="#164484"/><path d="M737.872 0.812725V39.4752H746.418V0.812725H737.872Z" fill="#164484"/><path d="M752.674 0.812725V39.4752H765.259C773.513 39.4752 778.079 35.0052 778.079 27.0521V13.2939C778.079 5.34077 773.513 0.812725 765.259 0.812725H752.674ZM761.22 7.837H764.732C767.952 7.837 769.357 9.81075 769.357 12.9456V27.3424C769.357 30.4191 767.952 32.451 764.732 32.451H761.22V7.837Z" fill="#164484"/><path d="M783.486 0.812725V39.4752H804.677V31.7543H791.857V23.511H801.691V16.0803H791.857V8.53361H804.618V0.812725H783.486Z" fill="#164484"/><path d="M809.611 0.812725V39.4752H817.045L816.928 16.3126H817.045L826.704 39.4752H835.016V0.812725H827.582L827.699 23.6851H827.582L818.099 0.812725H809.611Z" fill="#164484"/></svg>