<svg width="2739" height="837" viewBox="0 0 2739 837" fill="none" xmlns="http://www.w3.org/2000/svg"><path fill-rule="evenodd" clip-rule="evenodd" d="M2739 771.488H0.000976562V783.58H2739V771.488Z" fill="#F2F4F8"/><path fill-rule="evenodd" clip-rule="evenodd" d="M2739 809.274L0.000976562 809.274V798.693L2739 798.693V809.274Z" fill="#F2F4F8"/><path fill-rule="evenodd" clip-rule="evenodd" d="M2739 836.482L0.000976562 836.482V824.389L2739 824.389V836.482Z" fill="#F2F4F8"/><path fill-rule="evenodd" clip-rule="evenodd" d="M2739 0.239929H0.00012207V11.6857H2739V0.239929Z" fill="#F2F4F8"/><path fill-rule="evenodd" clip-rule="evenodd" d="M2739 35.8488L0.00366211 35.8488V24.403L2739 24.403V35.8488Z" fill="#F2F4F8"/><path fill-rule="evenodd" clip-rule="evenodd" d="M2739 61.2858L0.00366211 61.2858V48.5683L2739 48.5683V61.2858Z" fill="#F2F4F8"/><path d="M308.621 189.462V369.31H359.389V189.462H308.621Z" fill="#F2F4F8"/><path d="M413.737 189.462V369.31H460.184L459.914 258.863H460.454L548.218 369.31H598.175V189.462H551.728L551.998 297.479H551.458L464.235 189.462H413.737Z" fill="#F2F4F8"/><path d="M634.262 189.462L712.844 370.121H764.422L843.275 189.462H789.536L740.388 313.142H739.848L690.971 189.462H634.262Z" fill="#F2F4F8"/><path d="M879.57 189.462V369.31H1039.97V330.154H929.258V296.399H1013.24V259.943H929.258V228.618H1039.97V189.462H879.57Z" fill="#F2F4F8"/><path d="M1161.68 185.682C1110.64 185.682 1076.88 209.175 1076.88 244.011C1076.88 273.716 1093.63 288.568 1154.93 298.019C1194.08 304.77 1201.64 307.471 1201.64 318.272C1201.64 328.264 1189.22 334.475 1165.46 334.475C1141.69 334.475 1125.49 326.644 1122.52 305.851L1073.37 310.981C1076.61 346.357 1103.35 373.091 1165.19 373.091C1217.31 373.091 1253.22 353.378 1253.22 313.412C1253.22 282.627 1237.02 269.395 1174.64 259.403C1136.56 252.652 1128.46 250.492 1128.46 239.96C1128.46 231.319 1138.99 224.028 1161.14 224.028C1186.25 224.028 1197.86 235.91 1201.37 249.412L1249.98 244.281C1245.66 212.146 1220.01 185.682 1161.68 185.682Z" fill="#F2F4F8"/><path d="M1277.34 189.462V231.859H1344.04V369.31H1394.54V231.859H1460.97V189.462H1277.34Z" fill="#F2F4F8"/><path d="M1503.06 189.462V369.31H1553.83V189.462H1503.06Z" fill="#F2F4F8"/><path d="M1608.18 189.462V369.31H1654.62L1654.35 258.863H1654.89L1742.66 369.31H1792.62V189.462H1746.17L1746.44 297.479H1745.9L1658.68 189.462H1608.18Z" fill="#F2F4F8"/><path d="M1996.67 340.146L2004.5 369.31H2025.29V271.015H1933.75V303.42H1977.77C1975.07 321.783 1958.59 334.475 1934.56 334.475C1904.58 334.475 1887.84 313.412 1887.84 281.007C1887.84 246.441 1904.31 226.188 1935.37 226.188C1959.94 226.188 1970.2 238.07 1974.26 253.732L2023.67 248.602C2019.35 213.766 1992.62 185.412 1936.45 185.412C1872.99 185.412 1836.8 223.758 1836.8 281.547C1836.8 340.686 1873.53 373.361 1928.62 373.361C1964.26 373.361 1984.79 357.969 1996.67 340.146Z" fill="#F2F4F8"/><path d="M2143.59 189.462V369.31H2194.36V189.462H2143.59Z" fill="#F2F4F8"/><path d="M2248.7 189.462V369.31H2295.15L2294.88 258.863H2295.42L2383.19 369.31H2433.14V189.462H2386.7L2386.97 297.479H2386.43L2299.2 189.462H2248.7Z" fill="#F2F4F8"/><path d="M789.03 639.353H842.768L764.186 458.694H707.747L629.435 639.353H679.933L692.625 609.108H776.338L789.03 639.353ZM734.211 508.382H734.751L762.296 574.813H706.667L734.211 508.382Z" fill="#F2F4F8"/><path d="M878.705 459.505V639.353H924.072V509.732H924.612L979.971 639.353H1017.24L1072.33 509.732H1072.87V639.353H1122.28V459.505H1049.37L1001.03 574.272H1000.22L951.616 459.505H878.705Z" fill="#F2F4F8"/><path d="M1175.31 459.505V639.353H1335.71V600.197H1225V566.441H1308.98V529.986H1225V498.661H1335.71V459.505H1175.31Z" fill="#F2F4F8"/><path d="M1432.49 579.403H1465.97L1508.91 639.353H1565.62L1517.55 574.543C1541.86 566.441 1558.33 547.808 1558.33 519.454C1558.33 480.568 1532.41 459.505 1485.96 459.505H1381.72V639.353H1432.49V579.403ZM1432.22 497.581H1475.97C1497.3 497.581 1506.48 504.872 1506.48 520.264C1506.48 535.656 1496.49 542.948 1475.16 542.948H1432.22V497.581Z" fill="#F2F4F8"/><path d="M1604.25 459.505V639.353H1655.02V459.505H1604.25Z" fill="#F2F4F8"/><path d="M1798.48 455.454C1737.45 455.454 1700.46 494.34 1700.46 549.429C1700.46 604.787 1736.64 643.403 1797.13 643.403C1857.35 643.403 1883.55 609.378 1886.79 575.623L1838.72 570.492C1834.4 586.424 1822.25 602.357 1797.67 602.357C1766.08 602.357 1751.5 579.403 1751.5 549.429C1751.5 519.454 1766.08 496.5 1797.94 496.5C1821.98 496.5 1834.4 512.433 1838.72 528.365L1886.79 523.235C1883.55 489.209 1857.35 455.454 1798.48 455.454Z" fill="#F2F4F8"/><path d="M2065.22 639.353H2118.96L2040.38 458.694H1983.94L1905.63 639.353H1956.12L1968.82 609.108H2052.53L2065.22 639.353ZM2010.4 508.382H2010.94L2038.49 574.813H1982.86L2010.4 508.382Z" fill="#F2F4F8"/></svg>