<svg width="2739" height="1116" viewBox="0 0 2739 1116" fill="none" xmlns="http://www.w3.org/2000/svg"><path fill-rule="evenodd" clip-rule="evenodd" d="M1072 1036H3.70302e-05V1049H1072V1036Z" fill="#F2F4F8"/><path fill-rule="evenodd" clip-rule="evenodd" d="M2739 1036H1667V1049H2739V1036Z" fill="#F2F4F8"/><path fill-rule="evenodd" clip-rule="evenodd" d="M1072 1075L-8.22436e-06 1075V1063L1072 1063V1075Z" fill="#F2F4F8"/><path fill-rule="evenodd" clip-rule="evenodd" d="M2739 1075L1667 1075V1063L2739 1063V1075Z" fill="#F2F4F8"/><path fill-rule="evenodd" clip-rule="evenodd" d="M1072 1102L-8.22436e-06 1102V1088L1072 1088V1102Z" fill="#F2F4F8"/><path fill-rule="evenodd" clip-rule="evenodd" d="M2739 1102L1667 1102V1088L2739 1088V1102Z" fill="#F2F4F8"/><path fill-rule="evenodd" clip-rule="evenodd" d="M2739 264.918H0.0033382V276.364H2739V264.918Z" fill="#F2F4F8"/><path fill-rule="evenodd" clip-rule="evenodd" d="M2739 300.527L0.0033382 300.527V289.081L2739 289.081V300.527Z" fill="#F2F4F8"/><path fill-rule="evenodd" clip-rule="evenodd" d="M2739 325.963L0.0033382 325.963V313.246L2739 313.246V325.963Z" fill="#F2F4F8"/><path d="M308.619 458.202V638.05H359.387V458.202H308.619Z" fill="#F2F4F8"/><path d="M413.735 458.202V638.05H460.182L459.912 527.603H460.452L548.216 638.05H598.174V458.202H551.727L551.997 566.219H551.457L464.233 458.202H413.735Z" fill="#F2F4F8"/><path d="M634.26 458.202L712.843 638.86H764.421L843.273 458.202H789.535L740.387 581.881H739.847L690.969 458.202H634.26Z" fill="#F2F4F8"/><path d="M879.568 458.202V638.05H1039.97V598.894H929.256V565.138H1013.24V528.683H929.256V497.358H1039.97V458.202H879.568Z" fill="#F2F4F8"/><path d="M1161.68 454.421C1110.64 454.421 1076.88 477.915 1076.88 512.75C1076.88 542.455 1093.63 557.307 1154.92 566.759C1194.08 573.51 1201.64 576.21 1201.64 587.012C1201.64 597.003 1189.22 603.214 1165.46 603.214C1141.69 603.214 1125.49 595.383 1122.52 574.59L1073.37 579.721C1076.61 615.096 1103.35 641.83 1165.19 641.83C1217.3 641.83 1253.22 622.117 1253.22 582.151C1253.22 551.366 1237.02 538.134 1174.64 528.143C1136.56 521.392 1128.46 519.231 1128.46 508.7C1128.46 500.058 1138.99 492.767 1161.14 492.767C1186.25 492.767 1197.86 504.649 1201.37 518.151L1249.98 513.02C1245.66 480.885 1220.01 454.421 1161.68 454.421Z" fill="#F2F4F8"/><path d="M1277.34 458.202V500.598H1344.04V638.05H1394.53V500.598H1460.96V458.202H1277.34Z" fill="#F2F4F8"/><path d="M1503.06 458.202V638.05H1553.83V458.202H1503.06Z" fill="#F2F4F8"/><path d="M1608.18 458.202V638.05H1654.62L1654.35 527.603H1654.89L1742.66 638.05H1792.61V458.202H1746.17L1746.44 566.219H1745.9L1658.67 458.202H1608.18Z" fill="#F2F4F8"/><path d="M1996.67 608.885L2004.5 638.05H2025.29V539.754H1933.75V572.16H1977.76C1975.06 590.522 1958.59 603.214 1934.56 603.214C1904.58 603.214 1887.84 582.151 1887.84 549.746C1887.84 515.181 1904.31 494.927 1935.37 494.927C1959.94 494.927 1970.2 506.809 1974.25 522.472L2023.67 517.341C2019.35 482.506 1992.62 454.151 1936.45 454.151C1872.99 454.151 1836.8 492.497 1836.8 550.286C1836.8 609.425 1873.53 642.1 1928.62 642.1C1964.26 642.1 1984.79 626.708 1996.67 608.885Z" fill="#F2F4F8"/><path d="M2143.59 458.202V638.05H2194.36V458.202H2143.59Z" fill="#F2F4F8"/><path d="M2248.7 458.202V638.05H2295.15L2294.88 527.603H2295.42L2383.18 638.05H2433.14V458.202H2386.69L2386.96 566.219H2386.42L2299.2 458.202H2248.7Z" fill="#F2F4F8"/><path d="M789.028 908.092H842.767L764.184 727.434H707.746L629.433 908.092H679.931L692.623 877.847H776.336L789.028 908.092ZM734.21 777.122H734.75L762.294 843.552H706.665L734.21 777.122Z" fill="#F2F4F8"/><path d="M878.703 728.244V908.092H924.071V778.472H924.611L979.969 908.092H1017.24L1072.32 778.472H1072.86V908.092H1122.28V728.244H1049.37L1001.03 843.012H1000.22L951.615 728.244H878.703Z" fill="#F2F4F8"/><path d="M1175.31 728.244V908.092H1335.71V868.936H1224.99V835.181H1308.98V798.725H1224.99V767.4H1335.71V728.244H1175.31Z" fill="#F2F4F8"/><path d="M1432.49 848.143H1465.97L1508.91 908.092H1565.62L1517.55 843.282C1541.86 835.181 1558.33 816.548 1558.33 788.193C1558.33 749.307 1532.4 728.244 1485.96 728.244H1381.72V908.092H1432.49V848.143ZM1432.22 766.32H1475.96C1497.3 766.32 1506.48 773.611 1506.48 789.003C1506.48 804.396 1496.49 811.687 1475.15 811.687H1432.22V766.32Z" fill="#F2F4F8"/><path d="M1604.25 728.244V908.092H1655.02V728.244H1604.25Z" fill="#F2F4F8"/><path d="M1798.48 724.193C1737.45 724.193 1700.46 763.079 1700.46 818.168C1700.46 873.527 1736.64 912.143 1797.13 912.143C1857.35 912.143 1883.55 878.117 1886.79 844.362L1838.72 839.231C1834.4 855.164 1822.25 871.096 1797.67 871.096C1766.08 871.096 1751.49 848.143 1751.49 818.168C1751.49 788.193 1766.08 765.24 1797.94 765.24C1821.98 765.24 1834.4 781.172 1838.72 797.105L1886.79 791.974C1883.55 757.949 1857.35 724.193 1798.48 724.193Z" fill="#F2F4F8"/><path d="M2065.22 908.092H2118.96L2040.38 727.434H1983.94L1905.63 908.092H1956.12L1968.82 877.847H2052.53L2065.22 908.092ZM2010.4 777.122H2010.94L2038.49 843.552H1982.86L2010.4 777.122Z" fill="#F2F4F8"/><path d="M473.955 3.12451V151.789H506.56V101.341H524.425C550.332 101.341 565.52 86.6088 565.52 61.6082V42.8576C565.52 18.0802 550.332 3.12451 524.425 3.12451H473.955ZM506.56 29.6877H516.831C527.998 29.6877 532.691 35.4915 532.691 45.5363V58.9295C532.691 68.9744 527.998 74.7781 516.831 74.7781H506.56V29.6877Z" fill="#F2F4F8"/><path d="M614.963 98.2163H624.338L644.219 151.789H677.944L655.834 93.3054C667.663 87.0553 674.595 75.0013 674.595 59.1528V42.188C674.595 18.3035 659.407 3.12451 633.724 3.12451H582.348V151.789H614.963V98.2163ZM614.963 29.2412H626.13C637.073 29.2412 641.755 34.8218 641.755 45.0899V56.6973C641.755 66.7422 637.073 72.3227 626.13 72.3227H614.963V29.2412Z" fill="#F2F4F8"/><path d="M693.365 3.12451V151.789H774.211V122.101H725.298V90.4035H762.82V61.8313H725.298V32.8128H773.987V3.12451H693.365Z" fill="#F2F4F8"/><path d="M835.055 0.223389C804.455 0.223389 788.595 18.3042 788.595 41.9655C788.595 64.9572 799.314 76.3414 822.544 88.172C844.878 99.3331 849.571 103.128 849.571 113.842C849.571 122.548 844.654 127.905 834.159 127.905C822.768 127.905 818.075 121.208 818.075 110.047V102.458H787.262V112.95C787.262 137.281 800.21 154.692 833.711 154.692C864.983 154.692 881.504 138.173 881.504 111.834C881.504 88.6185 871.457 77.904 847.107 65.1804C826.117 54.6891 820.539 50.4479 820.539 40.403C820.539 32.5903 824.997 27.0098 835.055 27.0098C845.774 27.0098 849.795 33.4832 849.795 42.8584V50.4479H880.384V41.9655C880.384 17.6345 866.988 0.223389 835.055 0.223389Z" fill="#F2F4F8"/><path d="M899.486 3.12451V151.789H932.091V3.12451H899.486Z" fill="#F2F4F8"/><path d="M955.949 3.12451V151.789H1003.97C1035.46 151.789 1052.88 134.601 1052.88 104.02V51.1168C1052.88 20.5357 1035.46 3.12451 1003.97 3.12451H955.949ZM988.554 30.1341H1001.96C1014.24 30.1341 1019.6 37.7236 1019.6 49.7775V105.136C1019.6 116.967 1014.24 124.78 1001.96 124.78H988.554V30.1341Z" fill="#F2F4F8"/><path d="M1073.52 3.12451V151.789H1154.37V122.101H1105.45V90.4035H1142.97V61.8313H1105.45V32.8128H1154.14V3.12451H1073.52Z" fill="#F2F4F8"/><path d="M1173.19 3.12451V151.789H1201.55L1201.1 62.7242H1201.55L1238.4 151.789H1270.12V3.12451H1241.75L1242.2 91.0732H1241.75L1205.57 3.12451H1173.19Z" fill="#F2F4F8"/><path d="M1286.44 3.12451V33.2592H1316.59V151.789H1349.42V33.2592H1379.34V3.12451H1286.44Z" fill="#F2F4F8"/><path d="M1475.66 3.12451V110.493C1475.66 122.548 1471.64 127.235 1464.49 127.235C1456.9 127.235 1453.1 122.77 1453.1 110.94V93.0822H1424.07V109.377C1424.07 139.512 1434.79 155.361 1464.71 155.361C1493.75 155.361 1508.49 138.619 1508.49 106.029V3.12451H1475.66Z" fill="#F2F4F8"/><path d="M1578 0C1548.31 0 1528.2 18.304 1528.2 50.4477V104.467C1528.2 136.611 1548.31 154.915 1578 154.915C1607.49 154.915 1627.81 136.611 1627.81 104.467V50.4477C1627.81 18.304 1607.49 0 1578 0ZM1578 28.7954C1588.28 28.7954 1594.53 35.492 1594.53 49.5548V105.36C1594.53 119.423 1588.28 126.119 1578 126.119C1567.51 126.119 1561.26 119.423 1561.26 105.36V49.5548C1561.26 35.492 1567.51 28.7954 1578 28.7954Z" fill="#F2F4F8"/><path d="M1648.43 3.12451V151.789H1729.28V122.101H1680.36V90.4035H1717.89V61.8313H1680.36V32.8128H1729.05V3.12451H1648.43Z" fill="#F2F4F8"/><path d="M1782.99 3.12451V151.789H1835.69C1860.27 151.789 1874.78 138.843 1874.78 116.297V104.69C1874.78 88.841 1866.97 80.3587 1852.23 76.5639V76.1174C1866.52 72.3227 1874.11 64.7332 1874.11 48.4382V38.6165C1874.11 16.0712 1859.6 3.12451 1835.02 3.12451H1782.99ZM1814.48 29.4644H1828.1C1837.71 29.4644 1842.62 33.9289 1842.62 42.6344V52.0097C1842.62 61.1618 1837.26 65.6261 1827.65 65.6261H1814.48V29.4644ZM1814.48 87.9481H1827.88C1837.93 87.9481 1843.06 92.6358 1843.06 101.788V111.163C1843.06 120.315 1838.16 125.449 1828.32 125.449H1814.48V87.9481Z" fill="#F2F4F8"/><path d="M1895.34 3.12451V151.789H1927.94V3.12451H1895.34Z" fill="#F2F4F8"/><path d="M1951.81 3.12451V151.789H1999.83C2031.31 151.789 2048.74 134.601 2048.74 104.02V51.1168C2048.74 20.5357 2031.31 3.12451 1999.83 3.12451H1951.81ZM1984.41 30.1341H1997.81C2010.1 30.1341 2015.46 37.7236 2015.46 49.7775V105.136C2015.46 116.967 2010.1 124.78 1997.81 124.78H1984.41V30.1341Z" fill="#F2F4F8"/><path d="M2069.36 3.12451V151.789H2150.2V122.101H2101.29V90.4035H2138.81V61.8313H2101.29V32.8128H2149.98V3.12451H2069.36Z" fill="#F2F4F8"/><path d="M2169.04 3.12451V151.789H2197.4L2196.95 62.7242H2197.4L2234.25 151.789H2265.96V3.12451H2237.6L2238.04 91.0732H2237.6L2201.42 3.12451H2169.04Z" fill="#F2F4F8"/><path d="M1096 1023.76V1114H1127.98C1142.88 1114 1151.69 1106.14 1151.69 1092.46V1085.41C1151.69 1075.79 1146.95 1070.64 1138.01 1068.34V1068.07C1146.68 1065.76 1151.28 1061.16 1151.28 1051.26V1045.3C1151.28 1031.62 1142.48 1023.76 1127.57 1023.76H1096ZM1115.11 1039.75H1123.37C1129.2 1039.75 1132.18 1042.46 1132.18 1047.74V1053.43C1132.18 1058.99 1128.93 1061.7 1123.1 1061.7H1115.11V1039.75ZM1115.11 1075.25H1123.24C1129.33 1075.25 1132.45 1078.09 1132.45 1083.65V1089.34C1132.45 1094.89 1129.47 1098.01 1123.51 1098.01H1115.11V1075.25Z" fill="#F2F4F8"/><path d="M1165.78 1023.76V1085.27C1165.78 1105.19 1174.32 1115.9 1194.92 1115.9C1214.29 1115.9 1223.37 1104.79 1223.37 1085.27V1023.76H1204.54V1086.09C1204.54 1093.68 1201.55 1098.15 1195.05 1098.15C1188.68 1098.15 1185.7 1093.68 1185.7 1086.09V1023.76H1165.78Z" fill="#F2F4F8"/><path d="M1239.84 1023.76V1114H1259.62V1023.76H1239.84Z" fill="#F2F4F8"/><path d="M1276.81 1023.76V1114H1322.75V1095.71H1296.6V1023.76H1276.81Z" fill="#F2F4F8"/><path d="M1335.1 1023.76V1114H1364.23C1383.34 1114 1393.91 1103.57 1393.91 1085V1052.89C1393.91 1034.33 1383.34 1023.76 1364.23 1023.76H1335.1ZM1354.88 1040.15H1363.01C1370.46 1040.15 1373.72 1044.76 1373.72 1052.08V1085.68C1373.72 1092.86 1370.46 1097.6 1363.01 1097.6H1354.88V1040.15Z" fill="#F2F4F8"/><path d="M1406.03 1092.46V1114H1423.38V1092.46H1406.03Z" fill="#F2F4F8"/><path d="M1465.3 1021.86C1447.96 1021.86 1435.63 1033.11 1435.63 1051.94V1086.22C1435.63 1104.92 1445.79 1115.76 1460.83 1115.76C1472.89 1115.76 1478.99 1108.85 1482.37 1101.67L1485.22 1114H1494.57V1066.44H1466.11V1080.13H1475.46V1086.76C1475.46 1094.62 1471.4 1098.96 1465.57 1098.96C1459.61 1098.96 1455.68 1094.49 1455.68 1086.9V1051.26C1455.68 1043.81 1459.34 1039.34 1465.84 1039.34C1472.21 1039.34 1475.46 1043.4 1475.46 1051.53V1055.87H1493.89V1050.04C1493.89 1031.21 1483.46 1021.86 1465.3 1021.86Z" fill="#F2F4F8"/><path d="M1538.82 1021.86C1520.79 1021.86 1508.6 1032.97 1508.6 1052.48V1085.27C1508.6 1104.79 1520.79 1115.9 1538.82 1115.9C1556.7 1115.9 1569.03 1104.79 1569.03 1085.27V1052.48C1569.03 1032.97 1556.7 1021.86 1538.82 1021.86ZM1538.82 1039.34C1545.05 1039.34 1548.84 1043.4 1548.84 1051.94V1085.82C1548.84 1094.35 1545.05 1098.42 1538.82 1098.42C1532.45 1098.42 1528.65 1094.35 1528.65 1085.82V1051.94C1528.65 1043.4 1532.45 1039.34 1538.82 1039.34Z" fill="#F2F4F8"/><path d="M1577.24 1023.76L1599.46 1114.54H1619.92L1642.15 1023.76H1622.77L1610.71 1085H1610.44L1598.11 1023.76H1577.24Z" fill="#F2F4F8"/></svg>