<svg width="67" height="67" viewBox="0 0 67 67" fill="none" xmlns="http://www.w3.org/2000/svg"><g filter="url(#filter0_d)"><path fill-rule="evenodd" clip-rule="evenodd" d="M33.5 53C45.3741 53 55 43.3741 55 31.5C55 19.6259 45.3741 10 33.5 10C21.6259 10 12 19.6259 12 31.5C12 43.3741 21.6259 53 33.5 53ZM41.1907 34.9215L42.8608 33.7906C43.0464 33.6649 43.0464 33.4136 42.8608 33.2251L41.1288 32.0942L36.9845 29.1414C36.8607 29.0157 36.4277 28.9529 36.4277 29.267V31.5288C36.4277 31.5288 22.0152 31.6545 30.6132 27.6335V26C30.6132 26 14.7161 31.9686 36.4277 35.8639V37.7487C36.4277 37.9372 36.6133 38 36.737 38C36.8607 38 36.9845 37.9372 37.0463 37.8743L41.1907 34.9215Z" fill="white"/></g><defs><filter id="filter0_d" x="0" y="0" width="67" height="67" filterUnits="userSpaceOnUse" color-interpolation-filters="sRGB"><feFlood flood-opacity="0" result="BackgroundImageFix"/><feColorMatrix in="SourceAlpha" type="matrix" values="0 0 0 0 0 0 0 0 0 0 0 0 0 0 0 0 0 0 127 0"/><feOffset dy="2"/><feGaussianBlur stdDeviation="6"/><feColorMatrix type="matrix" values="0 0 0 0 0 0 0 0 0 0 0 0 0 0 0 0 0 0 0.09 0"/><feBlend mode="normal" in2="BackgroundImageFix" result="effect1_dropShadow"/><feBlend mode="normal" in="SourceGraphic" in2="effect1_dropShadow" result="shape"/></filter></defs></svg>